<?xml version="1.0" encoding="UTF-8"?>
<!DOCTYPE svg PUBLIC "-//W3C//DTD SVG 1.1//EN" "http://www.w3.org/Graphics/SVG/1.1/DTD/svg11.dtd">
<svg version="1.1" xmlns="http://www.w3.org/2000/svg" xmlns:xlink="http://www.w3.org/1999/xlink" x="0" y="0" width="147" height="104" viewBox="0, 0, 147, 104">
  <g id="Background">
    <rect x="0" y="0" width="147" height="104" fill="#FFFFFF"/>
  </g>
  <g id="Name" transform="scale(1,-1) translate(0,-104)">
    <path d="M 63.8566,81.497 L 62.9879,81.497 L 62.9879,82.211 L 65.7606,82.211 L 65.7606,81.497 L 64.8919,81.497 L 64.8919,74.7497 L 65.7844,74.7497 L 65.7844,74 L 62.9641,74 L 62.9641,74.7497 L 63.8566,74.7497 L 63.8566,81.497 z
M 70.0446,74 L 70.0446,77.6771 C 70.0446,78.161 69.9633,78.5081 69.8007,78.7184 C 69.638,78.9286 69.3901,79.0337 69.0569,79.0337 C 68.7713,79.0337 68.5333,78.9623 68.3429,78.8195 C 68.1525,78.6767 68.0018,78.5379 67.8907,78.403 L 67.8907,74 L 66.9268,74 L 66.9268,79.712 L 67.8074,79.712 L 67.8074,79.0694 L 67.8312,79.0694 C 67.855,79.117 67.9066,79.1864 67.9859,79.2777 C 68.0652,79.3689 68.1684,79.4562 68.2953,79.5395 C 68.4222,79.6228 68.573,79.6961 68.7475,79.7596 C 68.922,79.8231 69.1204,79.8548 69.3425,79.8548 C 69.5964,79.8548 69.8264,79.8171 70.0327,79.7418 C 70.239,79.6664 70.4135,79.5454 70.5563,79.3788 C 70.6991,79.2122 70.8102,78.996 70.8895,78.7303 C 70.9688,78.4645 71.0085,78.1372 71.0085,77.7485 L 71.0085,74 L 70.0446,74 z
M 74.8522,78.9266 L 73.686,78.9266 L 73.686,74 L 72.7221,74 L 72.7221,78.9266 L 72.0319,78.9266 L 72.0319,79.5692 L 72.7221,79.7001 L 72.7221,80.8425 C 72.7221,81.1519 72.7657,81.4177 72.853,81.6398 C 72.9403,81.8619 73.0553,82.0444 73.1981,82.1872 C 73.3409,82.33 73.5075,82.4331 73.6979,82.4966 C 73.8883,82.5601 74.0906,82.5918 74.3048,82.5918 C 74.5111,82.5918 74.6856,82.564 74.8284,82.5085 C 74.9712,82.453 75.0664,82.4093 75.114,82.3776 L 74.9117,81.5803 C 74.8641,81.612 74.7967,81.6458 74.7094,81.6815 C 74.6221,81.7172 74.515,81.735 74.3881,81.735 C 74.158,81.735 73.9835,81.6636 73.8645,81.5208 C 73.7455,81.378 73.686,81.1162 73.686,80.7354 L 73.686,79.712 L 74.9712,79.712 L 74.8522,78.9266 z
M 75.4353,76.856 C 75.4353,77.3796 75.4968,77.8318 75.6198,78.2126 C 75.7427,78.5934 75.9093,78.9048 76.1196,79.1467 C 76.3298,79.3887 76.5718,79.5672 76.8455,79.6823 C 77.1192,79.7973 77.4107,79.8548 77.7201,79.8548 C 78.0374,79.8548 78.331,79.7973 78.6007,79.6823 C 78.8704,79.5672 79.1045,79.3887 79.3028,79.1467 C 79.5011,78.9048 79.6578,78.5934 79.7729,78.2126 C 79.8879,77.8318 79.9454,77.3796 79.9454,76.856 C 79.9454,76.3245 79.8859,75.8683 79.7669,75.4875 C 79.6479,75.1067 79.4833,74.7953 79.2731,74.5534 C 79.0628,74.3114 78.8189,74.1349 78.5412,74.0238 C 78.2635,73.9127 77.97,73.8572 77.6606,73.8572 C 77.3433,73.8572 77.0497,73.9127 76.78,74.0238 C 76.5103,74.1349 76.2762,74.3114 76.0779,74.5534 C 75.8796,74.7953 75.7229,75.1047 75.6079,75.4816 C 75.4928,75.8584 75.4353,76.3165 75.4353,76.856 z
M 78.9458,76.856 C 78.9458,77.6176 78.8347,78.171 78.6126,78.516 C 78.3905,78.8612 78.0811,79.0337 77.6844,79.0337 C 77.2877,79.0337 76.9803,78.8612 76.7622,78.516 C 76.544,78.171 76.4349,77.6176 76.4349,76.856 C 76.4349,76.0944 76.546,75.547 76.7681,75.2138 C 76.9902,74.8806 77.2996,74.714 77.6963,74.714 C 78.093,74.714 78.4004,74.8806 78.6186,75.2138 C 78.8367,75.547 78.9458,76.0944 78.9458,76.856 z
M 83.6701,78.8671 C 83.6463,78.883 83.5947,78.9028 83.5154,78.9266 C 83.4361,78.9504 83.329,78.9623 83.1941,78.9623 C 82.8926,78.9623 82.6566,78.881 82.4861,78.7184 C 82.3155,78.5557 82.1945,78.3792 82.1231,78.1888 L 82.1231,74 L 81.1592,74 L 81.1592,79.712 L 82.0398,79.712 L 82.0398,78.9385 L 82.0636,78.9385 C 82.1033,79.0496 82.1548,79.1587 82.2183,79.2658 C 82.2818,79.3729 82.3611,79.4681 82.4563,79.5514 C 82.5515,79.6347 82.6645,79.7001 82.7954,79.7477 C 82.9264,79.7953 83.083,79.8191 83.2655,79.8191 C 83.4004,79.8191 83.5095,79.8072 83.5928,79.7834 C 83.6761,79.7596 83.7415,79.7398 83.7891,79.7239 L 83.6701,78.8671 z
M 87.6209,74 L 87.6209,77.6771 C 87.6209,78.1452 87.5535,78.4823 87.4186,78.6886 C 87.2837,78.8949 87.0656,78.998 86.7641,78.998 C 86.6054,78.998 86.4646,78.9782 86.3417,78.9385 C 86.2187,78.8988 86.1096,78.8493 86.0144,78.7898 C 85.9192,78.7303 85.8359,78.6648 85.7645,78.5934 C 85.6931,78.522 85.6336,78.4585 85.586,78.403 L 85.586,74 L 84.6221,74 L 84.6221,79.712 L 85.5027,79.712 L 85.5027,79.0694 L 85.5265,79.0694 C 85.5662,79.1329 85.6257,79.2102 85.705,79.3014 C 85.7843,79.3927 85.8835,79.48 86.0025,79.5633 C 86.1215,79.6466 86.2603,79.716 86.419,79.7715 C 86.5777,79.827 86.7562,79.8548 86.9545,79.8548 C 87.605,79.8548 88.0652,79.6009 88.3349,79.0932 C 88.3904,79.1725 88.4658,79.2578 88.561,79.3491 C 88.6562,79.4403 88.7673,79.5236 88.8942,79.599 C 89.0211,79.6743 89.1639,79.7358 89.3226,79.7834 C 89.4813,79.831 89.6558,79.8548 89.8462,79.8548 C 91.0045,79.8548 91.5836,79.1805 91.5836,77.8318 L 91.5836,74 L 90.6197,74 L 90.6197,77.6771 C 90.6197,78.1452 90.5364,78.4823 90.3698,78.6886 C 90.2032,78.8949 89.9573,78.998 89.632,78.998 C 89.3623,78.998 89.1382,78.9325 88.9597,78.8017 C 88.7812,78.6707 88.6403,78.5458 88.5372,78.4268 C 88.5531,78.3395 88.565,78.2463 88.5729,78.1471 C 88.5808,78.048 88.5848,77.9429 88.5848,77.8318 L 88.5848,74 L 87.6209,74 z
M 92.6903,75.4518 C 92.6903,75.785 92.7538,76.0627 92.8807,76.2848 C 93.0076,76.5069 93.1782,76.6874 93.3924,76.8263 C 93.6066,76.9651 93.8585,77.0643 94.1481,77.1238 C 94.4376,77.1833 94.745,77.213 95.0703,77.213 L 95.3678,77.213 L 95.3678,77.7604 C 95.3678,78.2443 95.2825,78.5775 95.112,78.76 C 94.9414,78.9425 94.7014,79.0337 94.392,79.0337 C 94.1064,79.0337 93.8684,78.9722 93.678,78.8493 C 93.4876,78.7263 93.3369,78.6172 93.2258,78.522 L 92.8212,79.1646 C 92.8847,79.2281 92.966,79.2995 93.0652,79.3788 C 93.1643,79.4581 93.2853,79.5335 93.4281,79.6049 C 93.5709,79.6763 93.7335,79.7358 93.916,79.7834 C 94.0985,79.831 94.3047,79.8548 94.5348,79.8548 C 95.1219,79.8548 95.5661,79.6922 95.8676,79.3669 C 96.1691,79.0416 96.3198,78.518 96.3198,77.7961 L 96.3198,75.19 C 96.3198,74.9441 96.3277,74.7041 96.3436,74.4701 C 96.3595,74.236 96.3753,74.0793 96.3912,74 L 95.4749,74 L 95.4392,74.6307 L 95.4154,74.6307 C 95.3837,74.5593 95.3361,74.478 95.2726,74.3868 C 95.2091,74.2955 95.1298,74.2122 95.0346,74.1368 C 94.9394,74.0615 94.8244,73.996 94.6895,73.9405 C 94.5546,73.885 94.396,73.8572 94.2135,73.8572 C 93.9993,73.8572 93.799,73.8969 93.6126,73.9762 C 93.4261,74.0555 93.2635,74.1666 93.1247,74.3094 C 92.9858,74.4522 92.8787,74.6208 92.8034,74.8152 C 92.728,75.0095 92.6903,75.2217 92.6903,75.4518 z
M 94.4158,74.6783 C 94.5507,74.6783 94.6697,74.6981 94.7728,74.7378 C 94.8759,74.7775 94.9652,74.8251 95.0406,74.8806 C 95.1159,74.9361 95.1794,74.9976 95.231,75.0651 C 95.2825,75.1325 95.3281,75.19 95.3678,75.2376 L 95.3678,76.499 L 95.0584,76.4871 C 94.5983,76.4712 94.2492,76.3919 94.0112,76.2491 C 93.7732,76.1063 93.6542,75.8762 93.6542,75.5589 C 93.6542,75.2654 93.7216,75.0452 93.8565,74.8985 C 93.9914,74.7517 94.1778,74.6783 94.4158,74.6783 z
M 100.2111,78.9266 L 98.9616,78.9266 L 98.9616,75.7612 C 98.9616,75.3566 99.0132,75.0809 99.1163,74.9342 C 99.2194,74.7874 99.394,74.714 99.6399,74.714 C 99.7827,74.714 99.9057,74.7338 100.0088,74.7735 C 100.1119,74.8132 100.1873,74.8489 100.2349,74.8806 L 100.3658,74.1071 C 100.3261,74.0754 100.2309,74.0258 100.0802,73.9583 C 99.9295,73.8909 99.7272,73.8572 99.4733,73.8572 C 98.9814,73.8572 98.6125,73.994 98.3666,74.2678 C 98.1207,74.5414 97.9977,74.9956 97.9977,75.6303 L 97.9977,78.9266 L 97.3075,78.9266 L 97.3075,79.5692 L 97.9977,79.712 L 98.1048,81.3066 L 98.9616,81.3066 L 98.9616,79.712 L 100.3301,79.712 L 100.2111,78.9266 z
M 102.2698,74 L 101.3059,74 L 101.3059,79.712 L 102.2698,79.712 L 102.2698,74 z
M 101.7938,81.0924 C 101.5955,81.0924 101.4368,81.1559 101.3178,81.2828 C 101.1988,81.4097 101.1393,81.5763 101.1393,81.7826 C 101.1393,81.9809 101.1988,82.1436 101.3178,82.2705 C 101.4368,82.3974 101.5955,82.4609 101.7938,82.4609 C 101.9842,82.4609 102.1389,82.3974 102.2579,82.2705 C 102.3769,82.1436 102.4364,81.9809 102.4364,81.7826 C 102.4364,81.5763 102.3769,81.4097 102.2579,81.2828 C 102.1389,81.1559 101.9842,81.0924 101.7938,81.0924 z
M 103.4836,76.856 C 103.4836,77.3796 103.5451,77.8318 103.6681,78.2126 C 103.791,78.5934 103.9576,78.9048 104.1679,79.1467 C 104.3781,79.3887 104.6201,79.5672 104.8938,79.6823 C 105.1675,79.7973 105.459,79.8548 105.7684,79.8548 C 106.0857,79.8548 106.3793,79.7973 106.649,79.6823 C 106.9187,79.5672 107.1528,79.3887 107.3511,79.1467 C 107.5494,78.9048 107.7061,78.5934 107.8212,78.2126 C 107.9362,77.8318 107.9937,77.3796 107.9937,76.856 C 107.9937,76.3245 107.9342,75.8683 107.8152,75.4875 C 107.6962,75.1067 107.5316,74.7953 107.3214,74.5534 C 107.1111,74.3114 106.8672,74.1349 106.5895,74.0238 C 106.3118,73.9127 106.0183,73.8572 105.7089,73.8572 C 105.3916,73.8572 105.098,73.9127 104.8283,74.0238 C 104.5586,74.1349 104.3245,74.3114 104.1262,74.5534 C 103.9279,74.7953 103.7712,75.1047 103.6562,75.4816 C 103.5411,75.8584 103.4836,76.3165 103.4836,76.856 z
M 106.9941,76.856 C 106.9941,77.6176 106.883,78.171 106.6609,78.516 C 106.4388,78.8612 106.1294,79.0337 105.7327,79.0337 C 105.336,79.0337 105.0286,78.8612 104.8105,78.516 C 104.5923,78.171 104.4832,77.6176 104.4832,76.856 C 104.4832,76.0944 104.5943,75.547 104.8164,75.2138 C 105.0385,74.8806 105.3479,74.714 105.7446,74.714 C 106.1413,74.714 106.4487,74.8806 106.6669,75.2138 C 106.885,75.547 106.9941,76.0944 106.9941,76.856 z
M 112.3253,74 L 112.3253,77.6771 C 112.3253,78.161 112.244,78.5081 112.0814,78.7184 C 111.9187,78.9286 111.6708,79.0337 111.3376,79.0337 C 111.052,79.0337 110.814,78.9623 110.6236,78.8195 C 110.4332,78.6767 110.2825,78.5379 110.1714,78.403 L 110.1714,74 L 109.2075,74 L 109.2075,79.712 L 110.0881,79.712 L 110.0881,79.0694 L 110.1119,79.0694 C 110.1357,79.117 110.1873,79.1864 110.2666,79.2777 C 110.3459,79.3689 110.4491,79.4562 110.576,79.5395 C 110.7029,79.6228 110.8537,79.6961 111.0282,79.7596 C 111.2027,79.8231 111.4011,79.8548 111.6232,79.8548 C 111.8771,79.8548 112.1071,79.8171 112.3134,79.7418 C 112.5197,79.6664 112.6942,79.5454 112.837,79.3788 C 112.9798,79.2122 113.0909,78.996 113.1702,78.7303 C 113.2495,78.4645 113.2892,78.1372 113.2892,77.7485 L 113.2892,74 L 112.3253,74 z
M 117.1924,78.5577 C 117.1289,78.6291 117.0139,78.7263 116.8473,78.8493 C 116.6807,78.9722 116.4625,79.0337 116.1928,79.0337 C 115.9389,79.0337 115.7446,78.9742 115.6097,78.8552 C 115.4748,78.7362 115.4074,78.5934 115.4074,78.4268 C 115.4074,78.2126 115.4689,78.0361 115.5919,77.8973 C 115.7148,77.7584 115.9032,77.6097 116.1571,77.451 L 116.5141,77.2368 C 116.9028,77.0067 117.2083,76.7588 117.4304,76.4931 C 117.6525,76.2273 117.7636,75.8842 117.7636,75.4637 C 117.7636,75.0115 117.6069,74.6307 117.2936,74.3213 C 116.9802,74.0119 116.53,73.8572 115.9429,73.8572 C 115.7128,73.8572 115.5105,73.881 115.336,73.9286 C 115.1615,73.9762 115.0087,74.0317 114.8779,74.0952 C 114.747,74.1587 114.6379,74.2281 114.5506,74.3034 C 114.4633,74.3788 114.3919,74.4482 114.3364,74.5117 L 114.8005,75.2733 C 114.8481,75.2257 114.9056,75.1702 114.9731,75.1067 C 115.0405,75.0432 115.1218,74.9818 115.217,74.9223 C 115.3122,74.8628 115.4193,74.8132 115.5383,74.7735 C 115.6573,74.7338 115.7961,74.714 115.9548,74.714 C 116.2404,74.714 116.4586,74.7775 116.6093,74.9044 C 116.76,75.0313 116.8354,75.186 116.8354,75.3685 C 116.8354,75.5034 116.8176,75.6204 116.7819,75.7196 C 116.7462,75.8187 116.6926,75.908 116.6212,75.9873 C 116.5498,76.0666 116.4625,76.142 116.3594,76.2134 C 116.2563,76.2848 116.1373,76.3641 116.0024,76.4514 L 115.6454,76.6775 C 115.2884,76.9076 115.0087,77.1495 114.8065,77.4034 C 114.6042,77.6573 114.503,77.9825 114.503,78.3792 C 114.503,78.5934 114.5447,78.7898 114.628,78.9683 C 114.7113,79.1467 114.8283,79.3014 114.979,79.4324 C 115.1297,79.5633 115.3063,79.6664 115.5086,79.7418 C 115.7109,79.8171 115.927,79.8548 116.1571,79.8548 C 116.3792,79.8548 116.5696,79.833 116.7283,79.7894 C 116.887,79.7457 117.0238,79.6902 117.1389,79.6228 C 117.2539,79.5553 117.3491,79.4879 117.4245,79.4205 C 117.4998,79.353 117.5613,79.2955 117.6089,79.2479 L 117.1924,78.5577 z
M 68.0692,69.3899 L 65.8796,69.3899 L 65.8796,62 L 64.8443,62 L 64.8443,69.3899 L 62.6547,69.3899 L 62.6547,70.211 L 68.1406,70.211 L 68.0692,69.3899 z
M 71.7582,65.7842 C 71.7582,65.5383 71.7503,65.3261 71.7344,65.1476 C 71.7185,64.9691 71.7027,64.8124 71.6868,64.6775 L 68.7713,64.6775 C 68.803,64.0032 68.9478,63.5073 69.2057,63.19 C 69.4635,62.8727 69.8344,62.714 70.3183,62.714 C 70.4849,62.714 70.6356,62.7338 70.7705,62.7735 C 70.9054,62.8132 71.0224,62.8608 71.1216,62.9163 C 71.2207,62.9718 71.304,63.0274 71.3715,63.0829 C 71.4389,63.1384 71.4885,63.1821 71.5202,63.2138 L 71.8772,62.5355 C 71.8375,62.4958 71.778,62.4383 71.6987,62.363 C 71.6194,62.2876 71.5123,62.2122 71.3774,62.1368 C 71.2425,62.0615 71.0759,61.996 70.8776,61.9405 C 70.6793,61.885 70.4452,61.8572 70.1755,61.8572 C 69.8185,61.8572 69.4952,61.9167 69.2057,62.0357 C 68.9161,62.1547 68.6702,62.3392 68.4679,62.5891 C 68.2656,62.839 68.1089,63.1563 67.9978,63.5411 C 67.8867,63.9258 67.8312,64.3879 67.8312,64.9274 C 67.8312,65.4351 67.8887,65.8735 68.0038,66.2424 C 68.1188,66.6113 68.2755,66.9147 68.4738,67.1527 C 68.6721,67.3907 68.9022,67.5672 69.164,67.6823 C 69.4258,67.7973 69.7074,67.8548 70.0089,67.8548 C 70.5563,67.8548 70.9847,67.6823 71.2941,67.3372 C 71.6035,66.9921 71.7582,66.4744 71.7582,65.7842 z
M 69.9494,67.0694 C 69.6083,67.0694 69.3346,66.9266 69.1283,66.641 C 68.922,66.3554 68.803,65.9429 68.7713,65.4034 L 70.8538,65.4034 C 70.8617,65.4431 70.8677,65.5006 70.8717,65.576 C 70.8756,65.6513 70.8776,65.7326 70.8776,65.8199 C 70.8776,66.2166 70.7983,66.524 70.6396,66.7422 C 70.4809,66.9603 70.2509,67.0694 69.9494,67.0694 z
M 76.2207,66.6053 C 76.1969,66.6291 76.1592,66.6648 76.1077,66.7124 C 76.0561,66.76 75.9906,66.8076 75.9113,66.8552 C 75.832,66.9028 75.7368,66.9445 75.6257,66.9802 C 75.5146,67.0159 75.3877,67.0337 75.2449,67.0337 C 75.0386,67.0337 74.8463,66.996 74.6678,66.9207 C 74.4893,66.8453 74.3346,66.7243 74.2037,66.5577 C 74.0728,66.3911 73.9696,66.1749 73.8943,65.9092 C 73.8189,65.6434 73.7812,65.3201 73.7812,64.9393 C 73.7812,64.5188 73.8149,64.1658 73.8824,63.8802 C 73.9498,63.5946 74.043,63.3665 74.162,63.196 C 74.281,63.0254 74.4258,62.9024 74.5964,62.8271 C 74.7669,62.7517 74.9553,62.714 75.1616,62.714 C 75.4551,62.714 75.6793,62.7656 75.834,62.8687 C 75.9887,62.9718 76.0977,63.0551 76.1612,63.1186 L 76.5539,62.4522 C 76.5142,62.4046 76.4567,62.3471 76.3814,62.2797 C 76.306,62.2122 76.2088,62.1468 76.0898,62.0833 C 75.9708,62.0198 75.826,61.9663 75.6555,61.9226 C 75.4849,61.879 75.2885,61.8572 75.0664,61.8572 C 74.7491,61.8572 74.4516,61.9088 74.1739,62.0119 C 73.8962,62.115 73.6543,62.2856 73.448,62.5236 C 73.2417,62.7616 73.0791,63.071 72.9601,63.4518 C 72.8411,63.8326 72.7816,64.3046 72.7816,64.8679 C 72.7816,65.4153 72.853,65.8794 72.9958,66.2602 C 73.1386,66.641 73.325,66.9484 73.5551,67.1825 C 73.7852,67.4165 74.041,67.5871 74.3227,67.6942 C 74.6043,67.8013 74.8879,67.8548 75.1735,67.8548 C 75.3877,67.8548 75.5761,67.835 75.7388,67.7953 C 75.9014,67.7556 76.0402,67.7061 76.1553,67.6466 C 76.2703,67.5871 76.3655,67.5236 76.4409,67.4562 C 76.5162,67.3887 76.5777,67.3312 76.6253,67.2836 L 76.2207,66.6053 z
M 80.7546,62 L 80.7546,65.6771 C 80.7546,66.161 80.6733,66.5081 80.5107,66.7184 C 80.348,66.9286 80.1001,67.0337 79.7669,67.0337 C 79.4813,67.0337 79.2433,66.9623 79.0529,66.8195 C 78.8625,66.6767 78.7118,66.5379 78.6007,66.403 L 78.6007,62 L 77.6368,62 L 77.6368,70.4133 L 78.6007,70.5204 L 78.6007,67.1289 L 78.6245,67.1289 C 78.6562,67.1765 78.7058,67.24 78.7733,67.3193 C 78.8407,67.3986 78.9339,67.478 79.0529,67.5573 C 79.1719,67.6366 79.3167,67.7061 79.4873,67.7656 C 79.6578,67.8251 79.8581,67.8548 80.0882,67.8548 C 80.588,67.8548 80.9847,67.6922 81.2782,67.3669 C 81.5717,67.0416 81.7185,66.5022 81.7185,65.7485 L 81.7185,62 L 80.7546,62 z
M 86.2762,62 L 86.2762,65.6771 C 86.2762,66.161 86.1949,66.5081 86.0323,66.7184 C 85.8696,66.9286 85.6217,67.0337 85.2885,67.0337 C 85.0029,67.0337 84.7649,66.9623 84.5745,66.8195 C 84.3841,66.6767 84.2334,66.5379 84.1223,66.403 L 84.1223,62 L 83.1584,62 L 83.1584,67.712 L 84.039,67.712 L 84.039,67.0694 L 84.0628,67.0694 C 84.0866,67.117 84.1382,67.1864 84.2175,67.2777 C 84.2968,67.3689 84.4,67.4562 84.5269,67.5395 C 84.6538,67.6228 84.8046,67.6961 84.9791,67.7596 C 85.1536,67.8231 85.352,67.8548 85.5741,67.8548 C 85.828,67.8548 86.058,67.8171 86.2643,67.7418 C 86.4706,67.6664 86.6451,67.5454 86.7879,67.3788 C 86.9307,67.2122 87.0418,66.996 87.1211,66.7303 C 87.2004,66.4645 87.2401,66.1372 87.2401,65.7485 L 87.2401,62 L 86.2762,62 z
M 89.6439,62 L 88.68,62 L 88.68,67.712 L 89.6439,67.712 L 89.6439,62 z
M 89.1679,69.0924 C 88.9696,69.0924 88.8109,69.1559 88.6919,69.2828 C 88.5729,69.4097 88.5134,69.5763 88.5134,69.7826 C 88.5134,69.9809 88.5729,70.1436 88.6919,70.2705 C 88.8109,70.3974 88.9696,70.4609 89.1679,70.4609 C 89.3583,70.4609 89.513,70.3974 89.632,70.2705 C 89.751,70.1436 89.8105,69.9809 89.8105,69.7826 C 89.8105,69.5763 89.751,69.4097 89.632,69.2828 C 89.513,69.1559 89.3583,69.0924 89.1679,69.0924 z
M 93.2734,65.094 L 95.2369,62 L 94.0826,62 L 92.4761,64.6656 L 92.0834,64.6656 L 92.0834,62 L 91.1195,62 L 91.1195,70.4133 L 92.0834,70.5204 L 92.0834,65.4867 L 92.488,65.4867 L 94.0231,67.712 L 95.1655,67.712 L 93.2734,65.094 z
M 67.6527,57.5684 L 64.166,50.8806 L 64.166,50.8568 L 67.9502,50.8568 L 67.8788,50 L 62.8332,50 L 62.8332,50.6426 L 66.427,57.3661 L 66.427,57.3899 L 63.0236,57.3899 L 63.0236,58.211 L 67.6527,58.211 L 67.6527,57.5684 z
M 72.5317,53.7842 C 72.5317,53.5383 72.5238,53.3261 72.5079,53.1476 C 72.492,52.9691 72.4762,52.8124 72.4603,52.6775 L 69.5448,52.6775 C 69.5765,52.0032 69.7213,51.5073 69.9792,51.19 C 70.237,50.8727 70.6079,50.714 71.0918,50.714 C 71.2584,50.714 71.4091,50.7338 71.544,50.7735 C 71.6789,50.8132 71.7959,50.8608 71.8951,50.9163 C 71.9942,50.9718 72.0775,51.0274 72.145,51.0829 C 72.2124,51.1384 72.262,51.1821 72.2937,51.2138 L 72.6507,50.5355 C 72.611,50.4958 72.5515,50.4383 72.4722,50.363 C 72.3929,50.2876 72.2858,50.2122 72.1509,50.1368 C 72.016,50.0615 71.8494,49.996 71.6511,49.9405 C 71.4528,49.885 71.2187,49.8572 70.949,49.8572 C 70.592,49.8572 70.2687,49.9167 69.9792,50.0357 C 69.6896,50.1547 69.4437,50.3392 69.2414,50.5891 C 69.0391,50.839 68.8824,51.1563 68.7713,51.5411 C 68.6602,51.9258 68.6047,52.3879 68.6047,52.9274 C 68.6047,53.4351 68.6622,53.8735 68.7773,54.2424 C 68.8923,54.6113 69.049,54.9147 69.2473,55.1527 C 69.4456,55.3907 69.6757,55.5672 69.9375,55.6823 C 70.1993,55.7973 70.4809,55.8548 70.7824,55.8548 C 71.3298,55.8548 71.7582,55.6823 72.0676,55.3372 C 72.377,54.9921 72.5317,54.4744 72.5317,53.7842 z
M 70.7229,55.0694 C 70.3818,55.0694 70.1081,54.9266 69.9018,54.641 C 69.6955,54.3554 69.5765,53.9429 69.5448,53.4034 L 71.6273,53.4034 C 71.6352,53.4431 71.6412,53.5006 71.6452,53.576 C 71.6491,53.6513 71.6511,53.7326 71.6511,53.8199 C 71.6511,54.2166 71.5718,54.524 71.4131,54.7422 C 71.2544,54.9603 71.0244,55.0694 70.7229,55.0694 z
M 76.9347,50 L 76.9347,53.6771 C 76.9347,54.161 76.8534,54.5081 76.6908,54.7184 C 76.5281,54.9286 76.2802,55.0337 75.947,55.0337 C 75.6614,55.0337 75.4234,54.9623 75.233,54.8195 C 75.0426,54.6767 74.8919,54.5379 74.7808,54.403 L 74.7808,50 L 73.8169,50 L 73.8169,55.712 L 74.6975,55.712 L 74.6975,55.0694 L 74.7213,55.0694 C 74.7451,55.117 74.7967,55.1864 74.876,55.2777 C 74.9553,55.3689 75.0585,55.4562 75.1854,55.5395 C 75.3123,55.6228 75.4631,55.6961 75.6376,55.7596 C 75.8121,55.8231 76.0105,55.8548 76.2326,55.8548 C 76.4865,55.8548 76.7165,55.8171 76.9228,55.7418 C 77.1291,55.6664 77.3036,55.5454 77.4464,55.3788 C 77.5892,55.2122 77.7003,54.996 77.7796,54.7303 C 77.8589,54.4645 77.8986,54.1372 77.8986,53.7485 L 77.8986,50 L 76.9347,50 z
M 81.778,54.9266 L 80.5285,54.9266 L 80.5285,51.7612 C 80.5285,51.3566 80.5801,51.0809 80.6832,50.9342 C 80.7863,50.7874 80.9609,50.714 81.2068,50.714 C 81.3496,50.714 81.4726,50.7338 81.5757,50.7735 C 81.6788,50.8132 81.7542,50.8489 81.8018,50.8806 L 81.9327,50.1071 C 81.893,50.0754 81.7978,50.0258 81.6471,49.9583 C 81.4964,49.8909 81.2941,49.8572 81.0402,49.8572 C 80.5483,49.8572 80.1794,49.994 79.9335,50.2678 C 79.6876,50.5414 79.5646,50.9956 79.5646,51.6303 L 79.5646,54.9266 L 78.8744,54.9266 L 78.8744,55.5692 L 79.5646,55.712 L 79.6717,57.3066 L 80.5285,57.3066 L 80.5285,55.712 L 81.897,55.712 L 81.778,54.9266 z
M 85.3837,54.8671 C 85.3599,54.883 85.3083,54.9028 85.229,54.9266 C 85.1497,54.9504 85.0426,54.9623 84.9077,54.9623 C 84.6062,54.9623 84.3702,54.881 84.1997,54.7184 C 84.0291,54.5557 83.9081,54.3792 83.8367,54.1888 L 83.8367,50 L 82.8728,50 L 82.8728,55.712 L 83.7534,55.712 L 83.7534,54.9385 L 83.7772,54.9385 C 83.8169,55.0496 83.8684,55.1587 83.9319,55.2658 C 83.9954,55.3729 84.0747,55.4681 84.1699,55.5514 C 84.2651,55.6347 84.3781,55.7001 84.509,55.7477 C 84.64,55.7953 84.7966,55.8191 84.9791,55.8191 C 85.114,55.8191 85.2231,55.8072 85.3064,55.7834 C 85.3897,55.7596 85.4551,55.7398 85.5027,55.7239 L 85.3837,54.8671 z
M 90.3341,50 L 89.4535,50 L 89.4535,50.6426 L 89.4297,50.6426 C 89.4059,50.595 89.3543,50.5256 89.275,50.4344 C 89.1957,50.3431 89.0945,50.2559 88.9716,50.1726 C 88.8486,50.0893 88.6998,50.0159 88.5253,49.9524 C 88.3508,49.8889 88.1564,49.8572 87.9422,49.8572 C 87.6883,49.8572 87.4603,49.8949 87.258,49.9702 C 87.0557,50.0456 86.8831,50.1666 86.7403,50.3332 C 86.5975,50.4998 86.4884,50.716 86.4131,50.9818 C 86.3377,51.2475 86.3,51.5748 86.3,51.9635 L 86.3,55.712 L 87.2639,55.712 L 87.2639,52.0349 C 87.2639,51.5589 87.3413,51.2198 87.496,51.0174 C 87.6507,50.8152 87.8906,50.714 88.2159,50.714 C 88.4936,50.714 88.7276,50.7834 88.918,50.9223 C 89.1084,51.0611 89.2591,51.1979 89.3702,51.3328 L 89.3702,55.712 L 90.3341,55.712 L 90.3341,50 z
M 94.8085,50 L 94.8085,53.6771 C 94.8085,54.1452 94.7411,54.4823 94.6062,54.6886 C 94.4713,54.8949 94.2532,54.998 93.9517,54.998 C 93.793,54.998 93.6522,54.9782 93.5293,54.9385 C 93.4063,54.8988 93.2972,54.8493 93.202,54.7898 C 93.1068,54.7303 93.0235,54.6648 92.9521,54.5934 C 92.8807,54.522 92.8212,54.4585 92.7736,54.403 L 92.7736,50 L 91.8097,50 L 91.8097,55.712 L 92.6903,55.712 L 92.6903,55.0694 L 92.7141,55.0694 C 92.7538,55.1329 92.8133,55.2102 92.8926,55.3014 C 92.9719,55.3927 93.0711,55.48 93.1901,55.5633 C 93.3091,55.6466 93.4479,55.716 93.6066,55.7715 C 93.7653,55.827 93.9438,55.8548 94.1421,55.8548 C 94.7926,55.8548 95.2528,55.6009 95.5225,55.0932 C 95.578,55.1725 95.6534,55.2578 95.7486,55.3491 C 95.8438,55.4403 95.9549,55.5236 96.0818,55.599 C 96.2087,55.6743 96.3515,55.7358 96.5102,55.7834 C 96.6689,55.831 96.8434,55.8548 97.0338,55.8548 C 98.1921,55.8548 98.7712,55.1805 98.7712,53.8318 L 98.7712,50 L 97.8073,50 L 97.8073,53.6771 C 97.8073,54.1452 97.724,54.4823 97.5574,54.6886 C 97.3908,54.8949 97.1449,54.998 96.8196,54.998 C 96.5499,54.998 96.3258,54.9325 96.1473,54.8017 C 95.9688,54.6707 95.8279,54.5458 95.7248,54.4268 C 95.7407,54.3395 95.7526,54.2463 95.7605,54.1471 C 95.7684,54.048 95.7724,53.9429 95.7724,53.8318 L 95.7724,50 L 94.8085,50 z
M 107.244,56.1166 C 107.244,55.831 107.2083,55.5811 107.1369,55.3669 C 107.0655,55.1527 106.9683,54.9683 106.8454,54.8136 C 106.7224,54.6589 106.5796,54.5339 106.417,54.4387 C 106.2543,54.3435 106.0857,54.2721 105.9112,54.2245 L 105.9112,54.2007 C 106.1254,54.161 106.3257,54.0857 106.5121,53.9746 C 106.6986,53.8635 106.8612,53.7247 107.0001,53.5581 C 107.1389,53.3915 107.25,53.1952 107.3333,52.9691 C 107.4166,52.7429 107.4582,52.495 107.4582,52.2253 C 107.4582,51.9 107.4027,51.6025 107.2916,51.3328 C 107.1805,51.0631 107.008,50.829 106.7739,50.6307 C 106.5399,50.4324 106.2444,50.2777 105.8874,50.1666 C 105.5304,50.0555 105.106,50 104.6141,50 L 102.9362,50 L 102.9362,58.211 L 104.5189,58.211 C 105.0028,58.211 105.4174,58.1614 105.7625,58.0623 C 106.1076,57.9631 106.3912,57.8223 106.6133,57.6398 C 106.8354,57.4573 106.9961,57.2372 107.0953,56.9794 C 107.1944,56.7215 107.244,56.4339 107.244,56.1166 z
M 106.1968,56.0809 C 106.1968,56.4617 106.0619,56.7751 105.7922,57.021 C 105.5225,57.2669 105.098,57.3899 104.5189,57.3899 L 103.9715,57.3899 L 103.9715,54.5577 L 104.507,54.5577 C 105.0623,54.5577 105.4828,54.6926 105.7684,54.9623 C 106.054,55.232 106.1968,55.6049 106.1968,56.0809 z
M 106.3515,52.2967 C 106.3515,52.741 106.2067,53.092 105.9172,53.3499 C 105.6276,53.6077 105.2131,53.7366 104.6736,53.7366 L 103.9715,53.7366 L 103.9715,50.8568 L 104.6141,50.8568 C 105.225,50.8568 105.6673,50.9778 105.941,51.2198 C 106.2147,51.4617 106.3515,51.8207 106.3515,52.2967 z
M 112.7299,50 L 111.8493,50 L 111.8493,50.6426 L 111.8255,50.6426 C 111.8017,50.595 111.7501,50.5256 111.6708,50.4344 C 111.5915,50.3431 111.4903,50.2559 111.3674,50.1726 C 111.2444,50.0893 111.0956,50.0159 110.9211,49.9524 C 110.7466,49.8889 110.5522,49.8572 110.338,49.8572 C 110.0841,49.8572 109.8561,49.8949 109.6538,49.9702 C 109.4515,50.0456 109.2789,50.1666 109.1361,50.3332 C 108.9933,50.4998 108.8842,50.716 108.8089,50.9818 C 108.7335,51.2475 108.6958,51.5748 108.6958,51.9635 L 108.6958,55.712 L 109.6597,55.712 L 109.6597,52.0349 C 109.6597,51.5589 109.7371,51.2198 109.8918,51.0174 C 110.0465,50.8152 110.2864,50.714 110.6117,50.714 C 110.8894,50.714 111.1234,50.7834 111.3138,50.9223 C 111.5042,51.0611 111.6549,51.1979 111.766,51.3328 L 111.766,55.712 L 112.7299,55.712 L 112.7299,50 z
M 117.3233,50 L 117.3233,53.6771 C 117.3233,54.161 117.242,54.5081 117.0794,54.7184 C 116.9167,54.9286 116.6688,55.0337 116.3356,55.0337 C 116.05,55.0337 115.812,54.9623 115.6216,54.8195 C 115.4312,54.6767 115.2805,54.5379 115.1694,54.403 L 115.1694,50 L 114.2055,50 L 114.2055,55.712 L 115.0861,55.712 L 115.0861,55.0694 L 115.1099,55.0694 C 115.1337,55.117 115.1853,55.1864 115.2646,55.2777 C 115.3439,55.3689 115.4471,55.4562 115.574,55.5395 C 115.7009,55.6228 115.8517,55.6961 116.0262,55.7596 C 116.2007,55.8231 116.3991,55.8548 116.6212,55.8548 C 116.8751,55.8548 117.1051,55.8171 117.3114,55.7418 C 117.5177,55.6664 117.6922,55.5454 117.835,55.3788 C 117.9778,55.2122 118.0889,54.996 118.1682,54.7303 C 118.2475,54.4645 118.2872,54.1372 118.2872,53.7485 L 118.2872,50 L 117.3233,50 z
M 119.4653,52.7727 C 119.4653,53.3518 119.5407,53.8358 119.6914,54.2245 C 119.8421,54.6132 120.0365,54.9266 120.2745,55.1646 C 120.5125,55.4026 120.7822,55.5712 121.0837,55.6704 C 121.3852,55.7695 121.6866,55.8191 121.9881,55.8191 C 122.1706,55.8191 122.3292,55.8052 122.4641,55.7774 C 122.599,55.7497 122.71,55.716 122.7973,55.6763 L 122.7973,58.4133 L 123.7612,58.5204 L 123.7612,50 L 122.8806,50 L 122.8806,50.6069 L 122.8568,50.6069 C 122.833,50.5593 122.7894,50.4939 122.7259,50.4106 C 122.6624,50.3273 122.5752,50.244 122.4641,50.1607 C 122.353,50.0774 122.2142,50.006 122.0476,49.9464 C 121.881,49.8869 121.6866,49.8572 121.4645,49.8572 C 121.1948,49.8572 120.9389,49.9107 120.697,50.0179 C 120.455,50.125 120.2428,50.2955 120.0603,50.5296 C 119.8778,50.7636 119.7331,51.0651 119.626,51.434 C 119.5189,51.8029 119.4653,52.2491 119.4653,52.7727 z
M 121.7263,50.714 C 121.877,50.714 122.0119,50.7338 122.1309,50.7735 C 122.2499,50.8132 122.353,50.8628 122.4403,50.9223 C 122.5276,50.9818 122.601,51.0432 122.6605,51.1067 C 122.72,51.1702 122.7656,51.2257 122.7973,51.2733 L 122.7973,54.7957 C 122.71,54.8512 122.6089,54.8988 122.4939,54.9385 C 122.3788,54.9782 122.234,54.998 122.0595,54.998 C 121.8374,54.998 121.6291,54.9603 121.4348,54.885 C 121.2404,54.8096 121.0718,54.6846 120.929,54.5101 C 120.7862,54.3356 120.6732,54.1095 120.5899,53.8318 C 120.5066,53.5541 120.4649,53.213 120.4649,52.8084 C 120.4649,52.4117 120.4986,52.0805 120.5661,51.8148 C 120.6335,51.549 120.7267,51.3348 120.8457,51.1722 C 120.9647,51.0095 121.0996,50.8925 121.2503,50.8211 C 121.401,50.7497 121.5597,50.714 121.7263,50.714 z
" fill="#000000"/>
  </g>
  <g id="Adler-und-Saeulenelement">
    <path d="M37.173,29.339 C37.2,29.115 37.216,28.884 37.216,28.648 C37.216,28.519 37.217,28.369 37.201,28.199 C39.194,28.171 40.942,26.735 40.942,25.084 C40.942,24.244 40.394,23.61 40.085,23.231 C40.154,23.216 40.224,23.2 40.295,23.183 C40.587,23.437 41.415,24.339 41.415,25.478 C41.415,27.459 39.435,29.298 37.173,29.339 M35.165,22.44 C35.128,22.219 35.044,22.019 34.916,21.847 C34.923,21.645 35.006,21.452 35.331,21.611 C35.155,21.791 35.291,22.11 35.291,22.11 C35.291,22.11 35.651,21.943 35.576,21.705 C36.11,21.833 35.726,22.55 35.165,22.44 M34.702,23.457 C34.631,23.161 34.479,22.857 34.286,22.628 C34.11,22.42 33.819,22.173 33.427,22.173 C33.248,22.173 32.948,22.257 32.757,22.338 C32.686,22.208 32.547,21.895 32.547,21.754 C32.547,21.609 32.792,21.462 33.261,21.462 C34.293,21.462 34.909,21.928 34.909,22.71 C34.909,22.985 34.8,23.235 34.702,23.457 M37.352,36.757 C37.472,36.757 37.53,36.776 37.6,36.802 C37.897,37.61 39.042,39.135 39.09,39.2 L39.1,39.214 L39.117,39.21 C39.398,39.165 40.115,39.057 40.715,39.057 L40.729,39.057 C40.794,39.057 40.868,39.057 40.915,39.103 C40.954,39.142 40.973,39.21 40.973,39.307 C40.973,39.456 40.91,39.711 40.834,39.82 C40.624,39.591 40.283,39.488 39.737,39.488 C39.573,39.488 39.379,39.537 39.274,39.565 L39.231,39.574 L39.182,39.587 L39.497,39.902 C39.983,40.388 40.403,40.807 40.403,41.086 C40.403,41.254 40.239,41.473 40.089,41.57 C40.056,41.059 39.54,40.375 39.037,39.992 L38.994,39.96 L38.986,40.14 C38.979,40.262 38.968,40.445 38.968,40.641 C38.968,41.614 38.869,41.762 38.532,41.762 C38.48,41.762 38.401,41.747 38.352,41.729 C38.542,41.494 38.617,41.184 38.617,40.64 L38.614,40.389 L38.611,40.187 C38.611,39.964 38.634,39.799 38.652,39.666 L38.662,39.591 L38.609,39.584 C38.451,39.562 38.158,39.522 37.934,39.522 C37.453,39.522 37.127,39.566 36.891,39.788 C36.735,39.662 36.575,39.445 36.575,39.308 C36.575,39.105 36.701,39.089 36.867,39.089 C36.951,39.089 37.029,39.101 37.137,39.114 C37.344,39.145 37.655,39.191 38.296,39.191 L38.336,39.191 L38.323,39.152 C38.161,38.687 37.715,38.011 37,37.142 C37.064,36.909 37.127,36.757 37.352,36.757 M31.178,39.152 L31.165,39.191 L31.205,39.191 C31.845,39.191 32.157,39.145 32.364,39.114 C32.472,39.101 32.55,39.089 32.634,39.089 C32.799,39.089 32.926,39.105 32.926,39.308 C32.926,39.445 32.766,39.662 32.611,39.788 C32.374,39.566 32.048,39.522 31.568,39.522 C31.343,39.522 31.049,39.562 30.892,39.584 L30.867,39.587 L30.839,39.591 L30.848,39.666 C30.867,39.799 30.89,39.964 30.89,40.187 L30.887,40.389 L30.884,40.64 C30.884,41.184 30.959,41.494 31.15,41.729 C31.1,41.747 31.021,41.762 30.969,41.762 C30.631,41.762 30.533,41.614 30.533,40.641 C30.533,40.445 30.523,40.262 30.516,40.14 L30.506,39.959 L30.464,39.992 C29.962,40.375 29.444,41.059 29.413,41.57 C29.262,41.473 29.098,41.254 29.098,41.086 C29.098,40.807 29.518,40.388 30.004,39.902 L30.283,39.623 L30.319,39.587 L30.227,39.565 C30.122,39.537 29.928,39.488 29.763,39.488 C29.218,39.488 28.878,39.591 28.667,39.82 C28.591,39.711 28.528,39.456 28.528,39.307 C28.528,39.21 28.547,39.142 28.586,39.103 C28.633,39.057 28.707,39.057 28.772,39.057 L28.786,39.057 C29.386,39.057 30.104,39.165 30.384,39.21 L30.401,39.214 L30.411,39.2 C30.46,39.135 31.604,37.61 31.902,36.802 C31.97,36.776 32.029,36.757 32.149,36.757 C32.374,36.757 32.437,36.909 32.502,37.142 C31.786,38.011 31.34,38.687 31.178,39.152 M28.086,25.478 C28.086,24.339 28.915,23.437 29.207,23.183 C29.277,23.2 29.347,23.216 29.417,23.231 C29.107,23.61 28.559,24.244 28.559,25.084 C28.559,26.752 30.341,28.2 32.359,28.2 C32.346,28.343 32.339,28.493 32.339,28.648 C32.339,28.894 32.353,29.123 32.377,29.339 C30.095,29.325 28.086,27.473 28.086,25.478 M43.392,28.991 C44.416,30.61 45.217,30.583 46.427,30.583 C45.426,29.816 44.764,28.833 44.448,28.331 L42.578,25.339 C42.396,24.415 41.918,23.551 41.202,22.908 C41.443,22.817 41.643,22.721 41.763,22.63 C40.542,22.63 39.332,22.01 38.666,22.01 C38.238,22.01 37.963,22.266 37.963,22.604 C37.99,22.981 38.378,23.364 39.095,23.364 C39.257,23.364 39.465,23.343 39.693,23.305 C40.081,23.846 40.394,24.335 40.394,25.033 C40.394,26.343 38.828,27.364 37.247,27.364 C37.157,27.364 37.072,27.36 36.983,27.354 C36.84,27.029 36.363,26.484 36.363,25.864 C36.363,24.823 37.042,23.973 37.042,22.942 C37.042,22.301 36.73,21.904 36.61,21.739 C36.804,21.559 37.016,21.338 37.066,21.186 C36.953,21.235 36.819,21.241 36.624,21.241 C35.866,21.241 35.248,21.044 34.646,21.044 C34.302,21.044 34.21,21.15 34.21,21.251 C34.21,21.288 34.215,21.326 34.225,21.344 C34.097,21.294 33.977,21.261 33.834,21.235 C33.656,21.201 33.465,21.184 33.261,21.184 C32.529,21.184 32.269,21.491 32.269,21.754 C32.269,21.976 32.444,22.382 32.643,22.692 C32.928,22.548 33.271,22.451 33.427,22.451 C33.816,22.451 34.161,22.821 34.344,23.259 C34.083,23.291 34.033,23.302 33.769,23.302 C33.056,23.302 32.571,23.047 32.471,23.047 C32.462,23.047 32.443,23.052 32.443,23.068 C32.443,23.168 32.645,23.432 33.043,23.577 C33.568,23.769 34.354,23.849 34.485,23.871 C34.485,23.894 34.352,24.142 34.203,24.19 C34.172,24.2 34.147,24.201 34.11,24.193 C33.562,24.085 33.409,24.039 32.714,23.775 C32.693,23.767 32.68,23.78 32.68,23.802 C32.68,24.077 33.392,24.684 34.03,24.917 C33.497,25.597 32.832,26.293 32.518,27.354 C32.429,27.36 32.343,27.364 32.254,27.364 C30.673,27.364 29.107,26.343 29.107,25.033 C29.107,24.335 29.42,23.846 29.808,23.305 C30.036,23.343 30.243,23.364 30.406,23.364 C31.123,23.364 31.511,22.981 31.539,22.604 C31.539,22.266 31.264,22.01 30.835,22.01 C30.169,22.01 28.96,22.63 27.737,22.63 C27.858,22.721 28.058,22.817 28.298,22.908 C27.583,23.551 27.105,24.415 26.923,25.339 L25.053,28.331 C24.738,28.833 24.074,29.816 23.073,30.583 C24.283,30.583 25.085,30.61 26.109,28.991 L27.068,27.457 C27.139,27.656 27.226,27.85 27.329,28.04 L25.422,31.091 C25.105,31.597 24.447,32.571 23.442,33.343 C24.652,33.343 25.454,33.371 26.478,31.753 L28.119,29.125 C28.242,29.256 28.371,29.384 28.507,29.506 L26.191,33.214 C25.873,33.721 25.219,34.693 24.212,35.464 C25.422,35.464 26.224,35.493 27.247,33.874 L29.505,30.259 C29.654,30.353 29.806,30.444 29.964,30.53 L27.207,34.941 C26.889,35.448 26.235,36.417 25.228,37.191 C26.438,37.191 27.24,37.219 28.264,35.601 L31.102,31.058 C31.27,31.122 31.44,31.184 31.613,31.239 L28.406,36.372 C28.093,36.872 27.424,37.859 26.428,38.622 C27.637,38.622 28.44,38.65 29.463,37.032 L32.881,31.562 C32.916,31.568 32.95,31.573 32.984,31.58 C33.077,31.876 33.142,32.152 33.142,32.427 C33.142,34.146 32.014,35.664 30.66,36.836 C30.747,36.874 30.898,36.887 31.037,36.887 C31.317,36.887 31.497,36.872 31.624,36.85 C31.31,37.563 30.636,38.484 30.296,38.96 C29.853,38.88 29.208,38.818 28.786,38.818 C28.344,38.818 28.294,39.076 28.294,39.307 C28.294,39.708 28.482,40.027 28.7,40.205 C28.782,40 28.947,39.726 29.763,39.726 C29.779,39.726 29.807,39.728 29.845,39.731 C29.607,39.996 28.86,40.6 28.86,41.086 C28.86,41.408 29.213,41.891 29.678,41.891 C29.651,41.787 29.654,41.692 29.654,41.62 C29.654,41.226 30.003,40.765 30.298,40.443 C30.289,40.539 30.294,40.529 30.294,40.641 C30.294,41.572 30.378,42 30.969,42 C31.259,42 31.459,41.841 31.528,41.793 C31.144,41.44 31.124,41.162 31.124,40.64 C31.125,40.504 31.126,40.371 31.128,40.188 C31.129,40.068 31.127,39.91 31.108,39.796 C31.319,39.767 31.405,39.767 31.568,39.767 C31.568,39.767 32.407,39.7 32.61,40.137 C32.838,39.928 33.169,39.633 33.169,39.308 C33.169,39.093 33.067,38.85 32.634,38.85 C32.47,38.85 31.955,38.95 31.524,38.95 C31.64,38.693 32.155,37.939 32.602,37.392 C32.67,37.604 32.775,37.833 33.009,38.021 C33.042,37.669 33.248,36.556 33.798,35.905 C33.862,36.345 33.948,36.796 33.948,37.747 C33.948,40.061 33.392,41.77 32.211,42.096 C32.365,42.363 32.69,42.604 33.027,42.604 C33.459,42.604 33.694,42.115 33.934,41.654 C34.059,41.994 34.404,42.828 34.75,42.828 C35.096,42.828 35.442,41.994 35.567,41.654 C35.806,42.115 36.042,42.604 36.474,42.604 C36.811,42.604 37.136,42.363 37.29,42.096 C36.109,41.77 35.552,40.061 35.552,37.747 C35.552,36.796 35.638,36.345 35.702,35.905 C36.253,36.556 36.46,37.669 36.491,38.021 C36.726,37.833 36.832,37.604 36.899,37.392 C37.345,37.939 37.861,38.693 37.977,38.95 C37.546,38.95 37.03,38.85 36.867,38.85 C36.435,38.85 36.333,39.093 36.333,39.308 C36.333,39.633 36.664,39.928 36.892,40.137 C37.093,39.7 37.934,39.767 37.934,39.767 C38.096,39.767 38.182,39.767 38.394,39.796 C38.374,39.91 38.373,40.068 38.374,40.188 C38.376,40.371 38.376,40.504 38.377,40.64 C38.377,41.162 38.357,41.44 37.973,41.793 C38.042,41.841 38.242,42 38.532,42 C39.123,42 39.208,41.572 39.208,40.641 C39.208,40.529 39.211,40.539 39.203,40.443 C39.498,40.765 39.847,41.226 39.847,41.62 C39.847,41.692 39.851,41.787 39.822,41.891 C40.288,41.891 40.642,41.408 40.642,41.086 C40.642,40.6 39.895,39.996 39.655,39.731 C39.694,39.728 39.722,39.726 39.737,39.726 C40.554,39.726 40.719,40 40.801,40.205 C41.019,40.027 41.207,39.708 41.207,39.307 C41.207,39.076 41.157,38.818 40.715,38.818 C40.293,38.818 39.649,38.88 39.205,38.96 C38.864,38.484 38.192,37.563 37.877,36.85 C38.004,36.872 38.185,36.887 38.464,36.887 C38.604,36.887 38.754,36.874 38.841,36.836 C37.487,35.664 36.359,34.146 36.359,32.427 C36.359,32.152 36.424,31.876 36.517,31.58 C36.55,31.573 36.586,31.568 36.62,31.562 L40.038,37.032 C41.061,38.65 41.864,38.622 43.073,38.622 C42.077,37.859 41.408,36.872 41.095,36.372 L37.887,31.239 C38.061,31.184 38.232,31.122 38.4,31.058 L41.237,35.601 C42.261,37.219 43.063,37.191 44.273,37.191 C43.266,36.417 42.612,35.448 42.294,34.941 L39.538,30.53 C39.694,30.444 39.847,30.353 39.995,30.259 L42.254,33.874 C43.278,35.493 44.079,35.464 45.289,35.464 C44.282,34.693 43.629,33.721 43.31,33.214 L40.994,29.506 C41.13,29.384 41.26,29.256 41.381,29.125 L43.024,31.753 C44.047,33.371 44.849,33.343 46.059,33.343 C45.053,32.571 44.397,31.597 44.079,31.091 L42.173,28.04 C42.275,27.85 42.362,27.656 42.434,27.457 z" fill="#000000"/>
    <path d="M56,42 L52.5,42 L52.5,22 L56,22 z" fill="#000000"/>
    <path d="M56,62 L52.5,62 L52.5,42 L56,42 z" fill="#FF0000"/>
    <path d="M56,82 L52.5,82 L52.5,62 L56,62 z" fill="#FFCC00"/>
  </g>
</svg>
