<?xml version="1.0" encoding="UTF-8" standalone="no"?>
<svg
   xmlns:dc="http://purl.org/dc/elements/1.1/"
   xmlns:cc="http://creativecommons.org/ns#"
   xmlns:rdf="http://www.w3.org/1999/02/22-rdf-syntax-ns#"
   xmlns:svg="http://www.w3.org/2000/svg"
   xmlns="http://www.w3.org/2000/svg"
   xmlns:sodipodi="http://sodipodi.sourceforge.net/DTD/sodipodi-0.dtd"
   xmlns:inkscape="http://www.inkscape.org/namespaces/inkscape"
   viewBox="0 0 140.00001 140"
   version="1.1"
   id="svg1007"
   sodipodi:docname="pipecd-icon.svg"
   width="140"
   height="140"
   inkscape:version="0.92.5 (2060ec1f9f, 2020-04-08)">
  <metadata
     id="metadata1011">
    <rdf:RDF>
      <cc:Work
         rdf:about="">
        <dc:format>image/svg+xml</dc:format>
        <dc:type
           rdf:resource="http://purl.org/dc/dcmitype/StillImage" />
        <dc:title></dc:title>
      </cc:Work>
    </rdf:RDF>
  </metadata>
  <sodipodi:namedview
     pagecolor="#ffffff"
     bordercolor="#666666"
     borderopacity="1"
     objecttolerance="10"
     gridtolerance="10"
     guidetolerance="10"
     inkscape:pageopacity="0"
     inkscape:pageshadow="2"
     inkscape:window-width="1866"
     inkscape:window-height="1016"
     id="namedview1009"
     showgrid="false"
     inkscape:zoom="3.8484679"
     inkscape:cx="83.464996"
     inkscape:cy="104.92"
     inkscape:window-x="1974"
     inkscape:window-y="52"
     inkscape:window-maximized="1"
     inkscape:current-layer="svg1007" />
  <defs
     id="defs980">
    <style
       id="style978">.cls-1{fill:none;}.cls-2{fill:#fff;}.cls-3{fill:#28beeb;}</style>
  </defs>
  <g
     id="書き出し用"
     transform="translate(-10,0.160007)">
    <rect
       class="cls-1"
       width="166.92999"
       height="209.84"
       id="rect982"
       x="0"
       y="0"
       style="fill:none" />
    <path
       class="cls-2"
       d="m 64.09,100.85 a 0.55,0.55 0 0 0 0.17,0.47 l 29,29 C 96.9,134 113.7,117.16 110,113.5 L 81.1,84.56 a 0.6,0.6 0 0 0 -0.47,-0.18 c -1.21,0.09 -4.57,0.9 -10.09,6.42 -5.52,5.52 -6.34,8.95 -6.45,10.05 z"
       id="path984"
       inkscape:connector-curvature="0"
       style="fill:#ffffff" />
    <path
       class="cls-2"
       d="m 72.06,57.43 c 0,-1 -0.6,-4.46 -6.43,-10.29 -4.9,-4.9 -8.17,-6.09 -9.61,-6.38 a 0.69,0.69 0 0 0 -0.61,0.19 v 0 a 36.42,36.42 0 0 0 0,51.52 l 4.13,4.13 a 0.31,0.31 0 0 0 0.51,-0.09 31,31 0 0 1 6.85,-9.35 31,31 0 0 1 9.35,-6.85 0.31,0.31 0 0 0 0.09,-0.51 l -4.13,-4.13 a 12.67,12.67 0 0 1 -0.87,-17 c 0.42,-0.5 0.72,-0.8 0.72,-1.24 z"
       id="path986"
       inkscape:connector-curvature="0"
       style="fill:#ffffff" />
    <path
       class="cls-3"
       d="m 109.3,76.51 h -0.2 c -6,-0.88 -9.94,-3.66 -12.33,-6.68 a 0.59,0.59 0 0 0 -1,0 12.51,12.51 0 0 1 -1.08,1.23 l -8,8 a 2,2 0 0 0 0,2.8 l 14,14 a 2,2 0 0 0 2.8,0 l 6.16,-6.16 c 4.36,-4.36 8.65,-9.59 9.81,-13.82 a 0.6,0.6 0 0 0 -0.77,-0.77 21,21 0 0 1 -9.39,1.4 z"
       id="path988"
       inkscape:connector-curvature="0"
       style="fill:#28beeb" />
    <path
       class="cls-2"
       d="m 109.73,71.38 c 5.39,0.31 8.67,-1.51 10.56,-3.29 a 7,7 0 0 0 1.8,-3.25 36.53,36.53 0 0 0 -18.34,-34.5 C 89.62,22.06 71.54,24.81 60,36.39 c -0.21,0.22 0,0.27 0,0.29 a 31.13,31.13 0 0 1 9.31,6.82 c 3.86,3.86 5.9,7.06 6.94,9.56 0.19,0.39 0.34,0.28 0.87,-0.15 a 12.94,12.94 0 0 1 17,-0.39 12.57,12.57 0 0 1 4.27,8.48 8.23,8.23 0 0 0 0.61,2.42 14.8,14.8 0 0 0 1.33,2.5 c 1.43,2.21 4.21,4.67 9.4,5.46 z"
       id="path990"
       inkscape:connector-curvature="0"
       style="fill:#ffffff" />
    <path
       class="cls-2"
       d="m 44.3,144.55 a 5.37,5.37 0 0 0 -1.73,-1.33 10.55,10.55 0 0 0 -2.26,-0.77 17.24,17.24 0 0 0 -2.39,-0.35 c -0.77,0 -1.57,-0.08 -2.38,-0.08 H 27 v 30.56 h 7.17 v -11.9 c 0.49,0 1.13,0 1.92,0 a 30.61,30.61 0 0 0 3.48,-0.16 8.46,8.46 0 0 0 2.67,-0.77 5.71,5.71 0 0 0 2,-1.45 6.92,6.92 0 0 0 1.24,-2.08 10.87,10.87 0 0 0 0.63,-2.4 16.7,16.7 0 0 0 0.19,-2.59 15.42,15.42 0 0 0 -0.41,-3.73 6.74,6.74 0 0 0 -1.59,-2.95 z M 38.94,153 a 3,3 0 0 1 -0.71,1.37 3,3 0 0 1 -1.41,0.63 11,11 0 0 1 -2,0.14 h -0.66 v -7.66 H 35 a 10.27,10.27 0 0 1 2.81,0.25 1.93,1.93 0 0 1 1.08,1.34 8.28,8.28 0 0 1 0.27,2.2 7.77,7.77 0 0 1 -0.22,1.73 z"
       id="path992"
       inkscape:connector-curvature="0"
       style="fill:#ffffff" />
    <path
       class="cls-2"
       d="m 49.15,153.06 v 19.52 h 6.48 v -19.52 a 9.86,9.86 0 0 0 -6.48,0 z"
       id="path994"
       inkscape:connector-curvature="0"
       style="fill:#ffffff" />
    <path
       class="cls-2"
       d="m 49.15,150.27 a 10.55,10.55 0 0 1 6.48,0 V 142 h -6.48 z"
       id="path996"
       inkscape:connector-curvature="0"
       style="fill:#ffffff" />
    <path
       class="cls-2"
       d="m 74.94,151.6 a 4.66,4.66 0 0 0 -4.34,-2.49 6,6 0 0 0 -5.29,3.43 h -0.09 v -2.78 h -6 v 30.52 h 6.48 v -9.86 h 0.08 a 6.53,6.53 0 0 0 2.33,2.2 4.93,4.93 0 0 0 5.23,-0.1 5,5 0 0 0 1.73,-2 9.36,9.36 0 0 0 0.86,-2.65 18.44,18.44 0 0 0 0.24,-3.06 v -7.9 a 14,14 0 0 0 -0.28,-2.82 8.9,8.9 0 0 0 -0.95,-2.49 z m -5.27,12.47 c 0,0.57 0,1.07 0,1.5 a 3.88,3.88 0 0 1 -0.24,1.21 2.18,2.18 0 0 1 -0.61,0.89 1.65,1.65 0 0 1 -1.1,0.35 1.6,1.6 0 0 1 -1.55,-1.22 8.7,8.7 0 0 1 -0.45,-3 v -5.38 a 7.84,7.84 0 0 1 0.45,-2.95 1.66,1.66 0 0 1 1.67,-1.08 1.42,1.42 0 0 1 1,0.37 2.09,2.09 0 0 1 0.57,0.93 4.59,4.59 0 0 1 0.22,1.14 c 0,0.38 0,0.82 0,1.31 z"
       id="path998"
       inkscape:connector-curvature="0"
       style="fill:#ffffff" />
    <path
       class="cls-2"
       d="m 93.44,150.62 a 8.58,8.58 0 0 0 -2.75,-1.14 14.35,14.35 0 0 0 -3.38,-0.37 13.44,13.44 0 0 0 -3.55,0.43 7.72,7.72 0 0 0 -2.76,1.32 6,6 0 0 0 -1.79,2.41 9.3,9.3 0 0 0 -0.65,3.67 v 9.29 a 7.24,7.24 0 0 0 0.67,3.24 5.8,5.8 0 0 0 1.88,2.22 8,8 0 0 0 2.77,1.24 14,14 0 0 0 3.4,0.39 9.37,9.37 0 0 0 6.31,-2 c 1.47,-1.3 2.2,-3.8 2.2,-6.38 0,0 0,-0.4 0,-0.54 a 16.89,16.89 0 0 0 -6.34,-0.22 7.68,7.68 0 0 1 -0.56,3.64 c -0.26,0.54 -0.87,0.81 -1.82,0.81 a 1.84,1.84 0 0 1 -1.5,-0.71 2.77,2.77 0 0 1 -0.49,-1.69 v -3.86 a 33,33 0 0 1 11,-0.14 v -6.52 a 6.31,6.31 0 0 0 -0.69,-3 5.62,5.62 0 0 0 -1.95,-2.09 z m -8.37,7 v -1.14 a 4.19,4.19 0 0 1 0.51,-2.22 2.26,2.26 0 0 1 3.44,-0.09 2.74,2.74 0 0 1 0.53,1.57 v 1.59 a 19.68,19.68 0 0 0 -4.48,0.26 z"
       id="path1000"
       inkscape:connector-curvature="0"
       style="fill:#ffffff" />
    <path
       class="cls-3"
       d="m 111.05,159 v 4.41 A 13.21,13.21 0 0 1 111,165 a 5,5 0 0 1 -0.34,1.37 2.46,2.46 0 0 1 -0.82,1 2.3,2.3 0 0 1 -1.4,0.41 2.5,2.5 0 0 1 -2,-0.7 3,3 0 0 1 -0.61,-2 v -15.12 a 4,4 0 0 1 0.59,-2.41 2.61,2.61 0 0 1 2.18,-0.77 1.87,1.87 0 0 1 1.67,1 14.63,14.63 0 0 1 0.61,4.58 l 0.12,3.05 a 10.27,10.27 0 0 1 7,0 v -3.66 c 0,-3 -0.84,-6.93 -2.52,-8.35 -1.68,-1.42 -4.11,-2.14 -7.26,-2.14 -3.15,0 -5.71,0.79 -7.27,2.38 -1.56,1.59 -2.34,4 -2.34,7.36 v 12.55 c 0,3.2 0.72,5.63 2.18,7.27 1.46,1.64 3.78,2.47 7,2.47 3.53,0 6.13,-0.8 7.82,-2.39 a 8.58,8.58 0 0 0 2.53,-6.54 L 118.1,159 a 7.78,7.78 0 0 0 -7.05,0 z"
       id="path1002"
       inkscape:connector-curvature="0"
       style="fill:#28beeb" />
    <path
       class="cls-3"
       d="m 139.25,146.46 a 5.42,5.42 0 0 0 -2.57,-3 9.28,9.28 0 0 0 -3.5,-1.16 33.79,33.79 0 0 0 -4.56,-0.27 h -7.79 v 30.56 h 9.66 a 19.47,19.47 0 0 0 3.5,-0.28 7.67,7.67 0 0 0 2.86,-1.14 c 2,-1.25 3,-3.45 3.05,-6.6 V 151 a 14.25,14.25 0 0 0 -0.65,-4.54 z M 132,166.14 c -0.49,0.66 -1.51,1 -3.06,1 a 2.93,2.93 0 0 1 -0.45,0 H 128 v -19.62 a 22,22 0 0 1 2.35,0.17 3.21,3.21 0 0 1 1.36,0.48 2.17,2.17 0 0 1 0.78,1.13 7.17,7.17 0 0 1 0.24,2.09 v 10.8 a 5.76,5.76 0 0 1 0,0.69 5.52,5.52 0 0 1 -0.73,3.26 z"
       id="path1004"
       inkscape:connector-curvature="0"
       style="fill:#28beeb" />
  </g>
</svg>
