<?xml version="1.0" encoding="utf-8" ?>
<svg xmlns="http://www.w3.org/2000/svg" xmlns:xlink="http://www.w3.org/1999/xlink" width="180" height="80">
	<defs>
		<g id="group_0">
			<text fill="#777" font-size="13" font-family="'DejaVu Sans Mono', -apple-system, BlinkMacSystemFont, 'Segoe UI', Roboto, Helvetica, Arial, sans-serif, 'Apple Color Emoji', 'Segoe UI Emoji', 'Segoe UI Symbol'" x="8" y="25">
					 
			</text>
			<clipPath id="cl_3">
				<rect x="17" y="13" width="13" height="13"/>
			</clipPath>
			<clipPath id="cl_4" clip-path="url(#cl_3)">
				<rect x="17" y="13" width="13" height="13"/>
			</clipPath>
			<g clip-path="url(#cl_4)">
				<path fill="#269" transform="matrix(0.361111 0 0 0.361111 17 13)" d="M0 29C0 31.209 1.791 33 4 33L28 33C30.209 33 32 31.209 32 29L32 12C32 9.791 30.209 8 28 8L19 8C15.438 8 16 3 10.562 3L4 3C1.791 3 0 4.791 0 7L0 29Z"/>
			</g>
			<g clip-path="url(#cl_4)">
				<path fill="#55ACEE" transform="matrix(0.361111 0 0 0.361111 17 13)" d="M32.336 12L25.774 12C20.336 12 20.391 17 16.829 17L7.829 17C5.62 17 3.647 18.791 3.423 21L2.93 24.874L2.406 29L2.386 28.998C2.27 29.605 1.714 29.997 1.086 29.997C0.443 29.997 -0.0199997 29.49 0.0120002 28.853C0.01 28.903 0 28.95 0 29C0 31.004 1.478 32.648 3.4 32.939C3.577 32.977 3.771 33 4 33L30 33C32.209 33 34.182 31.209 34.406 29L35.929 16C36.154 13.791 34.545 12 32.336 12Z"/>
			</g>
			<text fill="#777" font-size="13" font-family="'DejaVu Sans Mono', -apple-system, BlinkMacSystemFont, 'Segoe UI', Roboto, Helvetica, Arial, sans-serif, 'Apple Color Emoji', 'Segoe UI Emoji', 'Segoe UI Symbol'" x="30.765625" y="25">
					 
			</text>
			<text fill="#23A3DD" font-size="13" font-weight="600" font-family="'DejaVu Sans Mono', -apple-system, BlinkMacSystemFont, 'Segoe UI', Roboto, Helvetica, Arial, sans-serif, 'Apple Color Emoji', 'Segoe UI Emoji', 'Segoe UI Symbol'" x="38.59375" y="25">
					umbrella-chart
			</text>
			<text fill="#777" font-size="13" font-family="'DejaVu Sans Mono', -apple-system, BlinkMacSystemFont, 'Segoe UI', Roboto, Helvetica, Arial, sans-serif, 'Apple Color Emoji', 'Segoe UI Emoji', 'Segoe UI Symbol'" x="8" y="40">
					 
			</text>
			<text fill="#777" font-size="13" font-family="'DejaVu Sans Mono', -apple-system, BlinkMacSystemFont, 'Segoe UI', Roboto, Helvetica, Arial, sans-serif, 'Apple Color Emoji', 'Segoe UI Emoji', 'Segoe UI Symbol'" x="15.828125" y="40">
					├─ 
			</text>
			<clipPath id="cl_5">
				<rect x="41" y="28" width="13" height="13"/>
			</clipPath>
			<clipPath id="cl_6" clip-path="url(#cl_5)">
				<rect x="41" y="28" width="13" height="13"/>
			</clipPath>
			<g clip-path="url(#cl_6)">
				<path fill="#269" transform="matrix(0.361111 0 0 0.361111 41 28)" d="M0 29C0 31.209 1.791 33 4 33L28 33C30.209 33 32 31.209 32 29L32 12C32 9.791 30.209 8 28 8L19 8C15.438 8 16 3 10.562 3L4 3C1.791 3 0 4.791 0 7L0 29Z"/>
			</g>
			<g clip-path="url(#cl_6)">
				<path fill="#55ACEE" transform="matrix(0.361111 0 0 0.361111 41 28)" d="M30 10L23.438 10C18 10 18.562 15 15 15L6 15C3.791 15 2 16.791 2 19L2 29C2 29.553 1.552 30 1 30C0.448 30 0 29.553 0 29C0 31.209 1.791 33 4 33L30 33C32.209 33 34 31.209 34 29L34 14C34 11.791 32.209 10 30 10Z"/>
			</g>
			<text fill="#777" font-size="13" font-family="'DejaVu Sans Mono', -apple-system, BlinkMacSystemFont, 'Segoe UI', Roboto, Helvetica, Arial, sans-serif, 'Apple Color Emoji', 'Segoe UI Emoji', 'Segoe UI Symbol'" x="54.25" y="40">
					 
			</text>
			<text fill="#23A3DD" font-size="13" font-weight="600" font-family="'DejaVu Sans Mono', -apple-system, BlinkMacSystemFont, 'Segoe UI', Roboto, Helvetica, Arial, sans-serif, 'Apple Color Emoji', 'Segoe UI Emoji', 'Segoe UI Symbol'" x="62.078125" y="40">
					templates
			</text>
			<text fill="#777" font-size="13" font-family="'DejaVu Sans Mono', -apple-system, BlinkMacSystemFont, 'Segoe UI', Roboto, Helvetica, Arial, sans-serif, 'Apple Color Emoji', 'Segoe UI Emoji', 'Segoe UI Symbol'" x="8" y="55">
					 
			</text>
			<text fill="#777" font-size="13" font-family="'DejaVu Sans Mono', -apple-system, BlinkMacSystemFont, 'Segoe UI', Roboto, Helvetica, Arial, sans-serif, 'Apple Color Emoji', 'Segoe UI Emoji', 'Segoe UI Symbol'" x="15.828125" y="55">
					├─ 
			</text>
			<clipPath id="cl_7">
				<rect x="41" y="43" width="13" height="13"/>
			</clipPath>
			<clipPath id="cl_8" clip-path="url(#cl_7)">
				<rect x="41" y="43" width="13" height="13"/>
			</clipPath>
			<g clip-path="url(#cl_8)">
				<path fill="#66757F" transform="matrix(0.361111 0 0 0.361111 41 43)" d="M34 15L30.638 15C30.314 13.631 29.774 12.349 29.056 11.186L31.435 8.807C32.216 8.026 32.216 6.759 31.435 5.978L30.021 4.564C29.24 3.783 27.974 3.783 27.193 4.564L24.814 6.943C23.65 6.225 22.369 5.686 21 5.362L21 2C21 0.896 20.104 0 19 0L17 0C15.896 0 15 0.896 15 2L15 5.362C13.631 5.686 12.349 6.226 11.186 6.944L8.808 4.565C8.027 3.784 6.76 3.784 5.98 4.565L4.565 5.979C3.784 6.76 3.784 8.027 4.564 8.808L6.943 11.187C6.225 12.35 5.686 13.632 5.362 15L2 15C0.896 15 0 15.896 0 17L0 19C0 20.104 0.896 21 2 21L5.362 21C5.686 22.368 6.226 23.65 6.944 24.813L4.565 27.192C3.785 27.972 3.785 29.24 4.566 30.021L5.98 31.435C6.76 32.215 8.027 32.215 8.808 31.435L11.187 29.056C12.35 29.775 13.632 30.314 15.001 30.638L15.001 34C15.001 35.104 15.897 36 17.001 36L19.001 36C20.105 36 21.001 35.104 21.001 34L21.001 30.638C22.369 30.314 23.651 29.774 24.814 29.056L27.193 31.435C27.974 32.216 29.24 32.216 30.021 31.435L31.435 30.021C32.216 29.24 32.216 27.973 31.435 27.192L29.056 24.813C29.775 23.65 30.314 22.368 30.638 20.999L34 20.999C35.104 20.999 36 20.103 36 18.999L36 16.999C36 15.896 35.104 15 34 15ZM18 26C13.582 26 10 22.418 10 18C10 13.582 13.582 10 18 10C22.418 10 26 13.582 26 18C26 22.418 22.418 26 18 26Z"/>
			</g>
			<text fill="#777" font-size="13" font-family="'DejaVu Sans Mono', -apple-system, BlinkMacSystemFont, 'Segoe UI', Roboto, Helvetica, Arial, sans-serif, 'Apple Color Emoji', 'Segoe UI Emoji', 'Segoe UI Symbol'" x="54.25" y="55">
					 Chart.yaml
			</text>
			<text fill="#777" font-size="13" font-family="'DejaVu Sans Mono', -apple-system, BlinkMacSystemFont, 'Segoe UI', Roboto, Helvetica, Arial, sans-serif, 'Apple Color Emoji', 'Segoe UI Emoji', 'Segoe UI Symbol'" x="8" y="70">
					 
			</text>
			<text fill="#777" font-size="13" font-family="'DejaVu Sans Mono', -apple-system, BlinkMacSystemFont, 'Segoe UI', Roboto, Helvetica, Arial, sans-serif, 'Apple Color Emoji', 'Segoe UI Emoji', 'Segoe UI Symbol'" x="15.828125" y="70">
					└─ 
			</text>
			<clipPath id="cl_9">
				<rect x="41" y="58" width="13" height="13"/>
			</clipPath>
			<clipPath id="cl_a" clip-path="url(#cl_9)">
				<rect x="41" y="58" width="13" height="13"/>
			</clipPath>
			<g clip-path="url(#cl_a)">
				<path fill="#66757F" transform="matrix(0.361111 0 0 0.361111 41 58)" d="M34 15L30.638 15C30.314 13.631 29.774 12.349 29.056 11.186L31.435 8.807C32.216 8.026 32.216 6.759 31.435 5.978L30.021 4.564C29.24 3.783 27.974 3.783 27.193 4.564L24.814 6.943C23.65 6.225 22.369 5.686 21 5.362L21 2C21 0.896 20.104 0 19 0L17 0C15.896 0 15 0.896 15 2L15 5.362C13.631 5.686 12.349 6.226 11.186 6.944L8.808 4.565C8.027 3.784 6.76 3.784 5.98 4.565L4.565 5.979C3.784 6.76 3.784 8.027 4.564 8.808L6.943 11.187C6.225 12.35 5.686 13.632 5.362 15L2 15C0.896 15 0 15.896 0 17L0 19C0 20.104 0.896 21 2 21L5.362 21C5.686 22.368 6.226 23.65 6.944 24.813L4.565 27.192C3.785 27.972 3.785 29.24 4.566 30.021L5.98 31.435C6.76 32.215 8.027 32.215 8.808 31.435L11.187 29.056C12.35 29.775 13.632 30.314 15.001 30.638L15.001 34C15.001 35.104 15.897 36 17.001 36L19.001 36C20.105 36 21.001 35.104 21.001 34L21.001 30.638C22.369 30.314 23.651 29.774 24.814 29.056L27.193 31.435C27.974 32.216 29.24 32.216 30.021 31.435L31.435 30.021C32.216 29.24 32.216 27.973 31.435 27.192L29.056 24.813C29.775 23.65 30.314 22.368 30.638 20.999L34 20.999C35.104 20.999 36 20.103 36 18.999L36 16.999C36 15.896 35.104 15 34 15ZM18 26C13.582 26 10 22.418 10 18C10 13.582 13.582 10 18 10C22.418 10 26 13.582 26 18C26 22.418 22.418 26 18 26Z"/>
			</g>
			<text fill="#777" font-size="13" font-family="'DejaVu Sans Mono', -apple-system, BlinkMacSystemFont, 'Segoe UI', Roboto, Helvetica, Arial, sans-serif, 'Apple Color Emoji', 'Segoe UI Emoji', 'Segoe UI Symbol'" x="54.25" y="70">
					 values.yaml
			</text>
		</g>
	</defs>
	<use href="#group_0"/>
</svg>
