<?xml version="1.0" encoding="UTF-8" standalone="no"?>
<svg
   xmlns:dc="http://purl.org/dc/elements/1.1/"
   xmlns:cc="http://creativecommons.org/ns#"
   xmlns:rdf="http://www.w3.org/1999/02/22-rdf-syntax-ns#"
   xmlns:svg="http://www.w3.org/2000/svg"
   xmlns="http://www.w3.org/2000/svg"
   xmlns:sodipodi="http://sodipodi.sourceforge.net/DTD/sodipodi-0.dtd"
   xmlns:inkscape="http://www.inkscape.org/namespaces/inkscape"
   width="57"
   height="57"
   viewBox="0 0 57 57"
   version="1.1"
   id="svg911"
   sodipodi:docname="werf-icon.svg"
   inkscape:version="0.92.5 (2060ec1f9f, 2020-04-08)">
  <metadata
     id="metadata917">
    <rdf:RDF>
      <cc:Work
         rdf:about="">
        <dc:format>image/svg+xml</dc:format>
        <dc:type
           rdf:resource="http://purl.org/dc/dcmitype/StillImage" />
        <dc:title></dc:title>
      </cc:Work>
    </rdf:RDF>
  </metadata>
  <defs
     id="defs915" />
  <sodipodi:namedview
     pagecolor="#ffffff"
     bordercolor="#666666"
     borderopacity="1"
     objecttolerance="10"
     gridtolerance="10"
     guidetolerance="10"
     inkscape:pageopacity="0"
     inkscape:pageshadow="2"
     inkscape:window-width="1866"
     inkscape:window-height="1016"
     id="namedview913"
     showgrid="false"
     inkscape:zoom="9.353125"
     inkscape:cx="51.603945"
     inkscape:cy="29.978455"
     inkscape:window-x="1974"
     inkscape:window-y="52"
     inkscape:window-maximized="1"
     inkscape:current-layer="svg911" />
  <path
     d="m 40.388,30.6 2.125,6.35 3.708,-6.35 z M 40.001,16.869 v 11.743 h 6.292 z m -1.989,6.63 V 14.014 H 34.838 Z M 31.09,2.817 l 3.082,9.208 h 3.234 L 32.157,2.229 31.363,2.666 31.09,2.816 Z M 26.757,53.96 h 4.718 l -1.78,-3.28 -0.59,0.64 c -0.7,0.853 -1.48,1.735 -2.348,2.64 z m -2.31,-2.991 0.08,-19.13 c -0.508,0.295 -1.238,0.753 -2.097,1.352 0.081,2.362 0.46,10.406 2.017,17.778 z M 19.064,35.817 c 0.072,1.513 0.522,6.945 3.32,12.858 C 21.375,42.884 21.008,37.148 20.88,34.329 a 39.9,39.9 0 0 0 -1.816,1.488 z M 17.342,53.96 h 4.91 l -0.375,-0.44 a 44.73,44.73 0 0 1 -2.628,-3.071 l -1.907,3.51 z m -1.57,-14.858 c 0.177,1.067 1.558,5.09 4.99,9.88 -2.26,-4.902 -2.977,-9.388 -3.202,-11.78 a 30.034,30.034 0 0 0 -1.789,1.9 z m 2.481,-9.864 v 4.55 A 30.179,30.179 0 0 1 20.75,31.85 c 2.201,-1.63 3.097,-1.965 3.662,-2.001 H 24.409 V 29.238 Z M 2.596,30.6 6.56,37.387 9.288,30.6 Z m 7.17,-10.777 -6.864,8.788 h 6.863 v -8.788 z m 1.99,-2.547 v 7.187 l 4.827,-12.011 -0.645,-0.531 -4.183,5.355 z m 32.07,21.372 h 3.997 l 0.995,0.995 v 15.31 l -0.995,0.996 H 0.994 L 0,54.955 V 39.644 l 0.994,-0.995 h 3.998 l -4.988,-8.54 0.074,-1.114 14.92,-19.101 1.355,-0.15 0.025,-0.034 6.703,5.028 -1.194,1.592 -3.624,-2.72 -10.433,25.954 7.808,13.365 2.311,-4.254 c -3.915,-5.687 -4.2,-9.603 -4.214,-9.824 l 0.233,-0.7 a 40.406,40.406 0 0 1 2.295,-2.507 v -7.4 l 0.996,-0.995 h 14.3 l 0.995,0.995 v 7.169 c 0.814,0.802 1.662,1.71 2.528,2.739 l 0.232,0.699 c -0.012,0.224 -0.305,4.224 -4.343,10.012 l 2.21,4.066 L 41.179,39.235 29.32,3.793 26.067,5.588 25.107,3.846 32.076,0 l 1.358,0.402 15.397,28.735 -0.018,0.972 -4.989,8.54 z m 45.4,-0.004 -5.77,17.306 h -4.04 L 75.063,42.868 70.92,55.95 H 66.88 L 61.11,38.645 h 4.007 l 3.902,13.844 4.318,-13.844 h 3.661 l 4.283,13.844 3.938,-13.844 h 4.006 z m 17.354,8.133 c 0,0.67 -0.046,1.304 -0.138,1.904 H 93.8 c 0.208,1.523 0.749,2.682 1.624,3.478 0.875,0.796 2.003,1.194 3.385,1.194 1.128,0 2.066,-0.202 2.814,-0.605 0.749,-0.405 1.26,-0.987 1.538,-1.748 l 3.073,1.28 c -1.29,2.677 -3.764,4.015 -7.425,4.015 -2.718,0 -4.842,-0.796 -6.373,-2.388 -1.531,-1.592 -2.297,-3.796 -2.297,-6.61 0,-2.838 0.737,-5.047 2.21,-6.628 1.474,-1.58 3.546,-2.371 6.218,-2.371 2.533,0 4.5,0.773 5.906,2.319 1.405,1.546 2.107,3.599 2.107,6.16 z M 98.567,41.24 c -1.336,0 -2.412,0.392 -3.23,1.177 -0.817,0.784 -1.33,1.926 -1.537,3.426 h 9.326 c -0.184,-1.454 -0.673,-2.584 -1.468,-3.391 -0.794,-0.808 -1.825,-1.212 -3.091,-1.212 z M 118.2,38.298 c 0.806,0 1.44,0.115 1.9,0.346 l -0.588,3.391 c -0.529,-0.299 -1.254,-0.449 -2.176,-0.449 -0.737,0 -1.433,0.195 -2.089,0.588 -0.656,0.393 -1.197,0.98 -1.624,1.765 -0.425,0.785 -0.639,1.73 -0.639,2.838 v 9.171 h -3.695 V 38.645 h 3.143 l 0.31,3.115 c 0.968,-2.308 2.787,-3.46 5.458,-3.46 z m 10.293,0.346 h 5.596 v 2.907 h -5.492 V 55.95 H 124.9 V 41.552 h -3.247 v -2.907 h 3.247 v -2.491 c 0,-1.754 0.529,-3.115 1.589,-4.084 1.059,-0.97 2.545,-1.454 4.456,-1.454 0.69,0 1.323,0.075 1.899,0.225 0.576,0.15 1.025,0.352 1.347,0.606 l -0.691,2.699 c -0.53,-0.346 -1.186,-0.52 -1.968,-0.52 -2.027,0 -3.04,0.935 -3.04,2.804 v 2.215 z"
     id="path909"
     inkscape:connector-curvature="0"
     style="fill:#0066ff;fill-rule:evenodd" />
</svg>
