<svg version="1.1" viewBox="0.0 0.0 960.0 720.0" fill="none" stroke="none" stroke-linecap="square" stroke-miterlimit="10" xmlns:xlink="http://www.w3.org/1999/xlink" xmlns="http://www.w3.org/2000/svg"><clipPath id="p.0"><path d="m0 0l960.0 0l0 720.0l-960.0 0l0 -720.0z" clip-rule="nonzero"/></clipPath><g clip-path="url(#p.0)"><path fill="#000000" fill-opacity="0.0" d="m0 0l960.0 0l0 720.0l-960.0 0z" fill-rule="evenodd"/><path fill="#fff2cc" d="m480.0 360.0l480.9449 0l0 360.0l-480.9449 0z" fill-rule="evenodd"/><path fill="#fff2cc" d="m-0.9448819 0l480.9449 0l0 360.0l-480.9449 0z" fill-rule="evenodd"/><path fill="#f4cccc" d="m-0.9448819 360.0l480.9449 0l0 360.0l-480.9449 0z" fill-rule="evenodd"/><path fill="#d9ead3" d="m479.0525 0l480.9449 0l0 360.0l-480.9449 0z" fill-rule="evenodd"/><path fill="#000000" fill-opacity="0.0" d="m34.14173 360.0l891.71655 0" fill-rule="evenodd"/><path stroke="#595959" stroke-width="4.0" stroke-linejoin="round" stroke-linecap="butt" d="m34.14173 360.0l867.71655 0" fill-rule="evenodd"/><path fill="#595959" stroke="#595959" stroke-width="4.0" stroke-linecap="butt" d="m901.8583 366.60693l18.152405 -6.6069336l-18.152405 -6.6069336z" fill-rule="evenodd"/><path fill="#000000" fill-opacity="0.0" d="m480.0 699.13385l0 -678.2677" fill-rule="evenodd"/><path stroke="#595959" stroke-width="4.0" stroke-linejoin="round" stroke-linecap="butt" d="m480.0 699.13385l0 -654.2677" fill-rule="evenodd"/><path fill="#595959" stroke="#595959" stroke-width="4.0" stroke-linecap="butt" d="m486.60693 44.866142l-6.6069336 -18.152391l-6.6069336 18.152391z" fill-rule="evenodd"/><path fill="#ffffff" d="m767.0184 342.97638l124.28345 0l0 34.04724l-124.28345 0z" fill-rule="evenodd"/><path stroke="#4a86e8" stroke-width="1.0" stroke-linejoin="round" stroke-linecap="butt" d="m767.0184 342.97638l124.28345 0l0 34.04724l-124.28345 0z" fill-rule="evenodd"/><path fill="#000000" d="m786.8127 366.92l0 -11.78125l-4.40625 0l0 -1.578125l10.578125 0l0 1.578125l-4.40625 0l0 11.78125l-1.765625 0zm12.34259 -3.109375l1.6875 0.203125q-0.40625 1.484375 -1.484375 2.3125q-1.078125 0.8125 -2.765625 0.8125q-2.125 0 -3.375 -1.296875q-1.234375 -1.3125 -1.234375 -3.671875q0 -2.453125 1.25 -3.796875q1.265625 -1.34375 3.265625 -1.34375q1.9375 0 3.15625 1.328125q1.234375 1.3125 1.234375 3.703125q0 0.15625 0 0.4375l-7.21875 0q0.09375 1.59375 0.90625 2.453125q0.8125 0.84375 2.015625 0.84375q0.90625 0 1.546875 -0.46875q0.640625 -0.484375 1.015625 -1.515625zm-5.390625 -2.65625l5.40625 0q-0.109375 -1.21875 -0.625 -1.828125q-0.78125 -0.953125 -2.03125 -0.953125q-1.125 0 -1.90625 0.765625q-0.765625 0.75 -0.84375 2.015625zm15.453857 2.21875l1.609375 0.21875q-0.265625 1.65625 -1.359375 2.609375q-1.078125 0.9375 -2.671875 0.9375q-1.984375 0 -3.1875 -1.296875q-1.203125 -1.296875 -1.203125 -3.71875q0 -1.578125 0.515625 -2.75q0.515625 -1.171875 1.578125 -1.75q1.0625 -0.59375 2.3125 -0.59375q1.578125 0 2.578125 0.796875q1.0 0.796875 1.28125 2.265625l-1.59375 0.234375q-0.234375 -0.96875 -0.8125 -1.453125q-0.578125 -0.5 -1.390625 -0.5q-1.234375 0 -2.015625 0.890625q-0.78125 0.890625 -0.78125 2.8125q0 1.953125 0.75 2.84375q0.75 0.875 1.953125 0.875q0.96875 0 1.609375 -0.59375q0.65625 -0.59375 0.828125 -1.828125zm3.015625 3.546875l0 -13.359375l1.640625 0l0 4.796875q1.140625 -1.328125 2.890625 -1.328125q1.078125 0 1.859375 0.421875q0.796875 0.421875 1.140625 1.171875q0.34375 0.75 0.34375 2.171875l0 6.125l-1.640625 0l0 -6.125q0 -1.234375 -0.53125 -1.796875q-0.53125 -0.5625 -1.515625 -0.5625q-0.71875 0 -1.359375 0.390625q-0.640625 0.375 -0.921875 1.015625q-0.265625 0.640625 -0.265625 1.78125l0 5.296875l-1.640625 0zm10.375732 0l0 -9.671875l1.46875 0l0 1.375q1.0625 -1.59375 3.078125 -1.59375q0.875 0 1.609375 0.3125q0.734375 0.3125 1.09375 0.828125q0.375 0.5 0.515625 1.203125q0.09375 0.453125 0.09375 1.59375l0 5.953125l-1.640625 0l0 -5.890625q0 -1.0 -0.203125 -1.484375q-0.1875 -0.5 -0.671875 -0.796875q-0.484375 -0.296875 -1.140625 -0.296875q-1.046875 0 -1.8125 0.671875q-0.75 0.65625 -0.75 2.515625l0 5.28125l-1.640625 0zm9.766296 -4.84375q0 -2.6875 1.484375 -3.96875q1.25 -1.078125 3.046875 -1.078125q2.0 0 3.265625 1.3125q1.265625 1.296875 1.265625 3.609375q0 1.859375 -0.5625 2.9375q-0.5625 1.0625 -1.640625 1.65625q-1.0625 0.59375 -2.328125 0.59375q-2.03125 0 -3.28125 -1.296875q-1.25 -1.3125 -1.25 -3.765625zm1.6875 0q0 1.859375 0.796875 2.796875q0.8125 0.921875 2.046875 0.921875q1.21875 0 2.03125 -0.921875q0.8125 -0.9375 0.8125 -2.84375q0 -1.796875 -0.8125 -2.71875q-0.8125 -0.921875 -2.03125 -0.921875q-1.234375 0 -2.046875 0.921875q-0.796875 0.90625 -0.796875 2.765625zm9.250732 4.84375l0 -13.359375l1.640625 0l0 13.359375l-1.640625 0zm3.5823364 -4.84375q0 -2.6875 1.484375 -3.96875q1.25 -1.078125 3.046875 -1.078125q2.0 0 3.265625 1.3125q1.265625 1.296875 1.265625 3.609375q0 1.859375 -0.5625 2.9375q-0.5625 1.0625 -1.640625 1.65625q-1.0625 0.59375 -2.328125 0.59375q-2.03125 0 -3.28125 -1.296875q-1.25 -1.3125 -1.25 -3.765625zm1.6875 0q0 1.859375 0.796875 2.796875q0.8125 0.921875 2.046875 0.921875q1.21875 0 2.03125 -0.921875q0.8125 -0.9375 0.8125 -2.84375q0 -1.796875 -0.8125 -2.71875q-0.8125 -0.921875 -2.03125 -0.921875q-1.234375 0 -2.046875 0.921875q-0.796875 0.90625 -0.796875 2.765625zm8.985107 5.640625l1.59375 0.234375q0.109375 0.75 0.5625 1.078125q0.609375 0.453125 1.671875 0.453125q1.140625 0 1.75 -0.453125q0.625 -0.453125 0.84375 -1.265625q0.125 -0.5 0.109375 -2.109375q-1.0625 1.265625 -2.671875 1.265625q-2.0 0 -3.09375 -1.4375q-1.09375 -1.4375 -1.09375 -3.453125q0 -1.390625 0.5 -2.5625q0.515625 -1.171875 1.453125 -1.796875q0.953125 -0.640625 2.25 -0.640625q1.703125 0 2.8125 1.375l0 -1.15625l1.515625 0l0 8.359375q0 2.265625 -0.46875 3.203125q-0.453125 0.9375 -1.453125 1.484375q-0.984375 0.546875 -2.453125 0.546875q-1.71875 0 -2.796875 -0.78125q-1.0625 -0.765625 -1.03125 -2.34375zm1.359375 -5.8125q0 1.90625 0.75 2.78125q0.765625 0.875 1.90625 0.875q1.125 0 1.890625 -0.859375q0.765625 -0.875 0.765625 -2.734375q0 -1.78125 -0.796875 -2.671875q-0.78125 -0.90625 -1.890625 -0.90625q-1.09375 0 -1.859375 0.890625q-0.765625 0.875 -0.765625 2.625zm9.250671 8.734375l-0.1875 -1.53125q0.546875 0.140625 0.9375 0.140625q0.546875 0 0.875 -0.1875q0.328125 -0.171875 0.546875 -0.5q0.15625 -0.25 0.5 -1.21875q0.046875 -0.140625 0.140625 -0.40625l-3.671875 -9.6875l1.765625 0l2.015625 5.59375q0.390625 1.078125 0.703125 2.25q0.28125 -1.125 0.671875 -2.203125l2.078125 -5.640625l1.640625 0l-3.6875 9.828125q-0.59375 1.609375 -0.921875 2.203125q-0.4375 0.8125 -1.0 1.1875q-0.5625 0.375 -1.34375 0.375q-0.484375 0 -1.0625 -0.203125z" fill-rule="nonzero"/><path fill="#ffffff" d="m417.85828 56.792652l124.28345 0l0 34.047245l-124.28345 0z" fill-rule="evenodd"/><path stroke="#4a86e8" stroke-width="1.0" stroke-linejoin="round" stroke-linecap="butt" d="m417.85828 56.792652l124.28345 0l0 34.047245l-124.28345 0z" fill-rule="evenodd"/><path fill="#000000" d="m460.8983 76.048775l1.765625 0.453125q-0.5625 2.171875 -2.0 3.328125q-1.4375 1.140625 -3.53125 1.140625q-2.15625 0 -3.515625 -0.875q-1.34375 -0.890625 -2.0625 -2.546875q-0.703125 -1.671875 -0.703125 -3.59375q0 -2.078125 0.796875 -3.625q0.796875 -1.5625 2.265625 -2.359375q1.484375 -0.8125 3.25 -0.8125q2.0 0 3.359375 1.015625q1.375 1.015625 1.90625 2.875l-1.734375 0.40625q-0.46875 -1.453125 -1.359375 -2.109375q-0.875 -0.671875 -2.203125 -0.671875q-1.546875 0 -2.578125 0.734375q-1.03125 0.734375 -1.453125 1.984375q-0.421875 1.234375 -0.421875 2.5625q0 1.703125 0.5 2.96875q0.5 1.265625 1.546875 1.90625q1.046875 0.625 2.265625 0.625q1.484375 0 2.515625 -0.859375q1.03125 -0.859375 1.390625 -2.546875zm10.066711 4.6875l0 -1.421875q-1.125 1.640625 -3.0625 1.640625q-0.859375 0 -1.609375 -0.328125q-0.734375 -0.328125 -1.09375 -0.828125q-0.359375 -0.5 -0.5 -1.21875q-0.109375 -0.46875 -0.109375 -1.53125l0 -5.984375l1.640625 0l0 5.359375q0 1.28125 0.109375 1.734375q0.15625 0.640625 0.65625 1.015625q0.5 0.375 1.234375 0.375q0.734375 0 1.375 -0.375q0.65625 -0.390625 0.921875 -1.03125q0.265625 -0.65625 0.265625 -1.890625l0 -5.1875l1.640625 0l0 9.671875l-1.46875 0zm4.000702 0l0 -13.359375l1.640625 0l0 13.359375l-1.640625 0zm7.7698364 -1.46875l0.234375 1.453125q-0.6875 0.140625 -1.234375 0.140625q-0.890625 0 -1.390625 -0.28125q-0.484375 -0.28125 -0.6875 -0.734375q-0.203125 -0.46875 -0.203125 -1.9375l0 -5.578125l-1.203125 0l0 -1.265625l1.203125 0l0 -2.390625l1.625 -0.984375l0 3.375l1.65625 0l0 1.265625l-1.65625 0l0 5.671875q0 0.6875 0.078125 0.890625q0.09375 0.203125 0.28125 0.328125q0.203125 0.109375 0.578125 0.109375q0.265625 0 0.71875 -0.0625zm7.9332886 1.46875l0 -1.421875q-1.125 1.640625 -3.0625 1.640625q-0.859375 0 -1.609375 -0.328125q-0.734375 -0.328125 -1.09375 -0.828125q-0.359375 -0.5 -0.5 -1.21875q-0.109375 -0.46875 -0.109375 -1.53125l0 -5.984375l1.640625 0l0 5.359375q0 1.28125 0.109375 1.734375q0.15625 0.640625 0.65625 1.015625q0.5 0.375 1.234375 0.375q0.734375 0 1.375 -0.375q0.65625 -0.390625 0.921875 -1.03125q0.265625 -0.65625 0.265625 -1.890625l0 -5.1875l1.640625 0l0 9.671875l-1.46875 0zm4.0319824 0l0 -9.671875l1.46875 0l0 1.46875q0.5625 -1.03125 1.03125 -1.359375q0.484375 -0.328125 1.0625 -0.328125q0.828125 0 1.6875 0.53125l-0.5625 1.515625q-0.609375 -0.359375 -1.203125 -0.359375q-0.546875 0 -0.96875 0.328125q-0.421875 0.328125 -0.609375 0.890625q-0.28125 0.875 -0.28125 1.921875l0 5.0625l-1.625 0zm12.853302 -3.109375l1.6875 0.203125q-0.40625 1.484375 -1.484375 2.3125q-1.078125 0.8125 -2.765625 0.8125q-2.125 0 -3.375 -1.296875q-1.234375 -1.3125 -1.234375 -3.671875q0 -2.453125 1.25 -3.796875q1.265625 -1.34375 3.265625 -1.34375q1.9375 0 3.15625 1.328125q1.234375 1.3125 1.234375 3.703125q0 0.15625 0 0.4375l-7.21875 0q0.09375 1.59375 0.90625 2.453125q0.8125 0.84375 2.015625 0.84375q0.90625 0 1.546875 -0.46875q0.640625 -0.484375 1.015625 -1.515625zm-5.390625 -2.65625l5.40625 0q-0.109375 -1.21875 -0.625 -1.828125q-0.78125 -0.953125 -2.03125 -0.953125q-1.125 0 -1.90625 0.765625q-0.765625 0.75 -0.84375 2.015625z" fill-rule="nonzero"/><path fill="#000000" fill-opacity="0.0" d="m23.587927 49.330708l254.23624 0l0 63.748035l-254.23624 0z" fill-rule="evenodd"/><path fill="#000000" d="m88.465805 94.264725l0 -25.765625l8.875 0q3.0 0 4.59375 0.359375q2.203125 0.515625 3.765625 1.84375q2.046875 1.734375 3.046875 4.421875q1.015625 2.671875 1.015625 6.109375q0 2.9375 -0.6875 5.203125q-0.671875 2.265625 -1.75 3.765625q-1.078125 1.484375 -2.359375 2.34375q-1.265625 0.84375 -3.0625 1.28125q-1.796875 0.4375 -4.140625 0.4375l-9.296875 0zm3.40625 -3.046875l5.5 0q2.546875 0 4.0 -0.46875q1.453125 -0.46875 2.3125 -1.34375q1.21875 -1.203125 1.890625 -3.25q0.671875 -2.046875 0.671875 -4.96875q0 -4.046875 -1.328125 -6.21875q-1.328125 -2.171875 -3.21875 -2.90625q-1.375 -0.53125 -4.40625 -0.53125l-5.421875 0l0 19.6875zm34.966797 -2.96875l3.265625 0.40625q-0.765625 2.859375 -2.859375 4.453125q-2.09375 1.578125 -5.34375 1.578125q-4.09375 0 -6.5 -2.515625q-2.40625 -2.53125 -2.40625 -7.078125q0 -4.71875 2.421875 -7.3125q2.4375 -2.609375 6.296875 -2.609375q3.75 0 6.125 2.546875q2.375 2.546875 2.375 7.171875q0 0.28125 -0.015625 0.84375l-13.921875 0q0.171875 3.078125 1.734375 4.71875q1.5625 1.625 3.90625 1.625q1.734375 0 2.96875 -0.90625q1.234375 -0.921875 1.953125 -2.921875zm-10.390625 -5.109375l10.421875 0q-0.203125 -2.359375 -1.1875 -3.53125q-1.515625 -1.828125 -3.921875 -1.828125q-2.1875 0 -3.671875 1.453125q-1.484375 1.453125 -1.640625 3.90625zm22.81836 11.125l-7.109375 -18.671875l3.34375 0l4.015625 11.1875q0.640625 1.8125 1.1875 3.75q0.421875 -1.46875 1.171875 -3.546875l4.15625 -11.390625l3.25 0l-7.0625 18.671875l-2.953125 0zm12.171875 -12.546875q0 -6.421875 3.4374847 -10.046875q3.453125 -3.640625 8.90625 -3.640625q3.578125 0 6.4375 1.71875q2.859375 1.703125 4.359375 4.75q1.515625 3.046875 1.515625 6.921875q0 3.90625 -1.59375 7.0q-1.578125 3.09375 -4.484375 4.6875q-2.890625 1.59375 -6.25 1.59375q-3.640625 0 -6.515625 -1.75q-2.859375 -1.765625 -4.34375 -4.796875q-1.4687347 -3.046875 -1.4687347 -6.4375zm3.5156097 0.046875q0 4.65625 2.5 7.34375q2.515625 2.671875 6.296875 2.671875q3.84375 0 6.328125 -2.703125q2.5 -2.703125 2.5 -7.6875q0 -3.140625 -1.0625 -5.484375q-1.0625 -2.34375 -3.125 -3.640625q-2.046875 -1.296875 -4.59375 -1.296875q-3.609375 0 -6.234375 2.5q-2.609375 2.484375 -2.609375 8.296875zm25.126953 19.65625l0 -25.828125l2.875 0l0 2.421875q1.03125 -1.421875 2.3125 -2.125q1.28125 -0.71875 3.109375 -0.71875q2.390625 0 4.21875 1.234375q1.828125 1.234375 2.75 3.484375q0.9375 2.234375 0.9375 4.90625q0 2.859375 -1.03125 5.15625q-1.015625 2.296875 -2.984375 3.515625q-1.953125 1.21875 -4.125 1.21875q-1.578125 0 -2.84375 -0.671875q-1.25 -0.671875 -2.0625 -1.6875l0 9.09375l-3.15625 0zm2.859375 -16.390625q0 3.609375 1.453125 5.328125q1.46875 1.71875 3.546875 1.71875q2.109375 0 3.609375 -1.78125q1.5 -1.78125 1.5 -5.53125q0 -3.5625 -1.46875 -5.328125q-1.46875 -1.78125 -3.5 -1.78125q-2.03125 0 -3.59375 1.890625q-1.546875 1.890625 -1.546875 5.484375zm15.896484 3.65625l3.125 -0.484375q0.265625 1.875 1.46875 2.875q1.203125 1.0 3.375 1.0q2.171875 0 3.21875 -0.875q1.0625 -0.890625 1.0625 -2.09375q0 -1.0625 -0.9375 -1.6875q-0.640625 -0.421875 -3.234375 -1.0625q-3.46875 -0.890625 -4.8125 -1.53125q-1.34375 -0.640625 -2.046875 -1.765625q-0.6875 -1.140625 -0.6875 -2.515625q0 -1.234375 0.5625 -2.296875q0.578125 -1.078125 1.5625 -1.78125q0.734375 -0.53125 2.0 -0.90625q1.28125 -0.390625 2.75 -0.390625q2.1875 0 3.84375 0.640625q1.671875 0.625 2.453125 1.71875q0.796875 1.078125 1.09375 2.875l-3.09375 0.421875q-0.203125 -1.4375 -1.21875 -2.234375q-1.015625 -0.8125 -2.859375 -0.8125q-2.171875 0 -3.109375 0.71875q-0.9375 0.71875 -0.9375 1.6875q0 0.609375 0.390625 1.109375q0.390625 0.5 1.21875 0.84375q0.46875 0.171875 2.796875 0.796875q3.359375 0.90625 4.671875 1.484375q1.328125 0.5625 2.078125 1.65625q0.765625 1.078125 0.765625 2.703125q0 1.578125 -0.921875 2.984375q-0.921875 1.390625 -2.671875 2.15625q-1.734375 0.765625 -3.921875 0.765625q-3.640625 0 -5.546875 -1.515625q-1.90625 -1.515625 -2.4375 -4.484375z" fill-rule="nonzero"/><path fill="#000000" fill-opacity="0.0" d="m34.14173 587.5617l254.23624 0l0 86.51965l-254.23624 0z" fill-rule="evenodd"/><path fill="#000000" d="m71.017654 622.38153l0 -25.765625l8.875 0q3.0 0 4.59375 0.359375q2.203125 0.515625 3.765625 1.84375q2.046875 1.734375 3.046875 4.421875q1.015625 2.671875 1.015625 6.109375q0 2.9375 -0.6875 5.203125q-0.671875 2.265625 -1.75 3.765625q-1.078125 1.484375 -2.359375 2.34375q-1.265625 0.84375 -3.0625 1.28125q-1.796875 0.4375 -4.140625 0.4375l-9.296875 0zm3.40625 -3.046875l5.5 0q2.546875 0 4.0 -0.46875q1.453125 -0.46875 2.3125 -1.34375q1.21875 -1.203125 1.890625 -3.25q0.671875 -2.046875 0.671875 -4.96875q0 -4.046875 -1.328125 -6.21875q-1.328125 -2.171875 -3.21875 -2.90625q-1.375 -0.53125 -4.40625 -0.53125l-5.421875 0l0 19.6875zm34.966797 -2.96875l3.265625 0.40625q-0.765625 2.859375 -2.859375 4.453125q-2.09375 1.578125 -5.34375 1.578125q-4.09375 0 -6.5 -2.515625q-2.40625 -2.53125 -2.40625 -7.078125q0 -4.71875 2.421875 -7.3125q2.4375 -2.609375 6.296875 -2.609375q3.75 0 6.125 2.546875q2.375 2.546875 2.375 7.171875q0 0.28125 -0.015625 0.84375l-13.921875 0q0.171875 3.078125 1.734375 4.71875q1.5625 1.625 3.90625 1.625q1.734375 0 2.96875 -0.90625q1.234375 -0.921875 1.953125 -2.921875zm-10.390625 -5.109375l10.421875 0q-0.203125 -2.359375 -1.1875 -3.53125q-1.515625 -1.828125 -3.921875 -1.828125q-2.1875 0 -3.671875 1.453125q-1.484375 1.453125 -1.640625 3.90625zm22.81836 11.125l-7.109375 -18.671875l3.34375 0l4.015625 11.1875q0.640625 1.8125 1.1875 3.75q0.421875 -1.46875 1.171875 -3.546875l4.15625 -11.390625l3.25 0l-7.0625 18.671875l-2.953125 0zm55.033203 -9.5l0 0.796875q-1.65625 0.75 -3.25 2.046875q-1.59375 1.28125 -3.890625 3.875l-1.40625 0q1.21875 -3.015625 3.421875 -5.46875l-22.953125 0q2.203125 2.453125 3.421875 5.46875l-1.40625 0q-2.296875 -2.59375 -3.890625 -3.875q-1.59375 -1.296875 -3.25 -2.046875l0 -0.796875q1.65625 -0.765625 3.25 -2.03125q1.59375 -1.28125 3.890625 -3.90625l1.40625 0q-1.21875 3.03125 -3.421875 5.46875l22.953125 0q-2.203125 -2.4375 -3.421875 -5.46875l1.40625 0q2.296875 2.625 3.890625 3.90625q1.59375 1.265625 3.25 2.03125zm13.142578 -3.046875q0 -6.421875 3.4375 -10.046875q3.453125 -3.640625 8.90625 -3.640625q3.578125 0 6.4375 1.71875q2.859375 1.703125 4.359375 4.75q1.515625 3.046875 1.515625 6.921875q0 3.90625 -1.59375 7.0q-1.578125 3.09375 -4.484375 4.6875q-2.890625 1.59375 -6.25 1.59375q-3.640625 0 -6.515625 -1.75q-2.859375 -1.765625 -4.34375 -4.796875q-1.46875 -3.046875 -1.46875 -6.4375zm3.515625 0.046875q0 4.65625 2.5 7.34375q2.515625 2.671875 6.296875 2.671875q3.84375 0 6.328125 -2.703125q2.5 -2.703125 2.5 -7.6875q0 -3.140625 -1.0625 -5.484375q-1.0625 -2.34375 -3.125 -3.640625q-2.046875 -1.296875 -4.59375 -1.296875q-3.609375 0 -6.234375 2.5q-2.609375 2.484375 -2.609375 8.296875zm25.126953 19.65625l0 -25.828125l2.875 0l0 2.421875q1.03125 -1.421875 2.3125 -2.125q1.28125 -0.71875 3.109375 -0.71875q2.390625 0 4.21875 1.234375q1.828125 1.234375 2.75 3.484375q0.9375 2.234375 0.9375 4.90625q0 2.859375 -1.03125 5.15625q-1.015625 2.296875 -2.984375 3.515625q-1.953125 1.21875 -4.125 1.21875q-1.578125 0 -2.84375 -0.671875q-1.25 -0.671875 -2.0625 -1.6875l0 9.09375l-3.15625 0zm2.859375 -16.390625q0 3.609375 1.453125 5.328125q1.46875 1.71875 3.546875 1.71875q2.109375 0 3.609375 -1.78125q1.5 -1.78125 1.5 -5.53125q0 -3.5625 -1.46875 -5.328125q-1.46875 -1.78125 -3.5 -1.78125q-2.03125 0 -3.59375 1.890625q-1.546875 1.890625 -1.546875 5.484375zm15.896484 3.65625l3.125 -0.484375q0.265625 1.875 1.46875 2.875q1.203125 1.0 3.375 1.0q2.171875 0 3.21875 -0.875q1.0625 -0.890625 1.0625 -2.09375q0 -1.0625 -0.9375 -1.6875q-0.640625 -0.421875 -3.234375 -1.0625q-3.46875 -0.890625 -4.8125 -1.53125q-1.34375 -0.640625 -2.046875 -1.765625q-0.6875 -1.140625 -0.6875 -2.515625q0 -1.234375 0.5625 -2.296875q0.578125 -1.078125 1.5625 -1.78125q0.734375 -0.53125 2.0 -0.90625q1.28125 -0.390625 2.75 -0.390625q2.1875 0 3.84375 0.640625q1.671875 0.625 2.453125 1.71875q0.796875 1.078125 1.09375 2.875l-3.09375 0.421875q-0.203125 -1.4375 -1.21875 -2.234375q-1.015625 -0.8125 -2.859375 -0.8125q-2.171875 0 -3.109375 0.71875q-0.9375 0.71875 -0.9375 1.6875q0 0.609375 0.390625 1.109375q0.390625 0.5 1.21875 0.84375q0.46875 0.171875 2.796875 0.796875q3.359375 0.90625 4.671875 1.484375q1.328125 0.5625 2.078125 1.65625q0.765625 1.078125 0.765625 2.703125q0 1.578125 -0.921875 2.984375q-0.921875 1.390625 -2.671875 2.15625q-1.734375 0.765625 -3.921875 0.765625q-3.640625 0 -5.546875 -1.515625q-1.90625 -1.515625 -2.4375 -4.484375z" fill-rule="nonzero"/><path fill="#000000" d="m66.88289 665.38153l0 -25.765625l5.140625 0l6.09375 18.234375q0.84375 2.5625 1.234375 3.828125q0.4375 -1.40625 1.359375 -4.140625l6.171875 -17.921875l4.59375 0l0 25.765625l-3.28125 0l0 -21.5625l-7.5 21.5625l-3.078125 0l-7.453125 -21.9375l0 21.9375l-3.28125 0zm41.878906 -2.296875q-1.765625 1.484375 -3.390625 2.109375q-1.625 0.609375 -3.484375 0.609375q-3.078125 0 -4.734375 -1.5q-1.65625 -1.5 -1.65625 -3.84375q0 -1.375 0.625 -2.5q0.625 -1.140625 1.640625 -1.828125q1.015625 -0.6875 2.28125 -1.03125q0.921875 -0.25 2.8125 -0.484375q3.828125 -0.453125 5.640625 -1.078125q0.015625 -0.65625 0.015625 -0.828125q0 -1.9375 -0.90625 -2.734375q-1.203125 -1.0625 -3.59375 -1.0625q-2.234375 0 -3.296875 0.78125q-1.0625 0.78125 -1.578125 2.765625l-3.09375 -0.421875q0.421875 -1.984375 1.390625 -3.203125q0.96875 -1.21875 2.796875 -1.875q1.828125 -0.671875 4.234375 -0.671875q2.390625 0 3.875 0.5625q1.5 0.5625 2.203125 1.421875q0.703125 0.84375 0.984375 2.15625q0.15625 0.796875 0.15625 2.90625l0 4.21875q0 4.421875 0.203125 5.59375q0.203125 1.15625 0.8125 2.234375l-3.3125 0q-0.484375 -0.984375 -0.625 -2.296875zm-0.265625 -7.078125q-1.734375 0.703125 -5.171875 1.203125q-1.953125 0.28125 -2.765625 0.640625q-0.796875 0.34375 -1.25 1.015625q-0.4375 0.671875 -0.4375 1.5q0 1.265625 0.953125 2.109375q0.96875 0.84375 2.8125 0.84375q1.828125 0 3.25 -0.796875q1.421875 -0.796875 2.09375 -2.1875q0.515625 -1.078125 0.515625 -3.15625l0 -1.171875zm8.099609 9.375l0 -18.671875l2.84375 0l0 2.65625q2.0625 -3.078125 5.9375 -3.078125q1.6875 0 3.109375 0.609375q1.421875 0.609375 2.125 1.59375q0.703125 0.984375 0.984375 2.328125q0.171875 0.890625 0.171875 3.078125l0 11.484375l-3.171875 0l0 -11.359375q0 -1.9375 -0.375 -2.890625q-0.359375 -0.953125 -1.296875 -1.515625q-0.9375 -0.578125 -2.203125 -0.578125q-2.03125 0 -3.5 1.28125q-1.46875 1.28125 -1.46875 4.859375l0 10.203125l-3.15625 0zm32.25586 0l0 -2.75q-2.1875 3.171875 -5.921875 3.171875q-1.65625 0 -3.09375 -0.625q-1.421875 -0.640625 -2.125 -1.59375q-0.6875 -0.96875 -0.96875 -2.359375q-0.203125 -0.921875 -0.203125 -2.953125l0 -11.5625l3.171875 0l0 10.359375q0 2.46875 0.1875 3.34375q0.296875 1.234375 1.265625 1.953125q0.96875 0.71875 2.390625 0.71875q1.421875 0 2.671875 -0.734375q1.25 -0.734375 1.765625 -1.984375q0.53125 -1.265625 0.53125 -3.65625l0 -10.0l3.15625 0l0 18.671875l-2.828125 0zm19.97461 -2.296875q-1.765625 1.484375 -3.390625 2.109375q-1.625 0.609375 -3.484375 0.609375q-3.078125 0 -4.734375 -1.5q-1.65625 -1.5 -1.65625 -3.84375q0 -1.375 0.625 -2.5q0.625 -1.140625 1.640625 -1.828125q1.015625 -0.6875 2.28125 -1.03125q0.921875 -0.25 2.8125 -0.484375q3.828125 -0.453125 5.640625 -1.078125q0.015625 -0.65625 0.015625 -0.828125q0 -1.9375 -0.90625 -2.734375q-1.203125 -1.0625 -3.59375 -1.0625q-2.234375 0 -3.296875 0.78125q-1.0625 0.78125 -1.578125 2.765625l-3.09375 -0.421875q0.421875 -1.984375 1.390625 -3.203125q0.96875 -1.21875 2.796875 -1.875q1.828125 -0.671875 4.234375 -0.671875q2.390625 0 3.875 0.5625q1.5 0.5625 2.203125 1.421875q0.703125 0.84375 0.984375 2.15625q0.15625 0.796875 0.15625 2.90625l0 4.21875q0 4.421875 0.203125 5.59375q0.203125 1.15625 0.8125 2.234375l-3.3125 0q-0.484375 -0.984375 -0.625 -2.296875zm-0.265625 -7.078125q-1.734375 0.703125 -5.171875 1.203125q-1.953125 0.28125 -2.765625 0.640625q-0.796875 0.34375 -1.25 1.015625q-0.4375 0.671875 -0.4375 1.5q0 1.265625 0.953125 2.109375q0.96875 0.84375 2.8125 0.84375q1.828125 0 3.25 -0.796875q1.421875 -0.796875 2.09375 -2.1875q0.515625 -1.078125 0.515625 -3.15625l0 -1.171875zm8.021484 9.375l0 -25.765625l3.171875 0l0 25.765625l-3.171875 0zm17.4375 -12.546875q0 -6.421875 3.4375 -10.046875q3.453125 -3.640625 8.90625 -3.640625q3.578125 0 6.4375 1.71875q2.859375 1.703125 4.359375 4.75q1.515625 3.046875 1.515625 6.921875q0 3.90625 -1.59375 7.0q-1.578125 3.09375 -4.484375 4.6875q-2.890625 1.59375 -6.25 1.59375q-3.640625 0 -6.515625 -1.75q-2.859375 -1.765625 -4.34375 -4.796875q-1.46875 -3.046875 -1.46875 -6.4375zm3.515625 0.046875q0 4.65625 2.5 7.34375q2.515625 2.671875 6.296875 2.671875q3.84375 0 6.328125 -2.703125q2.5 -2.703125 2.5 -7.6875q0 -3.140625 -1.0625 -5.484375q-1.0625 -2.34375 -3.125 -3.640625q-2.046875 -1.296875 -4.59375 -1.296875q-3.609375 0 -6.234375 2.5q-2.609375 2.484375 -2.609375 8.296875zm25.126953 19.65625l0 -25.828125l2.875 0l0 2.421875q1.03125 -1.421875 2.3125 -2.125q1.28125 -0.71875 3.109375 -0.71875q2.390625 0 4.21875 1.234375q1.828125 1.234375 2.75 3.484375q0.9375 2.234375 0.9375 4.90625q0 2.859375 -1.03125 5.15625q-1.015625 2.296875 -2.984375 3.515625q-1.953125 1.21875 -4.125 1.21875q-1.578125 0 -2.84375 -0.671875q-1.25 -0.671875 -2.0625 -1.6875l0 9.09375l-3.15625 0zm2.859375 -16.390625q0 3.609375 1.453125 5.328125q1.46875 1.71875 3.546875 1.71875q2.109375 0 3.609375 -1.78125q1.5 -1.78125 1.5 -5.53125q0 -3.5625 -1.46875 -5.328125q-1.46875 -1.78125 -3.5 -1.78125q-2.03125 0 -3.59375 1.890625q-1.546875 1.890625 -1.546875 5.484375zm15.896484 3.65625l3.125 -0.484375q0.265625 1.875 1.46875 2.875q1.203125 1.0 3.375 1.0q2.171875 0 3.21875 -0.875q1.0625 -0.890625 1.0625 -2.09375q0 -1.0625 -0.9375 -1.6875q-0.640625 -0.421875 -3.234375 -1.0625q-3.46875 -0.890625 -4.8125 -1.53125q-1.34375 -0.640625 -2.046875 -1.765625q-0.6875 -1.140625 -0.6875 -2.515625q0 -1.234375 0.5625 -2.296875q0.578125 -1.078125 1.5625 -1.78125q0.734375 -0.53125 2.0 -0.90625q1.28125 -0.390625 2.75 -0.390625q2.1875 0 3.84375 0.640625q1.671875 0.625 2.453125 1.71875q0.796875 1.078125 1.0937347 2.875l-3.0937347 0.421875q-0.203125 -1.4375 -1.21875 -2.234375q-1.015625 -0.8125 -2.859375 -0.8125q-2.171875 0 -3.109375 0.71875q-0.9375 0.71875 -0.9375 1.6875q0 0.609375 0.390625 1.109375q0.390625 0.5 1.21875 0.84375q0.46875 0.171875 2.796875 0.796875q3.359375 0.90625 4.671875 1.484375q1.328125 0.5625 2.0781097 1.65625q0.765625 1.078125 0.765625 2.703125q0 1.578125 -0.92185974 2.984375q-0.921875 1.390625 -2.671875 2.15625q-1.734375 0.765625 -3.921875 0.765625q-3.640625 0 -5.546875 -1.515625q-1.90625 -1.515625 -2.4375 -4.484375z" fill-rule="nonzero"/><path fill="#000000" fill-opacity="0.0" d="m661.0525 580.55383l254.2362 0l0 100.5354l-254.2362 0z" fill-rule="evenodd"/><path fill="#000000" d="m756.89325 609.83466q0 -6.421875 3.4375 -10.046875q3.453125 -3.640625 8.90625 -3.640625q3.578125 0 6.4375 1.71875q2.859375 1.703125 4.359375 4.75q1.515625 3.046875 1.515625 6.921875q0 3.90625 -1.59375 7.0q-1.578125 3.09375 -4.484375 4.6875q-2.890625 1.59375 -6.25 1.59375q-3.640625 0 -6.515625 -1.75q-2.859375 -1.765625 -4.34375 -4.796875q-1.46875 -3.046875 -1.46875 -6.4375zm3.515625 0.046875q0 4.65625 2.5 7.34375q2.515625 2.671875 6.296875 2.671875q3.84375 0 6.328125 -2.703125q2.5 -2.703125 2.5 -7.6875q0 -3.140625 -1.0625 -5.484375q-1.0625 -2.34375 -3.125 -3.640625q-2.046875 -1.296875 -4.59375 -1.296875q-3.609375 0 -6.234375 2.5q-2.609375 2.484375 -2.609375 8.296875zm25.126953 19.65625l0 -25.828125l2.875 0l0 2.421875q1.03125 -1.421875 2.3125 -2.125q1.28125 -0.71875 3.109375 -0.71875q2.390625 0 4.21875 1.234375q1.828125 1.234375 2.75 3.484375q0.9375 2.234375 0.9375 4.90625q0 2.859375 -1.03125 5.15625q-1.015625 2.296875 -2.984375 3.515625q-1.953125 1.21875 -4.125 1.21875q-1.578125 0 -2.84375 -0.671875q-1.25 -0.671875 -2.0625 -1.6875l0 9.09375l-3.15625 0zm2.859375 -16.390625q0 3.609375 1.453125 5.328125q1.46875 1.71875 3.546875 1.71875q2.109375 0 3.609375 -1.78125q1.5 -1.78125 1.5 -5.53125q0 -3.5625 -1.46875 -5.328125q-1.46875 -1.78125 -3.5 -1.78125q-2.03125 0 -3.59375 1.890625q-1.546875 1.890625 -1.546875 5.484375zm15.896484 3.65625l3.125 -0.484375q0.265625 1.875 1.46875 2.875q1.203125 1.0 3.375 1.0q2.171875 0 3.21875 -0.875q1.0625 -0.890625 1.0625 -2.09375q0 -1.0625 -0.9375 -1.6875q-0.640625 -0.421875 -3.234375 -1.0625q-3.46875 -0.890625 -4.8125 -1.53125q-1.34375 -0.640625 -2.046875 -1.765625q-0.6875 -1.140625 -0.6875 -2.515625q0 -1.234375 0.5625 -2.296875q0.578125 -1.078125 1.5625 -1.78125q0.734375 -0.53125 2.0 -0.90625q1.28125 -0.390625 2.75 -0.390625q2.1875 0 3.84375 0.640625q1.671875 0.625 2.453125 1.71875q0.796875 1.078125 1.09375 2.875l-3.09375 0.421875q-0.203125 -1.4375 -1.21875 -2.234375q-1.015625 -0.8125 -2.859375 -0.8125q-2.171875 0 -3.109375 0.71875q-0.9375 0.71875 -0.9375 1.6875q0 0.609375 0.390625 1.109375q0.390625 0.5 1.21875 0.84375q0.46875 0.171875 2.796875 0.796875q3.359375 0.90625 4.671875 1.484375q1.328125 0.5625 2.078125 1.65625q0.765625 1.078125 0.765625 2.703125q0 1.578125 -0.921875 2.984375q-0.921875 1.390625 -2.671875 2.15625q-1.734375 0.765625 -3.921875 0.765625q-3.640625 0 -5.546875 -1.515625q-1.90625 -1.515625 -2.4375 -4.484375z" fill-rule="nonzero"/><path fill="#000000" d="m697.06903 665.38153l9.890625 -25.765625l3.671875 0l10.546875 25.765625l-3.875 0l-3.015625 -7.8125l-10.765625 0l-2.84375 7.8125l-3.609375 0zm7.4375 -10.578125l8.734375 0l-2.6875 -7.140625q-1.234375 -3.25 -1.828125 -5.34375q-0.5 2.484375 -1.390625 4.921875l-2.828125 7.5625zm31.230469 10.578125l0 -2.75q-2.1875 3.171875 -5.921875 3.171875q-1.65625 0 -3.09375 -0.625q-1.421875 -0.640625 -2.125 -1.59375q-0.6875 -0.96875 -0.96875 -2.359375q-0.203125 -0.921875 -0.203125 -2.953125l0 -11.5625l3.171875 0l0 10.359375q0 2.46875 0.1875 3.34375q0.296875 1.234375 1.265625 1.953125q0.96875 0.71875 2.390625 0.71875q1.421875 0 2.671875 -0.734375q1.25 -0.734375 1.765625 -1.984375q0.53125 -1.265625 0.53125 -3.65625l0 -10.0l3.15625 0l0 18.671875l-2.828125 0zm14.693359 -2.828125l0.453125 2.796875q-1.328125 0.28125 -2.390625 0.28125q-1.71875 0 -2.671875 -0.546875q-0.9375 -0.546875 -1.328125 -1.4375q-0.390625 -0.890625 -0.390625 -3.734375l0 -10.734375l-2.3125 0l0 -2.46875l2.3125 0l0 -4.625l3.140625 -1.890625l0 6.515625l3.1875 0l0 2.46875l-3.1875 0l0 10.90625q0 1.359375 0.171875 1.75q0.171875 0.375 0.546875 0.609375q0.375 0.234375 1.078125 0.234375q0.53125 0 1.390625 -0.125zm1.9238281 -6.5q0 -5.1875 2.875 -7.6875q2.40625 -2.078125 5.875 -2.078125q3.84375 0 6.28125 2.53125q2.453125 2.515625 2.453125 6.96875q0 3.59375 -1.078125 5.671875q-1.078125 2.0625 -3.15625 3.203125q-2.0625 1.140625 -4.5 1.140625q-3.921875 0 -6.34375 -2.515625q-2.40625 -2.515625 -2.40625 -7.234375zm3.25 0q0 3.578125 1.5625 5.359375q1.5625 1.78125 3.9375 1.78125q2.359375 0 3.921875 -1.78125q1.5625 -1.796875 1.5625 -5.46875q0 -3.46875 -1.578125 -5.25q-1.578125 -1.78125 -3.90625 -1.78125q-2.375 0 -3.9375 1.78125q-1.5625 1.765625 -1.5625 5.359375zm17.94336 9.328125l0 -18.671875l2.828125 0l0 2.625q0.875 -1.375 2.328125 -2.203125q1.46875 -0.84375 3.328125 -0.84375q2.078125 0 3.40625 0.859375q1.328125 0.859375 1.875 2.40625q2.21875 -3.265625 5.765625 -3.265625q2.78125 0 4.265625 1.546875q1.5 1.53125 1.5 4.734375l0 12.8125l-3.15625 0l0 -11.765625q0 -1.890625 -0.3125 -2.71875q-0.296875 -0.84375 -1.109375 -1.34375q-0.796875 -0.515625 -1.890625 -0.515625q-1.96875 0 -3.28125 1.3125q-1.296875 1.296875 -1.296875 4.1875l0 10.84375l-3.15625 0l0 -12.125q0 -2.109375 -0.78125 -3.15625q-0.765625 -1.0625 -2.53125 -1.0625q-1.328125 0 -2.46875 0.703125q-1.125 0.703125 -1.640625 2.0625q-0.515625 1.34375 -0.515625 3.890625l0 9.6875l-3.15625 0zm42.17578 -2.296875q-1.765625 1.484375 -3.390625 2.109375q-1.625 0.609375 -3.484375 0.609375q-3.078125 0 -4.734375 -1.5q-1.65625 -1.5 -1.65625 -3.84375q0 -1.375 0.625 -2.5q0.625 -1.140625 1.640625 -1.828125q1.015625 -0.6875 2.28125 -1.03125q0.921875 -0.25 2.8125 -0.484375q3.828125 -0.453125 5.640625 -1.078125q0.015625 -0.65625 0.015625 -0.828125q0 -1.9375 -0.90625 -2.734375q-1.203125 -1.0625 -3.59375 -1.0625q-2.234375 0 -3.296875 0.78125q-1.0625 0.78125 -1.578125 2.765625l-3.09375 -0.421875q0.421875 -1.984375 1.390625 -3.203125q0.96875 -1.21875 2.796875 -1.875q1.828125 -0.671875 4.234375 -0.671875q2.390625 0 3.875 0.5625q1.5 0.5625 2.203125 1.421875q0.703125 0.84375 0.984375 2.15625q0.15625 0.796875 0.15625 2.90625l0 4.21875q0 4.421875 0.203125 5.59375q0.203125 1.15625 0.8125 2.234375l-3.3125 0q-0.484375 -0.984375 -0.625 -2.296875zm-0.265625 -7.078125q-1.734375 0.703125 -5.171875 1.203125q-1.953125 0.28125 -2.765625 0.640625q-0.796875 0.34375 -1.25 1.015625q-0.4375 0.671875 -0.4375 1.5q0 1.265625 0.953125 2.109375q0.96875 0.84375 2.8125 0.84375q1.828125 0 3.25 -0.796875q1.421875 -0.796875 2.09375 -2.1875q0.515625 -1.078125 0.515625 -3.15625l0 -1.171875zm15.005859 6.546875l0.453125 2.796875q-1.328125 0.28125 -2.390625 0.28125q-1.71875 0 -2.671875 -0.546875q-0.9375 -0.546875 -1.328125 -1.4375q-0.390625 -0.890625 -0.390625 -3.734375l0 -10.734375l-2.3125 0l0 -2.46875l2.3125 0l0 -4.625l3.140625 -1.890625l0 6.515625l3.1875 0l0 2.46875l-3.1875 0l0 10.90625q0 1.359375 0.171875 1.75q0.171875 0.375 0.546875 0.609375q0.375 0.234375 1.078125 0.234375q0.53125 0 1.390625 -0.125zm3.1113281 -19.296875l0 -3.640625l3.171875 0l0 3.640625l-3.171875 0zm0 22.125l0 -18.671875l3.171875 0l0 18.671875l-3.171875 0zm6.810547 -9.328125q0 -5.1875 2.875 -7.6875q2.40625 -2.078125 5.875 -2.078125q3.84375 0 6.28125 2.53125q2.453125 2.515625 2.453125 6.96875q0 3.59375 -1.078125 5.671875q-1.078125 2.0625 -3.15625 3.203125q-2.0625 1.140625 -4.5 1.140625q-3.921875 0 -6.34375 -2.515625q-2.40625 -2.515625 -2.40625 -7.234375zm3.25 0q0 3.578125 1.5625 5.359375q1.5625 1.78125 3.9375 1.78125q2.359375 0 3.921875 -1.78125q1.5625 -1.796875 1.5625 -5.46875q0 -3.46875 -1.578125 -5.25q-1.578125 -1.78125 -3.90625 -1.78125q-2.375 0 -3.9375 1.78125q-1.5625 1.765625 -1.5625 5.359375zm17.94336 9.328125l0 -18.671875l2.84375 0l0 2.65625q2.0625 -3.078125 5.9375 -3.078125q1.6875 0 3.109375 0.609375q1.421875 0.609375 2.125 1.59375q0.703125 0.984375 0.984375 2.328125q0.171875 0.890625 0.171875 3.078125l0 11.484375l-3.171875 0l0 -11.359375q0 -1.9375 -0.375 -2.890625q-0.359375 -0.953125 -1.296875 -1.515625q-0.9375 -0.578125 -2.203125 -0.578125q-2.03125 0 -3.5 1.28125q-1.46875 1.28125 -1.46875 4.859375l0 10.203125l-3.15625 0z" fill-rule="nonzero"/><path fill="#ffffff" d="m372.80316 360.0l0 0c0 -22.78717 18.472656 -41.259857 41.259827 -41.259857l131.87402 0l0 0c10.94281 0 21.437378 4.3470154 29.17511 12.084747c7.737732 7.737732 12.084717 18.23233 12.084717 29.17511l0 0l0 0c0 22.78717 -18.472656 41.259857 -41.259827 41.259857l-131.87402 0c-22.78717 0 -41.259827 -18.472687 -41.259827 -41.259857z" fill-rule="evenodd"/><path fill="#000000" d="m444.16602 364.02875l3.40625 0.859375q-1.078125 4.203125 -3.859375 6.40625q-2.78125 2.203125 -6.8125 2.203125q-4.171875 0 -6.78125 -1.6875q-2.609375 -1.703125 -3.96875 -4.921875q-1.359375 -3.21875 -1.359375 -6.90625q0 -4.03125 1.53125 -7.015625q1.546875 -3.0 4.375 -4.546875q2.84375 -1.5625 6.25 -1.5625q3.875 0 6.5 1.96875q2.640625 1.96875 3.6875 5.53125l-3.359375 0.796875q-0.90625 -2.8125 -2.609375 -4.09375q-1.703125 -1.296875 -4.28125 -1.296875q-2.96875 0 -4.96875 1.4375q-2.0 1.421875 -2.8125 3.828125q-0.796875 2.390625 -0.796875 4.9375q0 3.28125 0.953125 5.734375q0.953125 2.453125 2.96875 3.671875q2.03125 1.203125 4.390625 1.203125q2.859375 0 4.84375 -1.640625q2.0 -1.65625 2.703125 -4.90625zm8.185547 9.03125l0 -25.765625l3.40625 0l0 25.765625l-3.40625 0zm7.783203 -7.734375l0 -3.1875l9.71875 0l0 3.1875l-9.71875 0zm12.582031 -4.8125q0 -6.421875 3.4375 -10.046875q3.453125 -3.640625 8.90625 -3.640625q3.578125 0 6.4375 1.71875q2.859375 1.703125 4.359375 4.75q1.515625 3.046875 1.515625 6.921875q0 3.90625 -1.59375 7.0q-1.578125 3.09375 -4.484375 4.6875q-2.890625 1.59375 -6.25 1.59375q-3.640625 0 -6.515625 -1.75q-2.859375 -1.765625 -4.34375 -4.796875q-1.46875 -3.046875 -1.46875 -6.4375zm3.515625 0.046875q0 4.65625 2.5 7.34375q2.515625 2.671875 6.296875 2.671875q3.84375 0 6.328125 -2.703125q2.5 -2.703125 2.5 -7.6875q0 -3.140625 -1.0625 -5.484375q-1.0625 -2.34375 -3.125 -3.640625q-2.046875 -1.296875 -4.59375 -1.296875q-3.609375 0 -6.234375 2.5q-2.609375 2.484375 -2.609375 8.296875zm25.126953 19.65625l0 -25.828125l2.875 0l0 2.421875q1.03125 -1.421875 2.3125 -2.125q1.28125 -0.71875 3.109375 -0.71875q2.390625 0 4.21875 1.234375q1.828125 1.234375 2.75 3.484375q0.9375 2.234375 0.9375 4.90625q0 2.859375 -1.03125 5.15625q-1.015625 2.296875 -2.984375 3.515625q-1.953125 1.21875 -4.125 1.21875q-1.578125 0 -2.84375 -0.671875q-1.25 -0.671875 -2.0625 -1.6875l0 9.09375l-3.15625 0zm2.859375 -16.390625q0 3.609375 1.453125 5.328125q1.46875 1.71875 3.546875 1.71875q2.109375 0 3.609375 -1.78125q1.5 -1.78125 1.5 -5.53125q0 -3.5625 -1.46875 -5.328125q-1.46875 -1.78125 -3.5 -1.78125q-2.03125 0 -3.59375 1.890625q-1.546875 1.890625 -1.546875 5.484375zm15.896484 3.65625l3.125 -0.484375q0.265625 1.875 1.46875 2.875q1.203125 1.0 3.375 1.0q2.171875 0 3.21875 -0.875q1.0625 -0.890625 1.0625 -2.09375q0 -1.0625 -0.9375 -1.6875q-0.640625 -0.421875 -3.234375 -1.0625q-3.46875 -0.890625 -4.8125 -1.53125q-1.34375 -0.640625 -2.046875 -1.765625q-0.6875 -1.140625 -0.6875 -2.515625q0 -1.234375 0.5625 -2.296875q0.578125 -1.078125 1.5625 -1.78125q0.734375 -0.53125 2.0 -0.90625q1.28125 -0.390625 2.75 -0.390625q2.1875 0 3.84375 0.640625q1.671875 0.625 2.453125 1.71875q0.796875 1.078125 1.09375 2.875l-3.09375 0.421875q-0.203125 -1.4375 -1.21875 -2.234375q-1.015625 -0.8125 -2.859375 -0.8125q-2.171875 0 -3.109375 0.71875q-0.9375 0.71875 -0.9375 1.6875q0 0.609375 0.390625 1.109375q0.390625 0.5 1.21875 0.84375q0.46875 0.171875 2.796875 0.796875q3.359375 0.90625 4.671875 1.484375q1.328125 0.5625 2.078125 1.65625q0.765625 1.078125 0.765625 2.703125q0 1.578125 -0.921875 2.984375q-0.921875 1.390625 -2.671875 2.15625q-1.734375 0.765625 -3.921875 0.765625q-3.640625 0 -5.546875 -1.515625q-1.90625 -1.515625 -2.4375 -4.484375z" fill-rule="nonzero"/><path fill="#eeeeee" d="m533.89777 294.84778l159.76093 -159.70363l-7.881897 -7.8818893l31.530396 0.0028305054l-0.0028076172 31.524734l-7.881897 -7.881897l-159.76093 159.70361z" fill-rule="evenodd"/><path stroke="#595959" stroke-width="1.0" stroke-linejoin="round" stroke-linecap="butt" d="m533.89777 294.84778l159.76093 -159.70363l-7.881897 -7.8818893l31.530396 0.0028305054l-0.0028076172 31.524734l-7.881897 -7.881897l-159.76093 159.70361z" fill-rule="evenodd"/><path fill="#eeeeee" d="m242.28084 573.3491l150.27898 -150.19345l-7.881897 -7.881897l31.532074 0.004486084l-0.004486084 31.523071l-7.881897 -7.8818665l-150.27899 150.19345z" fill-rule="evenodd"/><path stroke="#595959" stroke-width="1.0" stroke-linejoin="round" stroke-linecap="butt" d="m242.28084 573.3491l150.27898 -150.19345l-7.881897 -7.881897l31.532074 0.004486084l-0.004486084 31.523071l-7.881897 -7.8818665l-150.27899 150.19345z" fill-rule="evenodd"/><path fill="#000000" d="m296.91602 499.92914l0 0c0 -18.864655 15.292816 -34.15747 34.15747 -34.15747l0 0c9.059143 0 17.747223 3.5987244 24.152985 10.004486c6.4057617 6.4057617 10.004486 15.093842 10.004486 24.152985l0 0c0 18.864624 -15.292816 34.15747 -34.15747 34.15747l0 0c-18.864655 0 -34.15747 -15.292847 -34.15747 -34.15747z" fill-rule="evenodd"/><path fill="#ffffff" d="m338.483 520.4691l-7.859375 0l0 -29.640625q-4.3125 4.03125 -10.171875 5.953125l0 -7.125q3.078125 -1.015625 6.6875 -3.828125q3.609375 -2.8125 4.953125 -6.5625l6.390625 0l0 41.203125z" fill-rule="nonzero"/><path fill="#000000" d="m566.19684 250.48819l0 0c0 -18.864655 15.292847 -34.157486 34.15747 -34.157486l0 0c9.059143 0 17.747253 3.5987244 24.153015 10.004501c6.4057617 6.4057617 10.004517 15.093857 10.004517 24.152985l0 0c0 18.864655 -15.292847 34.15747 -34.15753 34.15747l0 0c-18.864624 0 -34.15747 -15.292816 -34.15747 -34.15747z" fill-rule="evenodd"/><path fill="#ffffff" d="m614.20135 263.7157l0 7.3125l-27.578125 0q0.453125 -4.140625 2.6875 -7.84375q2.25 -3.71875 8.84375 -9.843765q5.328125 -4.953125 6.53125 -6.71875q1.625 -2.4375 1.625 -4.8125q0 -2.640625 -1.421875 -4.046875q-1.40625 -1.421875 -3.90625 -1.421875q-2.453125 0 -3.921875 1.484375q-1.453125 1.484375 -1.671875 4.9375l-7.84375 -0.796875q0.703125 -6.484375 4.390625 -9.3125q3.703125 -2.828125 9.25 -2.828125q6.078125 0 9.546875 3.28125q3.46875 3.265625 3.46875 8.140625q0 2.765625 -1.0 5.28125q-0.984375 2.5 -3.140625 5.234375q-1.4375 1.828125 -5.15625 5.2500153q-3.71875 3.40625 -4.71875 4.53125q-0.984375 1.109375 -1.609375 2.171875l15.625 0z" fill-rule="nonzero"/><path fill="#00ff00" d="m767.0184 73.81628l0 0c0 -26.196564 21.236511 -47.433075 47.433044 -47.433075l82.74017 0l0 0c12.580017 0 24.644836 4.9973984 33.540283 13.892826c8.895386 8.895424 13.892822 20.960213 13.892822 33.54025l0 0l0 0c0 26.196556 -21.236511 47.433067 -47.433105 47.433067l-82.74017 0l0 0c-26.196533 0 -47.433044 -21.236511 -47.433044 -47.433067z" fill-rule="evenodd"/><path stroke="#595959" stroke-width="1.0" stroke-linejoin="round" stroke-linecap="butt" d="m767.0184 73.81628l0 0c0 -26.196564 21.236511 -47.433075 47.433044 -47.433075l82.74017 0l0 0c12.580017 0 24.644836 4.9973984 33.540283 13.892826c8.895386 8.895424 13.892822 20.960213 13.892822 33.54025l0 0l0 0c0 26.196556 -21.236511 47.433067 -47.433105 47.433067l-82.74017 0l0 0c-26.196533 0 -47.433044 -21.236511 -47.433044 -47.433067z" fill-rule="evenodd"/><path fill="#000000" d="m793.35974 67.416275l0 -19.078129l3.859375 0l0 7.5l7.546875 0l0 -7.5l3.84375 0l0 19.078129l-3.84375 0l0 -8.343754l-7.546875 0l0 8.343754l-3.859375 0zm21.937744 -9.609379l-3.3125 -0.59375q0.5625 -2.0 1.921875 -2.96875q1.375 -0.96875 4.0625 -0.96875q2.453125 0 3.640625 0.578125q1.203125 0.578125 1.6875 1.484375q0.5 0.890625 0.5 3.265625l-0.046875 4.265625q0 1.8281288 0.171875 2.7031288q0.171875 0.859375 0.65625 1.84375l-3.609375 0q-0.140625 -0.359375 -0.359375 -1.078125q-0.09375 -0.328125 -0.125 -0.4375q-0.9375 0.921875 -2.015625 1.375q-1.0625 0.453125 -2.265625 0.453125q-2.140625 0 -3.375 -1.15625q-1.21875 -1.15625 -1.21875 -2.9375038q0 -1.171875 0.546875 -2.078125q0.5625 -0.921875 1.578125 -1.40625q1.015625 -0.484375 2.90625 -0.859375q2.5625 -0.484375 3.5625 -0.890625l0 -0.375q0 -1.046875 -0.53125 -1.5q-0.515625 -0.453125 -1.96875 -0.453125q-0.96875 0 -1.515625 0.390625q-0.546875 0.390625 -0.890625 1.34375zm4.90625 2.96875q-0.703125 0.234375 -2.234375 0.5625q-1.515625 0.328125 -1.984375 0.640625q-0.71875 0.5 -0.71875 1.28125q0 0.7656288 0.5625 1.3281288q0.578125 0.5625 1.46875 0.5625q0.984375 0 1.890625 -0.65625q0.65625 -0.484375 0.859375 -1.2031288q0.15625 -0.46875 0.15625 -1.78125l0 -0.734375zm19.762451 6.640629l-3.65625 0l0 -7.046879q0 -2.25 -0.234375 -2.90625q-0.234375 -0.65625 -0.765625 -1.015625q-0.515625 -0.375 -1.265625 -0.375q-0.953125 0 -1.703125 0.53125q-0.75 0.515625 -1.03125 1.375q-0.28125 0.859375 -0.28125 3.171875l0 6.265629l-3.65625 0l0 -13.828129l3.390625 0l0 2.03125q1.8125 -2.34375 4.5625 -2.34375q1.203125 0 2.203125 0.4375q1.015625 0.4375 1.515625 1.125q0.515625 0.671875 0.71875 1.53125q0.203125 0.859375 0.203125 2.453125l0 8.593754zm16.39209 0l-3.40625 0l0 -2.03125q-0.84375 1.1875 -2.0 1.765625q-1.140625 0.578125 -2.3125 0.578125q-2.390625 0 -4.09375 -1.921875q-1.6875 -1.9218788 -1.6875 -5.359379q0 -3.515625 1.65625 -5.34375q1.65625 -1.828125 4.171875 -1.828125q2.3125 0 4.015625 1.9375l0 -6.875l3.65625 0l0 19.078129zm-9.765625 -7.203129q0 2.203125 0.609375 3.1875q0.890625 1.4375038 2.46875 1.4375038q1.265625 0 2.15625 -1.0625038q0.890625 -1.078125 0.890625 -3.21875q0 -2.375 -0.859375 -3.421875q-0.859375 -1.0625 -2.203125 -1.0625q-1.296875 0 -2.1875 1.046875q-0.875 1.03125 -0.875 3.09375zm12.07959 3.265625l3.671875 -0.5625q0.234375 1.0625 0.953125 1.6250038q0.71875 0.546875 2.0 0.546875q1.421875 0 2.140625 -0.515625q0.46875 -0.375 0.46875 -0.9843788q0 -0.421875 -0.25 -0.6875q-0.28125 -0.265625 -1.234375 -0.484375q-4.421875 -0.96875 -5.609375 -1.78125q-1.640625 -1.125 -1.640625 -3.109375q0 -1.796875 1.421875 -3.015625q1.421875 -1.234375 4.40625 -1.234375q2.828125 0 4.203125 0.9375q1.390625 0.921875 1.90625 2.71875l-3.4375 0.640625q-0.234375 -0.796875 -0.859375 -1.21875q-0.609375 -0.4375 -1.75 -0.4375q-1.4375 0 -2.0625 0.390625q-0.421875 0.296875 -0.421875 0.75q0 0.390625 0.359375 0.65625q0.5 0.375 3.421875 1.046875q2.921875 0.65625 4.078125 1.609375q1.140625 0.984375 1.140625 2.71875q0 1.9062538 -1.59375 3.2812538q-1.578125 1.359375 -4.6875 1.359375q-2.828125 0 -4.484375 -1.140625q-1.640625 -1.15625 -2.140625 -3.1093788zm15.69989 -1.15625l0 -3.65625l7.1875 0l0 3.65625l-7.1875 0zm8.53302 -4.328125q0 -2.921875 0.875 -4.890625q0.65625 -1.46875 1.78125 -2.625q1.125 -1.15625 2.46875 -1.71875q1.78125 -0.75 4.109375 -0.75q4.21875 0 6.75 2.625q2.53125 2.609375 2.53125 7.265625q0 4.625 -2.515625 7.234379q-2.515625 2.609375 -6.71875 2.609375q-4.25 0 -6.765625 -2.59375q-2.515625 -2.6093788 -2.515625 -7.156254zm3.96875 -0.125q0 3.234375 1.5 4.90625q1.5 1.6718788 3.796875 1.6718788q2.3125 0 3.78125 -1.6562538q1.484375 -1.65625 1.484375 -4.984375q0 -3.28125 -1.4375 -4.890625q-1.4375 -1.609375 -3.828125 -1.609375q-2.375 0 -3.84375 1.640625q-1.453125 1.625 -1.453125 4.921875zm15.92157 -4.28125l2.03125 0l0 -1.03125q0 -1.75 0.359375 -2.609375q0.375 -0.859375 1.375 -1.390625q1.0 -0.546875 2.515625 -0.546875q1.5625 0 3.0625 0.46875l-0.5 2.546875q-0.859375 -0.203125 -1.671875 -0.203125q-0.796875 0 -1.140625 0.375q-0.34375 0.359375 -0.34375 1.421875l0 0.96875l2.734375 0l0 2.875l-2.734375 0l0 10.953129l-3.65625 0l0 -10.953129l-2.03125 0l0 -2.875zm8.87677 0l2.03125 0l0 -1.03125q0 -1.75 0.359375 -2.609375q0.375 -0.859375 1.375 -1.390625q1.0 -0.546875 2.515625 -0.546875q1.5625 0 3.0625 0.46875l-0.5 2.546875q-0.859375 -0.203125 -1.671875 -0.203125q-0.796875 0 -1.140625 0.375q-0.34375 0.359375 -0.34375 1.421875l0 0.96875l2.734375 0l0 2.875l-2.734375 0l0 10.953129l-3.65625 0l0 -10.953129l-2.03125 0l0 -2.875z" fill-rule="nonzero"/><path fill="#000000" d="m831.0569 89.99439q0 -2.921875 0.875 -4.890625q0.65625 -1.46875 1.78125 -2.625q1.125 -1.15625 2.46875 -1.71875q1.78125 -0.75 4.109375 -0.75q4.21875 0 6.75 2.625q2.53125 2.609375 2.53125 7.265625q0 4.625 -2.515625 7.234375q-2.515625 2.609375 -6.71875 2.609375q-4.25 0 -6.765625 -2.59375q-2.515625 -2.609375 -2.515625 -7.15625zm3.96875 -0.125q0 3.234375 1.5 4.90625q1.5 1.671875 3.796875 1.671875q2.3125 0 3.78125 -1.65625q1.484375 -1.65625 1.484375 -4.984375q0 -3.28125 -1.4375 -4.890625q-1.4375 -1.609375 -3.828125 -1.609375q-2.375 0 -3.84375 1.640625q-1.453125 1.625 -1.453125 4.921875zm17.42163 -4.28125l3.40625 0l0 2.03125q0.671875 -1.03125 1.796875 -1.6875q1.125 -0.65625 2.515625 -0.65625q2.40625 0 4.078125 1.890625q1.6875 1.890625 1.6875 5.265625q0 3.453125 -1.703125 5.375q-1.6875 1.921875 -4.09375 1.921875q-1.140625 0 -2.078125 -0.453125q-0.921875 -0.453125 -1.953125 -1.5625l0 6.96875l-3.65625 0l0 -19.09375zm3.609375 6.6875q0 2.328125 0.921875 3.4375q0.9375 1.109375 2.265625 1.109375q1.265625 0 2.109375 -1.015625q0.859375 -1.03125 0.859375 -3.359375q0 -2.171875 -0.875 -3.21875q-0.875 -1.0625 -2.171875 -1.0625q-1.328125 0 -2.21875 1.046875q-0.890625 1.03125 -0.890625 3.0625zm11.485779 3.203125l3.671875 -0.5625q0.234375 1.0625 0.953125 1.625q0.71875 0.546875 2.0 0.546875q1.421875 0 2.140625 -0.515625q0.46875 -0.375 0.46875 -0.984375q0 -0.421875 -0.25 -0.6875q-0.28125 -0.265625 -1.234375 -0.484375q-4.421875 -0.96875 -5.609375 -1.78125q-1.640625 -1.125 -1.640625 -3.109375q0 -1.796875 1.421875 -3.015625q1.421875 -1.234375 4.40625 -1.234375q2.828125 0 4.203125 0.9375q1.390625 0.921875 1.90625 2.71875l-3.4375 0.640625q-0.234375 -0.796875 -0.859375 -1.21875q-0.609375 -0.4375 -1.75 -0.4375q-1.4375 0 -2.0625 0.390625q-0.421875 0.296875 -0.421875 0.75q0 0.390625 0.359375 0.65625q0.5 0.375 3.421875 1.046875q2.921875 0.65625 4.078125 1.609375q1.140625 0.984375 1.140625 2.71875q0 1.90625 -1.59375 3.28125q-1.578125 1.359375 -4.6875 1.359375q-2.828125 0 -4.484375 -1.140625q-1.640625 -1.15625 -2.140625 -3.109375z" fill-rule="nonzero"/><path fill="#ffffff" d="m587.19684 188.7559l0 0c0 -15.229141 12.345642 -27.574799 27.57483 -27.574799l102.42517 0l0 0c7.3132935 0 14.327087 2.9051971 19.498352 8.076462c5.1712646 5.17128 8.076477 12.185043 8.076477 19.498337l0 0l0 0c0 15.229141 -12.345703 27.574799 -27.57483 27.574799l-102.42517 0c-15.229187 0 -27.57483 -12.345657 -27.57483 -27.574799z" fill-rule="evenodd"/><path fill="#000000" d="m624.8153 191.70653l0 -3.015625l10.90625 -0.03125l0 9.5625q-2.515625 2.015625 -5.1875 3.03125q-2.671875 1.0 -5.484375 1.0q-3.796875 0 -6.90625 -1.625q-3.09375 -1.625 -4.671875 -4.703125q-1.578125 -3.078125 -1.578125 -6.875q0 -3.765625 1.5625 -7.015625q1.578125 -3.265625 4.53125 -4.84375q2.953125 -1.578125 6.796875 -1.578125q2.796875 0 5.046875 0.90625q2.265625 0.890625 3.546875 2.515625q1.296875 1.609375 1.953125 4.21875l-3.0625 0.84375q-0.59375 -1.96875 -1.453125 -3.09375q-0.859375 -1.125 -2.46875 -1.796875q-1.59375 -0.6875 -3.53125 -0.6875q-2.34375 0 -4.046875 0.71875q-1.703125 0.703125 -2.75 1.875q-1.046875 1.15625 -1.625 2.546875q-0.984375 2.390625 -0.984375 5.1875q0 3.4375 1.1875 5.765625q1.1875 2.3125 3.453125 3.4375q2.265625 1.125 4.8125 1.125q2.21875 0 4.328125 -0.84375q2.109375 -0.859375 3.1875 -1.828125l0 -4.796875l-7.5625 0zm15.548828 -12.015625l0 -3.640625l3.171875 0l0 3.640625l-3.171875 0zm0 22.125l0 -18.671875l3.171875 0l0 18.671875l-3.171875 0zm14.888672 -2.828125l0.453125 2.796875q-1.328125 0.28125 -2.390625 0.28125q-1.71875 0 -2.671875 -0.546875q-0.9375 -0.546875 -1.328125 -1.4375q-0.390625 -0.890625 -0.390625 -3.734375l0 -10.734375l-2.3125 0l0 -2.46875l2.3125 0l0 -4.625l3.140625 -1.890625l0 6.515625l3.1875 0l0 2.46875l-3.1875 0l0 10.90625q0 1.359375 0.171875 1.75q0.171875 0.375 0.546875 0.609375q0.375 0.234375 1.078125 0.234375q0.53125 0 1.390625 -0.125zm2.4550781 -9.71875q0 -6.421875 3.4375 -10.046875q3.453125 -3.640625 8.90625 -3.640625q3.578125 0 6.4375 1.71875q2.859375 1.703125 4.359375 4.75q1.515625 3.046875 1.515625 6.921875q0 3.90625 -1.59375 7.0q-1.578125 3.09375 -4.484375 4.6875q-2.890625 1.59375 -6.25 1.59375q-3.640625 0 -6.515625 -1.75q-2.859375 -1.765625 -4.34375 -4.796875q-1.46875 -3.046875 -1.46875 -6.4375zm3.515625 0.046875q0 4.65625 2.5 7.34375q2.515625 2.671875 6.296875 2.671875q3.84375 0 6.328125 -2.703125q2.5 -2.703125 2.5 -7.6875q0 -3.140625 -1.0625 -5.484375q-1.0625 -2.34375 -3.125 -3.640625q-2.046875 -1.296875 -4.59375 -1.296875q-3.609375 0 -6.234375 2.5q-2.609375 2.484375 -2.609375 8.296875zm25.126953 19.65625l0 -25.828125l2.875 0l0 2.421875q1.03125 -1.421875 2.3125 -2.125q1.28125 -0.71875 3.109375 -0.71875q2.390625 0 4.21875 1.234375q1.828125 1.234375 2.75 3.484375q0.9375 2.234375 0.9375 4.90625q0 2.859375 -1.03125 5.15625q-1.015625 2.296875 -2.984375 3.515625q-1.953125 1.21875 -4.125 1.21875q-1.578125 0 -2.84375 -0.671875q-1.25 -0.671875 -2.0625 -1.6875l0 9.09375l-3.15625 0zm2.859375 -16.390625q0 3.609375 1.453125 5.328125q1.46875 1.71875 3.546875 1.71875q2.109375 0 3.609375 -1.78125q1.5 -1.78125 1.5 -5.53125q0 -3.5625 -1.46875 -5.328125q-1.46875 -1.78125 -3.5 -1.78125q-2.03125 0 -3.59375 1.890625q-1.546875 1.890625 -1.546875 5.484375zm15.896484 3.65625l3.125 -0.484375q0.265625 1.875 1.46875 2.875q1.203125 1.0 3.375 1.0q2.171875 0 3.21875 -0.875q1.0625 -0.890625 1.0625 -2.09375q0 -1.0625 -0.9375 -1.6875q-0.640625 -0.421875 -3.234375 -1.0625q-3.46875 -0.890625 -4.8125 -1.53125q-1.34375 -0.640625 -2.046875 -1.765625q-0.6875 -1.140625 -0.6875 -2.515625q0 -1.234375 0.5625 -2.296875q0.578125 -1.078125 1.5625 -1.78125q0.734375 -0.53125 2.0 -0.90625q1.28125 -0.390625 2.75 -0.390625q2.1875 0 3.84375 0.640625q1.671875 0.625 2.453125 1.71875q0.796875 1.078125 1.09375 2.875l-3.09375 0.421875q-0.203125 -1.4375 -1.21875 -2.234375q-1.015625 -0.8125 -2.859375 -0.8125q-2.171875 0 -3.109375 0.71875q-0.9375 0.71875 -0.9375 1.6875q0 0.609375 0.390625 1.109375q0.390625 0.5 1.21875 0.84375q0.46875 0.171875 2.796875 0.796875q3.359375 0.90625 4.671875 1.484375q1.328125 0.5625 2.078125 1.65625q0.765625 1.078125 0.765625 2.703125q0 1.578125 -0.921875 2.984375q-0.921875 1.390625 -2.671875 2.15625q-1.734375 0.765625 -3.921875 0.765625q-3.640625 0 -5.546875 -1.515625q-1.90625 -1.515625 -2.4375 -4.484375z" fill-rule="nonzero"/></g></svg>