<?xml version="1.0" encoding="utf-8"?>
<svg xmlns="http://www.w3.org/2000/svg" xmlns:xlink="http://www.w3.org/1999/xlink" xml:space="preserve" width="1063.75" height="1241.0416666667" viewBox="0 0 1063.75 1241.0416666667"><g transform="scale(44.322916666667)" fill="#ffffff"><path d="M22.7,0H1.3C0.6,0,0,0.6,0,1.3v25.3C0,27.4,0.6,28,1.3,28h21.3c0.7,0,1.3-0.6,1.3-1.3V1.3C24,0.6,23.4,0,22.7,0 z M23,22c0,0.6-0.5,1-1,1H2c-0.6,0-1-0.5-1-1V2c0-0.6,0.5-1,1-1h20c0.6,0,1,0.5,1,1V22z"/></g><g fill="#ffffff">
<g transform="translate(313.375,106.375) scale(3.9483333333333)"><rect width="6" height="6"/></g>
<g transform="translate(359.375,106.375) scale(3.9483333333333)"><rect width="6" height="6"/></g>
<g transform="translate(382.375,106.375) scale(3.9483333333333)"><rect width="6" height="6"/></g>
<g transform="translate(405.375,106.375) scale(3.9483333333333)"><rect width="6" height="6"/></g>
<g transform="translate(451.375,106.375) scale(3.9483333333333)"><rect width="6" height="6"/></g>
<g transform="translate(520.375,106.375) scale(3.9483333333333)"><rect width="6" height="6"/></g>
<g transform="translate(566.375,106.375) scale(3.9483333333333)"><rect width="6" height="6"/></g>
<g transform="translate(589.375,106.375) scale(3.9483333333333)"><rect width="6" height="6"/></g>
<g transform="translate(635.375,106.375) scale(3.9483333333333)"><rect width="6" height="6"/></g>
<g transform="translate(750.375,106.375) scale(3.9483333333333)"><rect width="6" height="6"/></g>
<g transform="translate(313.375,129.375) scale(3.9483333333333)"><rect width="6" height="6"/></g>
<g transform="translate(336.375,129.375) scale(3.9483333333333)"><rect width="6" height="6"/></g>
<g transform="translate(359.375,129.375) scale(3.9483333333333)"><rect width="6" height="6"/></g>
<g transform="translate(405.375,129.375) scale(3.9483333333333)"><rect width="6" height="6"/></g>
<g transform="translate(428.375,129.375) scale(3.9483333333333)"><rect width="6" height="6"/></g>
<g transform="translate(451.375,129.375) scale(3.9483333333333)"><rect width="6" height="6"/></g>
<g transform="translate(497.375,129.375) scale(3.9483333333333)"><rect width="6" height="6"/></g>
<g transform="translate(612.375,129.375) scale(3.9483333333333)"><rect width="6" height="6"/></g>
<g transform="translate(704.375,129.375) scale(3.9483333333333)"><rect width="6" height="6"/></g>
<g transform="translate(727.375,129.375) scale(3.9483333333333)"><rect width="6" height="6"/></g>
<g transform="translate(750.375,129.375) scale(3.9483333333333)"><rect width="6" height="6"/></g>
<g transform="translate(290.375,152.375) scale(3.9483333333333)"><rect width="6" height="6"/></g>
<g transform="translate(336.375,152.375) scale(3.9483333333333)"><rect width="6" height="6"/></g>
<g transform="translate(382.375,152.375) scale(3.9483333333333)"><rect width="6" height="6"/></g>
<g transform="translate(405.375,152.375) scale(3.9483333333333)"><rect width="6" height="6"/></g>
<g transform="translate(474.375,152.375) scale(3.9483333333333)"><rect width="6" height="6"/></g>
<g transform="translate(589.375,152.375) scale(3.9483333333333)"><rect width="6" height="6"/></g>
<g transform="translate(612.375,152.375) scale(3.9483333333333)"><rect width="6" height="6"/></g>
<g transform="translate(658.375,152.375) scale(3.9483333333333)"><rect width="6" height="6"/></g>
<g transform="translate(727.375,152.375) scale(3.9483333333333)"><rect width="6" height="6"/></g>
<g transform="translate(750.375,152.375) scale(3.9483333333333)"><rect width="6" height="6"/></g>
<g transform="translate(290.375,175.375) scale(3.9483333333333)"><rect width="6" height="6"/></g>
<g transform="translate(313.375,175.375) scale(3.9483333333333)"><rect width="6" height="6"/></g>
<g transform="translate(336.375,175.375) scale(3.9483333333333)"><rect width="6" height="6"/></g>
<g transform="translate(382.375,175.375) scale(3.9483333333333)"><rect width="6" height="6"/></g>
<g transform="translate(428.375,175.375) scale(3.9483333333333)"><rect width="6" height="6"/></g>
<g transform="translate(451.375,175.375) scale(3.9483333333333)"><rect width="6" height="6"/></g>
<g transform="translate(497.375,175.375) scale(3.9483333333333)"><rect width="6" height="6"/></g>
<g transform="translate(612.375,175.375) scale(3.9483333333333)"><rect width="6" height="6"/></g>
<g transform="translate(658.375,175.375) scale(3.9483333333333)"><rect width="6" height="6"/></g>
<g transform="translate(681.375,175.375) scale(3.9483333333333)"><rect width="6" height="6"/></g>
<g transform="translate(704.375,175.375) scale(3.9483333333333)"><rect width="6" height="6"/></g>
<g transform="translate(750.375,175.375) scale(3.9483333333333)"><rect width="6" height="6"/></g>
<g transform="translate(290.375,198.375) scale(3.9483333333333)"><rect width="6" height="6"/></g>
<g transform="translate(336.375,198.375) scale(3.9483333333333)"><rect width="6" height="6"/></g>
<g transform="translate(359.375,198.375) scale(3.9483333333333)"><rect width="6" height="6"/></g>
<g transform="translate(382.375,198.375) scale(3.9483333333333)"><rect width="6" height="6"/></g>
<g transform="translate(451.375,198.375) scale(3.9483333333333)"><rect width="6" height="6"/></g>
<g transform="translate(520.375,198.375) scale(3.9483333333333)"><rect width="6" height="6"/></g>
<g transform="translate(543.375,198.375) scale(3.9483333333333)"><rect width="6" height="6"/></g>
<g transform="translate(566.375,198.375) scale(3.9483333333333)"><rect width="6" height="6"/></g>
<g transform="translate(612.375,198.375) scale(3.9483333333333)"><rect width="6" height="6"/></g>
<g transform="translate(635.375,198.375) scale(3.9483333333333)"><rect width="6" height="6"/></g>
<g transform="translate(704.375,198.375) scale(3.9483333333333)"><rect width="6" height="6"/></g>
<g transform="translate(750.375,198.375) scale(3.9483333333333)"><rect width="6" height="6"/></g>
<g transform="translate(290.375,221.375) scale(3.9483333333333)"><rect width="6" height="6"/></g>
<g transform="translate(336.375,221.375) scale(3.9483333333333)"><rect width="6" height="6"/></g>
<g transform="translate(382.375,221.375) scale(3.9483333333333)"><rect width="6" height="6"/></g>
<g transform="translate(451.375,221.375) scale(3.9483333333333)"><rect width="6" height="6"/></g>
<g transform="translate(497.375,221.375) scale(3.9483333333333)"><rect width="6" height="6"/></g>
<g transform="translate(520.375,221.375) scale(3.9483333333333)"><rect width="6" height="6"/></g>
<g transform="translate(566.375,221.375) scale(3.9483333333333)"><rect width="6" height="6"/></g>
<g transform="translate(589.375,221.375) scale(3.9483333333333)"><rect width="6" height="6"/></g>
<g transform="translate(612.375,221.375) scale(3.9483333333333)"><rect width="6" height="6"/></g>
<g transform="translate(681.375,221.375) scale(3.9483333333333)"><rect width="6" height="6"/></g>
<g transform="translate(704.375,221.375) scale(3.9483333333333)"><rect width="6" height="6"/></g>
<g transform="translate(727.375,221.375) scale(3.9483333333333)"><rect width="6" height="6"/></g>
<g transform="translate(750.375,221.375) scale(3.9483333333333)"><rect width="6" height="6"/></g>
<g transform="translate(290.375,244.375) scale(3.9483333333333)"><rect width="6" height="6"/></g>
<g transform="translate(336.375,244.375) scale(3.9483333333333)"><rect width="6" height="6"/></g>
<g transform="translate(382.375,244.375) scale(3.9483333333333)"><rect width="6" height="6"/></g>
<g transform="translate(428.375,244.375) scale(3.9483333333333)"><rect width="6" height="6"/></g>
<g transform="translate(474.375,244.375) scale(3.9483333333333)"><rect width="6" height="6"/></g>
<g transform="translate(520.375,244.375) scale(3.9483333333333)"><rect width="6" height="6"/></g>
<g transform="translate(566.375,244.375) scale(3.9483333333333)"><rect width="6" height="6"/></g>
<g transform="translate(612.375,244.375) scale(3.9483333333333)"><rect width="6" height="6"/></g>
<g transform="translate(658.375,244.375) scale(3.9483333333333)"><rect width="6" height="6"/></g>
<g transform="translate(704.375,244.375) scale(3.9483333333333)"><rect width="6" height="6"/></g>
<g transform="translate(750.375,244.375) scale(3.9483333333333)"><rect width="6" height="6"/></g>
<g transform="translate(290.375,267.375) scale(3.9483333333333)"><rect width="6" height="6"/></g>
<g transform="translate(313.375,267.375) scale(3.9483333333333)"><rect width="6" height="6"/></g>
<g transform="translate(382.375,267.375) scale(3.9483333333333)"><rect width="6" height="6"/></g>
<g transform="translate(405.375,267.375) scale(3.9483333333333)"><rect width="6" height="6"/></g>
<g transform="translate(451.375,267.375) scale(3.9483333333333)"><rect width="6" height="6"/></g>
<g transform="translate(520.375,267.375) scale(3.9483333333333)"><rect width="6" height="6"/></g>
<g transform="translate(543.375,267.375) scale(3.9483333333333)"><rect width="6" height="6"/></g>
<g transform="translate(566.375,267.375) scale(3.9483333333333)"><rect width="6" height="6"/></g>
<g transform="translate(589.375,267.375) scale(3.9483333333333)"><rect width="6" height="6"/></g>
<g transform="translate(635.375,267.375) scale(3.9483333333333)"><rect width="6" height="6"/></g>
<g transform="translate(727.375,267.375) scale(3.9483333333333)"><rect width="6" height="6"/></g>
<g transform="translate(106.375,290.375) scale(3.9483333333333)"><rect width="6" height="6"/></g>
<g transform="translate(152.375,290.375) scale(3.9483333333333)"><rect width="6" height="6"/></g>
<g transform="translate(175.375,290.375) scale(3.9483333333333)"><rect width="6" height="6"/></g>
<g transform="translate(198.375,290.375) scale(3.9483333333333)"><rect width="6" height="6"/></g>
<g transform="translate(221.375,290.375) scale(3.9483333333333)"><rect width="6" height="6"/></g>
<g transform="translate(244.375,290.375) scale(3.9483333333333)"><rect width="6" height="6"/></g>
<g transform="translate(336.375,290.375) scale(3.9483333333333)"><rect width="6" height="6"/></g>
<g transform="translate(428.375,290.375) scale(3.9483333333333)"><rect width="6" height="6"/></g>
<g transform="translate(520.375,290.375) scale(3.9483333333333)"><rect width="6" height="6"/></g>
<g transform="translate(543.375,290.375) scale(3.9483333333333)"><rect width="6" height="6"/></g>
<g transform="translate(612.375,290.375) scale(3.9483333333333)"><rect width="6" height="6"/></g>
<g transform="translate(635.375,290.375) scale(3.9483333333333)"><rect width="6" height="6"/></g>
<g transform="translate(658.375,290.375) scale(3.9483333333333)"><rect width="6" height="6"/></g>
<g transform="translate(681.375,290.375) scale(3.9483333333333)"><rect width="6" height="6"/></g>
<g transform="translate(704.375,290.375) scale(3.9483333333333)"><rect width="6" height="6"/></g>
<g transform="translate(796.375,290.375) scale(3.9483333333333)"><rect width="6" height="6"/></g>
<g transform="translate(819.375,290.375) scale(3.9483333333333)"><rect width="6" height="6"/></g>
<g transform="translate(842.375,290.375) scale(3.9483333333333)"><rect width="6" height="6"/></g>
<g transform="translate(865.375,290.375) scale(3.9483333333333)"><rect width="6" height="6"/></g>
<g transform="translate(888.375,290.375) scale(3.9483333333333)"><rect width="6" height="6"/></g>
<g transform="translate(129.375,313.375) scale(3.9483333333333)"><rect width="6" height="6"/></g>
<g transform="translate(198.375,313.375) scale(3.9483333333333)"><rect width="6" height="6"/></g>
<g transform="translate(267.375,313.375) scale(3.9483333333333)"><rect width="6" height="6"/></g>
<g transform="translate(359.375,313.375) scale(3.9483333333333)"><rect width="6" height="6"/></g>
<g transform="translate(382.375,313.375) scale(3.9483333333333)"><rect width="6" height="6"/></g>
<g transform="translate(405.375,313.375) scale(3.9483333333333)"><rect width="6" height="6"/></g>
<g transform="translate(428.375,313.375) scale(3.9483333333333)"><rect width="6" height="6"/></g>
<g transform="translate(451.375,313.375) scale(3.9483333333333)"><rect width="6" height="6"/></g>
<g transform="translate(497.375,313.375) scale(3.9483333333333)"><rect width="6" height="6"/></g>
<g transform="translate(520.375,313.375) scale(3.9483333333333)"><rect width="6" height="6"/></g>
<g transform="translate(589.375,313.375) scale(3.9483333333333)"><rect width="6" height="6"/></g>
<g transform="translate(635.375,313.375) scale(3.9483333333333)"><rect width="6" height="6"/></g>
<g transform="translate(681.375,313.375) scale(3.9483333333333)"><rect width="6" height="6"/></g>
<g transform="translate(819.375,313.375) scale(3.9483333333333)"><rect width="6" height="6"/></g>
<g transform="translate(865.375,313.375) scale(3.9483333333333)"><rect width="6" height="6"/></g>
<g transform="translate(888.375,313.375) scale(3.9483333333333)"><rect width="6" height="6"/></g>
<g transform="translate(911.375,313.375) scale(3.9483333333333)"><rect width="6" height="6"/></g>
<g transform="translate(129.375,336.375) scale(3.9483333333333)"><rect width="6" height="6"/></g>
<g transform="translate(152.375,336.375) scale(3.9483333333333)"><rect width="6" height="6"/></g>
<g transform="translate(198.375,336.375) scale(3.9483333333333)"><rect width="6" height="6"/></g>
<g transform="translate(221.375,336.375) scale(3.9483333333333)"><rect width="6" height="6"/></g>
<g transform="translate(244.375,336.375) scale(3.9483333333333)"><rect width="6" height="6"/></g>
<g transform="translate(267.375,336.375) scale(3.9483333333333)"><rect width="6" height="6"/></g>
<g transform="translate(290.375,336.375) scale(3.9483333333333)"><rect width="6" height="6"/></g>
<g transform="translate(313.375,336.375) scale(3.9483333333333)"><rect width="6" height="6"/></g>
<g transform="translate(336.375,336.375) scale(3.9483333333333)"><rect width="6" height="6"/></g>
<g transform="translate(359.375,336.375) scale(3.9483333333333)"><rect width="6" height="6"/></g>
<g transform="translate(428.375,336.375) scale(3.9483333333333)"><rect width="6" height="6"/></g>
<g transform="translate(451.375,336.375) scale(3.9483333333333)"><rect width="6" height="6"/></g>
<g transform="translate(474.375,336.375) scale(3.9483333333333)"><rect width="6" height="6"/></g>
<g transform="translate(520.375,336.375) scale(3.9483333333333)"><rect width="6" height="6"/></g>
<g transform="translate(566.375,336.375) scale(3.9483333333333)"><rect width="6" height="6"/></g>
<g transform="translate(589.375,336.375) scale(3.9483333333333)"><rect width="6" height="6"/></g>
<g transform="translate(612.375,336.375) scale(3.9483333333333)"><rect width="6" height="6"/></g>
<g transform="translate(658.375,336.375) scale(3.9483333333333)"><rect width="6" height="6"/></g>
<g transform="translate(727.375,336.375) scale(3.9483333333333)"><rect width="6" height="6"/></g>
<g transform="translate(750.375,336.375) scale(3.9483333333333)"><rect width="6" height="6"/></g>
<g transform="translate(796.375,336.375) scale(3.9483333333333)"><rect width="6" height="6"/></g>
<g transform="translate(819.375,336.375) scale(3.9483333333333)"><rect width="6" height="6"/></g>
<g transform="translate(865.375,336.375) scale(3.9483333333333)"><rect width="6" height="6"/></g>
<g transform="translate(911.375,336.375) scale(3.9483333333333)"><rect width="6" height="6"/></g>
<g transform="translate(934.375,336.375) scale(3.9483333333333)"><rect width="6" height="6"/></g>
<g transform="translate(106.375,359.375) scale(3.9483333333333)"><rect width="6" height="6"/></g>
<g transform="translate(175.375,359.375) scale(3.9483333333333)"><rect width="6" height="6"/></g>
<g transform="translate(198.375,359.375) scale(3.9483333333333)"><rect width="6" height="6"/></g>
<g transform="translate(221.375,359.375) scale(3.9483333333333)"><rect width="6" height="6"/></g>
<g transform="translate(313.375,359.375) scale(3.9483333333333)"><rect width="6" height="6"/></g>
<g transform="translate(336.375,359.375) scale(3.9483333333333)"><rect width="6" height="6"/></g>
<g transform="translate(359.375,359.375) scale(3.9483333333333)"><rect width="6" height="6"/></g>
<g transform="translate(428.375,359.375) scale(3.9483333333333)"><rect width="6" height="6"/></g>
<g transform="translate(543.375,359.375) scale(3.9483333333333)"><rect width="6" height="6"/></g>
<g transform="translate(566.375,359.375) scale(3.9483333333333)"><rect width="6" height="6"/></g>
<g transform="translate(589.375,359.375) scale(3.9483333333333)"><rect width="6" height="6"/></g>
<g transform="translate(612.375,359.375) scale(3.9483333333333)"><rect width="6" height="6"/></g>
<g transform="translate(704.375,359.375) scale(3.9483333333333)"><rect width="6" height="6"/></g>
<g transform="translate(750.375,359.375) scale(3.9483333333333)"><rect width="6" height="6"/></g>
<g transform="translate(773.375,359.375) scale(3.9483333333333)"><rect width="6" height="6"/></g>
<g transform="translate(819.375,359.375) scale(3.9483333333333)"><rect width="6" height="6"/></g>
<g transform="translate(842.375,359.375) scale(3.9483333333333)"><rect width="6" height="6"/></g>
<g transform="translate(934.375,359.375) scale(3.9483333333333)"><rect width="6" height="6"/></g>
<g transform="translate(106.375,382.375) scale(3.9483333333333)"><rect width="6" height="6"/></g>
<g transform="translate(152.375,382.375) scale(3.9483333333333)"><rect width="6" height="6"/></g>
<g transform="translate(221.375,382.375) scale(3.9483333333333)"><rect width="6" height="6"/></g>
<g transform="translate(244.375,382.375) scale(3.9483333333333)"><rect width="6" height="6"/></g>
<g transform="translate(290.375,382.375) scale(3.9483333333333)"><rect width="6" height="6"/></g>
<g transform="translate(313.375,382.375) scale(3.9483333333333)"><rect width="6" height="6"/></g>
<g transform="translate(405.375,382.375) scale(3.9483333333333)"><rect width="6" height="6"/></g>
<g transform="translate(428.375,382.375) scale(3.9483333333333)"><rect width="6" height="6"/></g>
<g transform="translate(451.375,382.375) scale(3.9483333333333)"><rect width="6" height="6"/></g>
<g transform="translate(474.375,382.375) scale(3.9483333333333)"><rect width="6" height="6"/></g>
<g transform="translate(497.375,382.375) scale(3.9483333333333)"><rect width="6" height="6"/></g>
<g transform="translate(658.375,382.375) scale(3.9483333333333)"><rect width="6" height="6"/></g>
<g transform="translate(681.375,382.375) scale(3.9483333333333)"><rect width="6" height="6"/></g>
<g transform="translate(727.375,382.375) scale(3.9483333333333)"><rect width="6" height="6"/></g>
<g transform="translate(773.375,382.375) scale(3.9483333333333)"><rect width="6" height="6"/></g>
<g transform="translate(796.375,382.375) scale(3.9483333333333)"><rect width="6" height="6"/></g>
<g transform="translate(842.375,382.375) scale(3.9483333333333)"><rect width="6" height="6"/></g>
<g transform="translate(865.375,382.375) scale(3.9483333333333)"><rect width="6" height="6"/></g>
<g transform="translate(888.375,382.375) scale(3.9483333333333)"><rect width="6" height="6"/></g>
<g transform="translate(911.375,382.375) scale(3.9483333333333)"><rect width="6" height="6"/></g>
<g transform="translate(934.375,382.375) scale(3.9483333333333)"><rect width="6" height="6"/></g>
<g transform="translate(106.375,405.375) scale(3.9483333333333)"><rect width="6" height="6"/></g>
<g transform="translate(129.375,405.375) scale(3.9483333333333)"><rect width="6" height="6"/></g>
<g transform="translate(152.375,405.375) scale(3.9483333333333)"><rect width="6" height="6"/></g>
<g transform="translate(175.375,405.375) scale(3.9483333333333)"><rect width="6" height="6"/></g>
<g transform="translate(313.375,405.375) scale(3.9483333333333)"><rect width="6" height="6"/></g>
<g transform="translate(336.375,405.375) scale(3.9483333333333)"><rect width="6" height="6"/></g>
<g transform="translate(382.375,405.375) scale(3.9483333333333)"><rect width="6" height="6"/></g>
<g transform="translate(405.375,405.375) scale(3.9483333333333)"><rect width="6" height="6"/></g>
<g transform="translate(474.375,405.375) scale(3.9483333333333)"><rect width="6" height="6"/></g>
<g transform="translate(497.375,405.375) scale(3.9483333333333)"><rect width="6" height="6"/></g>
<g transform="translate(543.375,405.375) scale(3.9483333333333)"><rect width="6" height="6"/></g>
<g transform="translate(635.375,405.375) scale(3.9483333333333)"><rect width="6" height="6"/></g>
<g transform="translate(681.375,405.375) scale(3.9483333333333)"><rect width="6" height="6"/></g>
<g transform="translate(750.375,405.375) scale(3.9483333333333)"><rect width="6" height="6"/></g>
<g transform="translate(819.375,405.375) scale(3.9483333333333)"><rect width="6" height="6"/></g>
<g transform="translate(221.375,428.375) scale(3.9483333333333)"><rect width="6" height="6"/></g>
<g transform="translate(244.375,428.375) scale(3.9483333333333)"><rect width="6" height="6"/></g>
<g transform="translate(267.375,428.375) scale(3.9483333333333)"><rect width="6" height="6"/></g>
<g transform="translate(313.375,428.375) scale(3.9483333333333)"><rect width="6" height="6"/></g>
<g transform="translate(336.375,428.375) scale(3.9483333333333)"><rect width="6" height="6"/></g>
<g transform="translate(405.375,428.375) scale(3.9483333333333)"><rect width="6" height="6"/></g>
<g transform="translate(428.375,428.375) scale(3.9483333333333)"><rect width="6" height="6"/></g>
<g transform="translate(451.375,428.375) scale(3.9483333333333)"><rect width="6" height="6"/></g>
<g transform="translate(474.375,428.375) scale(3.9483333333333)"><rect width="6" height="6"/></g>
<g transform="translate(658.375,428.375) scale(3.9483333333333)"><rect width="6" height="6"/></g>
<g transform="translate(681.375,428.375) scale(3.9483333333333)"><rect width="6" height="6"/></g>
<g transform="translate(704.375,428.375) scale(3.9483333333333)"><rect width="6" height="6"/></g>
<g transform="translate(727.375,428.375) scale(3.9483333333333)"><rect width="6" height="6"/></g>
<g transform="translate(773.375,428.375) scale(3.9483333333333)"><rect width="6" height="6"/></g>
<g transform="translate(796.375,428.375) scale(3.9483333333333)"><rect width="6" height="6"/></g>
<g transform="translate(819.375,428.375) scale(3.9483333333333)"><rect width="6" height="6"/></g>
<g transform="translate(842.375,428.375) scale(3.9483333333333)"><rect width="6" height="6"/></g>
<g transform="translate(865.375,428.375) scale(3.9483333333333)"><rect width="6" height="6"/></g>
<g transform="translate(911.375,428.375) scale(3.9483333333333)"><rect width="6" height="6"/></g>
<g transform="translate(934.375,428.375) scale(3.9483333333333)"><rect width="6" height="6"/></g>
<g transform="translate(129.375,451.375) scale(3.9483333333333)"><rect width="6" height="6"/></g>
<g transform="translate(175.375,451.375) scale(3.9483333333333)"><rect width="6" height="6"/></g>
<g transform="translate(198.375,451.375) scale(3.9483333333333)"><rect width="6" height="6"/></g>
<g transform="translate(221.375,451.375) scale(3.9483333333333)"><rect width="6" height="6"/></g>
<g transform="translate(313.375,451.375) scale(3.9483333333333)"><rect width="6" height="6"/></g>
<g transform="translate(359.375,451.375) scale(3.9483333333333)"><rect width="6" height="6"/></g>
<g transform="translate(428.375,451.375) scale(3.9483333333333)"><rect width="6" height="6"/></g>
<g transform="translate(451.375,451.375) scale(3.9483333333333)"><rect width="6" height="6"/></g>
<g transform="translate(520.375,451.375) scale(3.9483333333333)"><rect width="6" height="6"/></g>
<g transform="translate(566.375,451.375) scale(3.9483333333333)"><rect width="6" height="6"/></g>
<g transform="translate(589.375,451.375) scale(3.9483333333333)"><rect width="6" height="6"/></g>
<g transform="translate(612.375,451.375) scale(3.9483333333333)"><rect width="6" height="6"/></g>
<g transform="translate(704.375,451.375) scale(3.9483333333333)"><rect width="6" height="6"/></g>
<g transform="translate(750.375,451.375) scale(3.9483333333333)"><rect width="6" height="6"/></g>
<g transform="translate(773.375,451.375) scale(3.9483333333333)"><rect width="6" height="6"/></g>
<g transform="translate(796.375,451.375) scale(3.9483333333333)"><rect width="6" height="6"/></g>
<g transform="translate(819.375,451.375) scale(3.9483333333333)"><rect width="6" height="6"/></g>
<g transform="translate(842.375,451.375) scale(3.9483333333333)"><rect width="6" height="6"/></g>
<g transform="translate(934.375,451.375) scale(3.9483333333333)"><rect width="6" height="6"/></g>
<g transform="translate(129.375,474.375) scale(3.9483333333333)"><rect width="6" height="6"/></g>
<g transform="translate(221.375,474.375) scale(3.9483333333333)"><rect width="6" height="6"/></g>
<g transform="translate(244.375,474.375) scale(3.9483333333333)"><rect width="6" height="6"/></g>
<g transform="translate(290.375,474.375) scale(3.9483333333333)"><rect width="6" height="6"/></g>
<g transform="translate(336.375,474.375) scale(3.9483333333333)"><rect width="6" height="6"/></g>
<g transform="translate(359.375,474.375) scale(3.9483333333333)"><rect width="6" height="6"/></g>
<g transform="translate(382.375,474.375) scale(3.9483333333333)"><rect width="6" height="6"/></g>
<g transform="translate(520.375,474.375) scale(3.9483333333333)"><rect width="6" height="6"/></g>
<g transform="translate(566.375,474.375) scale(3.9483333333333)"><rect width="6" height="6"/></g>
<g transform="translate(681.375,474.375) scale(3.9483333333333)"><rect width="6" height="6"/></g>
<g transform="translate(704.375,474.375) scale(3.9483333333333)"><rect width="6" height="6"/></g>
<g transform="translate(773.375,474.375) scale(3.9483333333333)"><rect width="6" height="6"/></g>
<g transform="translate(796.375,474.375) scale(3.9483333333333)"><rect width="6" height="6"/></g>
<g transform="translate(842.375,474.375) scale(3.9483333333333)"><rect width="6" height="6"/></g>
<g transform="translate(888.375,474.375) scale(3.9483333333333)"><rect width="6" height="6"/></g>
<g transform="translate(911.375,474.375) scale(3.9483333333333)"><rect width="6" height="6"/></g>
<g transform="translate(934.375,474.375) scale(3.9483333333333)"><rect width="6" height="6"/></g>
<g transform="translate(129.375,497.375) scale(3.9483333333333)"><rect width="6" height="6"/></g>
<g transform="translate(221.375,497.375) scale(3.9483333333333)"><rect width="6" height="6"/></g>
<g transform="translate(405.375,497.375) scale(3.9483333333333)"><rect width="6" height="6"/></g>
<g transform="translate(428.375,497.375) scale(3.9483333333333)"><rect width="6" height="6"/></g>
<g transform="translate(451.375,497.375) scale(3.9483333333333)"><rect width="6" height="6"/></g>
<g transform="translate(474.375,497.375) scale(3.9483333333333)"><rect width="6" height="6"/></g>
<g transform="translate(520.375,497.375) scale(3.9483333333333)"><rect width="6" height="6"/></g>
<g transform="translate(543.375,497.375) scale(3.9483333333333)"><rect width="6" height="6"/></g>
<g transform="translate(635.375,497.375) scale(3.9483333333333)"><rect width="6" height="6"/></g>
<g transform="translate(681.375,497.375) scale(3.9483333333333)"><rect width="6" height="6"/></g>
<g transform="translate(704.375,497.375) scale(3.9483333333333)"><rect width="6" height="6"/></g>
<g transform="translate(750.375,497.375) scale(3.9483333333333)"><rect width="6" height="6"/></g>
<g transform="translate(773.375,497.375) scale(3.9483333333333)"><rect width="6" height="6"/></g>
<g transform="translate(819.375,497.375) scale(3.9483333333333)"><rect width="6" height="6"/></g>
<g transform="translate(865.375,497.375) scale(3.9483333333333)"><rect width="6" height="6"/></g>
<g transform="translate(888.375,497.375) scale(3.9483333333333)"><rect width="6" height="6"/></g>
<g transform="translate(911.375,497.375) scale(3.9483333333333)"><rect width="6" height="6"/></g>
<g transform="translate(106.375,520.375) scale(3.9483333333333)"><rect width="6" height="6"/></g>
<g transform="translate(221.375,520.375) scale(3.9483333333333)"><rect width="6" height="6"/></g>
<g transform="translate(244.375,520.375) scale(3.9483333333333)"><rect width="6" height="6"/></g>
<g transform="translate(267.375,520.375) scale(3.9483333333333)"><rect width="6" height="6"/></g>
<g transform="translate(359.375,520.375) scale(3.9483333333333)"><rect width="6" height="6"/></g>
<g transform="translate(405.375,520.375) scale(3.9483333333333)"><rect width="6" height="6"/></g>
<g transform="translate(451.375,520.375) scale(3.9483333333333)"><rect width="6" height="6"/></g>
<g transform="translate(474.375,520.375) scale(3.9483333333333)"><rect width="6" height="6"/></g>
<g transform="translate(566.375,520.375) scale(3.9483333333333)"><rect width="6" height="6"/></g>
<g transform="translate(612.375,520.375) scale(3.9483333333333)"><rect width="6" height="6"/></g>
<g transform="translate(681.375,520.375) scale(3.9483333333333)"><rect width="6" height="6"/></g>
<g transform="translate(704.375,520.375) scale(3.9483333333333)"><rect width="6" height="6"/></g>
<g transform="translate(727.375,520.375) scale(3.9483333333333)"><rect width="6" height="6"/></g>
<g transform="translate(773.375,520.375) scale(3.9483333333333)"><rect width="6" height="6"/></g>
<g transform="translate(819.375,520.375) scale(3.9483333333333)"><rect width="6" height="6"/></g>
<g transform="translate(842.375,520.375) scale(3.9483333333333)"><rect width="6" height="6"/></g>
<g transform="translate(911.375,520.375) scale(3.9483333333333)"><rect width="6" height="6"/></g>
<g transform="translate(934.375,520.375) scale(3.9483333333333)"><rect width="6" height="6"/></g>
<g transform="translate(129.375,543.375) scale(3.9483333333333)"><rect width="6" height="6"/></g>
<g transform="translate(152.375,543.375) scale(3.9483333333333)"><rect width="6" height="6"/></g>
<g transform="translate(198.375,543.375) scale(3.9483333333333)"><rect width="6" height="6"/></g>
<g transform="translate(221.375,543.375) scale(3.9483333333333)"><rect width="6" height="6"/></g>
<g transform="translate(290.375,543.375) scale(3.9483333333333)"><rect width="6" height="6"/></g>
<g transform="translate(313.375,543.375) scale(3.9483333333333)"><rect width="6" height="6"/></g>
<g transform="translate(336.375,543.375) scale(3.9483333333333)"><rect width="6" height="6"/></g>
<g transform="translate(382.375,543.375) scale(3.9483333333333)"><rect width="6" height="6"/></g>
<g transform="translate(451.375,543.375) scale(3.9483333333333)"><rect width="6" height="6"/></g>
<g transform="translate(474.375,543.375) scale(3.9483333333333)"><rect width="6" height="6"/></g>
<g transform="translate(520.375,543.375) scale(3.9483333333333)"><rect width="6" height="6"/></g>
<g transform="translate(543.375,543.375) scale(3.9483333333333)"><rect width="6" height="6"/></g>
<g transform="translate(566.375,543.375) scale(3.9483333333333)"><rect width="6" height="6"/></g>
<g transform="translate(589.375,543.375) scale(3.9483333333333)"><rect width="6" height="6"/></g>
<g transform="translate(750.375,543.375) scale(3.9483333333333)"><rect width="6" height="6"/></g>
<g transform="translate(773.375,543.375) scale(3.9483333333333)"><rect width="6" height="6"/></g>
<g transform="translate(819.375,543.375) scale(3.9483333333333)"><rect width="6" height="6"/></g>
<g transform="translate(842.375,543.375) scale(3.9483333333333)"><rect width="6" height="6"/></g>
<g transform="translate(934.375,543.375) scale(3.9483333333333)"><rect width="6" height="6"/></g>
<g transform="translate(152.375,566.375) scale(3.9483333333333)"><rect width="6" height="6"/></g>
<g transform="translate(175.375,566.375) scale(3.9483333333333)"><rect width="6" height="6"/></g>
<g transform="translate(244.375,566.375) scale(3.9483333333333)"><rect width="6" height="6"/></g>
<g transform="translate(290.375,566.375) scale(3.9483333333333)"><rect width="6" height="6"/></g>
<g transform="translate(313.375,566.375) scale(3.9483333333333)"><rect width="6" height="6"/></g>
<g transform="translate(428.375,566.375) scale(3.9483333333333)"><rect width="6" height="6"/></g>
<g transform="translate(451.375,566.375) scale(3.9483333333333)"><rect width="6" height="6"/></g>
<g transform="translate(497.375,566.375) scale(3.9483333333333)"><rect width="6" height="6"/></g>
<g transform="translate(543.375,566.375) scale(3.9483333333333)"><rect width="6" height="6"/></g>
<g transform="translate(566.375,566.375) scale(3.9483333333333)"><rect width="6" height="6"/></g>
<g transform="translate(612.375,566.375) scale(3.9483333333333)"><rect width="6" height="6"/></g>
<g transform="translate(635.375,566.375) scale(3.9483333333333)"><rect width="6" height="6"/></g>
<g transform="translate(658.375,566.375) scale(3.9483333333333)"><rect width="6" height="6"/></g>
<g transform="translate(681.375,566.375) scale(3.9483333333333)"><rect width="6" height="6"/></g>
<g transform="translate(704.375,566.375) scale(3.9483333333333)"><rect width="6" height="6"/></g>
<g transform="translate(773.375,566.375) scale(3.9483333333333)"><rect width="6" height="6"/></g>
<g transform="translate(796.375,566.375) scale(3.9483333333333)"><rect width="6" height="6"/></g>
<g transform="translate(842.375,566.375) scale(3.9483333333333)"><rect width="6" height="6"/></g>
<g transform="translate(888.375,566.375) scale(3.9483333333333)"><rect width="6" height="6"/></g>
<g transform="translate(129.375,589.375) scale(3.9483333333333)"><rect width="6" height="6"/></g>
<g transform="translate(198.375,589.375) scale(3.9483333333333)"><rect width="6" height="6"/></g>
<g transform="translate(290.375,589.375) scale(3.9483333333333)"><rect width="6" height="6"/></g>
<g transform="translate(313.375,589.375) scale(3.9483333333333)"><rect width="6" height="6"/></g>
<g transform="translate(382.375,589.375) scale(3.9483333333333)"><rect width="6" height="6"/></g>
<g transform="translate(474.375,589.375) scale(3.9483333333333)"><rect width="6" height="6"/></g>
<g transform="translate(520.375,589.375) scale(3.9483333333333)"><rect width="6" height="6"/></g>
<g transform="translate(543.375,589.375) scale(3.9483333333333)"><rect width="6" height="6"/></g>
<g transform="translate(566.375,589.375) scale(3.9483333333333)"><rect width="6" height="6"/></g>
<g transform="translate(635.375,589.375) scale(3.9483333333333)"><rect width="6" height="6"/></g>
<g transform="translate(750.375,589.375) scale(3.9483333333333)"><rect width="6" height="6"/></g>
<g transform="translate(865.375,589.375) scale(3.9483333333333)"><rect width="6" height="6"/></g>
<g transform="translate(911.375,589.375) scale(3.9483333333333)"><rect width="6" height="6"/></g>
<g transform="translate(244.375,612.375) scale(3.9483333333333)"><rect width="6" height="6"/></g>
<g transform="translate(290.375,612.375) scale(3.9483333333333)"><rect width="6" height="6"/></g>
<g transform="translate(313.375,612.375) scale(3.9483333333333)"><rect width="6" height="6"/></g>
<g transform="translate(382.375,612.375) scale(3.9483333333333)"><rect width="6" height="6"/></g>
<g transform="translate(451.375,612.375) scale(3.9483333333333)"><rect width="6" height="6"/></g>
<g transform="translate(474.375,612.375) scale(3.9483333333333)"><rect width="6" height="6"/></g>
<g transform="translate(566.375,612.375) scale(3.9483333333333)"><rect width="6" height="6"/></g>
<g transform="translate(589.375,612.375) scale(3.9483333333333)"><rect width="6" height="6"/></g>
<g transform="translate(612.375,612.375) scale(3.9483333333333)"><rect width="6" height="6"/></g>
<g transform="translate(681.375,612.375) scale(3.9483333333333)"><rect width="6" height="6"/></g>
<g transform="translate(727.375,612.375) scale(3.9483333333333)"><rect width="6" height="6"/></g>
<g transform="translate(750.375,612.375) scale(3.9483333333333)"><rect width="6" height="6"/></g>
<g transform="translate(773.375,612.375) scale(3.9483333333333)"><rect width="6" height="6"/></g>
<g transform="translate(796.375,612.375) scale(3.9483333333333)"><rect width="6" height="6"/></g>
<g transform="translate(819.375,612.375) scale(3.9483333333333)"><rect width="6" height="6"/></g>
<g transform="translate(842.375,612.375) scale(3.9483333333333)"><rect width="6" height="6"/></g>
<g transform="translate(865.375,612.375) scale(3.9483333333333)"><rect width="6" height="6"/></g>
<g transform="translate(911.375,612.375) scale(3.9483333333333)"><rect width="6" height="6"/></g>
<g transform="translate(934.375,612.375) scale(3.9483333333333)"><rect width="6" height="6"/></g>
<g transform="translate(106.375,635.375) scale(3.9483333333333)"><rect width="6" height="6"/></g>
<g transform="translate(129.375,635.375) scale(3.9483333333333)"><rect width="6" height="6"/></g>
<g transform="translate(152.375,635.375) scale(3.9483333333333)"><rect width="6" height="6"/></g>
<g transform="translate(290.375,635.375) scale(3.9483333333333)"><rect width="6" height="6"/></g>
<g transform="translate(359.375,635.375) scale(3.9483333333333)"><rect width="6" height="6"/></g>
<g transform="translate(428.375,635.375) scale(3.9483333333333)"><rect width="6" height="6"/></g>
<g transform="translate(451.375,635.375) scale(3.9483333333333)"><rect width="6" height="6"/></g>
<g transform="translate(474.375,635.375) scale(3.9483333333333)"><rect width="6" height="6"/></g>
<g transform="translate(497.375,635.375) scale(3.9483333333333)"><rect width="6" height="6"/></g>
<g transform="translate(520.375,635.375) scale(3.9483333333333)"><rect width="6" height="6"/></g>
<g transform="translate(543.375,635.375) scale(3.9483333333333)"><rect width="6" height="6"/></g>
<g transform="translate(566.375,635.375) scale(3.9483333333333)"><rect width="6" height="6"/></g>
<g transform="translate(589.375,635.375) scale(3.9483333333333)"><rect width="6" height="6"/></g>
<g transform="translate(612.375,635.375) scale(3.9483333333333)"><rect width="6" height="6"/></g>
<g transform="translate(727.375,635.375) scale(3.9483333333333)"><rect width="6" height="6"/></g>
<g transform="translate(750.375,635.375) scale(3.9483333333333)"><rect width="6" height="6"/></g>
<g transform="translate(796.375,635.375) scale(3.9483333333333)"><rect width="6" height="6"/></g>
<g transform="translate(819.375,635.375) scale(3.9483333333333)"><rect width="6" height="6"/></g>
<g transform="translate(842.375,635.375) scale(3.9483333333333)"><rect width="6" height="6"/></g>
<g transform="translate(911.375,635.375) scale(3.9483333333333)"><rect width="6" height="6"/></g>
<g transform="translate(934.375,635.375) scale(3.9483333333333)"><rect width="6" height="6"/></g>
<g transform="translate(106.375,658.375) scale(3.9483333333333)"><rect width="6" height="6"/></g>
<g transform="translate(244.375,658.375) scale(3.9483333333333)"><rect width="6" height="6"/></g>
<g transform="translate(313.375,658.375) scale(3.9483333333333)"><rect width="6" height="6"/></g>
<g transform="translate(497.375,658.375) scale(3.9483333333333)"><rect width="6" height="6"/></g>
<g transform="translate(543.375,658.375) scale(3.9483333333333)"><rect width="6" height="6"/></g>
<g transform="translate(566.375,658.375) scale(3.9483333333333)"><rect width="6" height="6"/></g>
<g transform="translate(612.375,658.375) scale(3.9483333333333)"><rect width="6" height="6"/></g>
<g transform="translate(658.375,658.375) scale(3.9483333333333)"><rect width="6" height="6"/></g>
<g transform="translate(681.375,658.375) scale(3.9483333333333)"><rect width="6" height="6"/></g>
<g transform="translate(727.375,658.375) scale(3.9483333333333)"><rect width="6" height="6"/></g>
<g transform="translate(773.375,658.375) scale(3.9483333333333)"><rect width="6" height="6"/></g>
<g transform="translate(796.375,658.375) scale(3.9483333333333)"><rect width="6" height="6"/></g>
<g transform="translate(842.375,658.375) scale(3.9483333333333)"><rect width="6" height="6"/></g>
<g transform="translate(888.375,658.375) scale(3.9483333333333)"><rect width="6" height="6"/></g>
<g transform="translate(911.375,658.375) scale(3.9483333333333)"><rect width="6" height="6"/></g>
<g transform="translate(106.375,681.375) scale(3.9483333333333)"><rect width="6" height="6"/></g>
<g transform="translate(175.375,681.375) scale(3.9483333333333)"><rect width="6" height="6"/></g>
<g transform="translate(221.375,681.375) scale(3.9483333333333)"><rect width="6" height="6"/></g>
<g transform="translate(359.375,681.375) scale(3.9483333333333)"><rect width="6" height="6"/></g>
<g transform="translate(382.375,681.375) scale(3.9483333333333)"><rect width="6" height="6"/></g>
<g transform="translate(405.375,681.375) scale(3.9483333333333)"><rect width="6" height="6"/></g>
<g transform="translate(428.375,681.375) scale(3.9483333333333)"><rect width="6" height="6"/></g>
<g transform="translate(474.375,681.375) scale(3.9483333333333)"><rect width="6" height="6"/></g>
<g transform="translate(497.375,681.375) scale(3.9483333333333)"><rect width="6" height="6"/></g>
<g transform="translate(543.375,681.375) scale(3.9483333333333)"><rect width="6" height="6"/></g>
<g transform="translate(566.375,681.375) scale(3.9483333333333)"><rect width="6" height="6"/></g>
<g transform="translate(589.375,681.375) scale(3.9483333333333)"><rect width="6" height="6"/></g>
<g transform="translate(635.375,681.375) scale(3.9483333333333)"><rect width="6" height="6"/></g>
<g transform="translate(658.375,681.375) scale(3.9483333333333)"><rect width="6" height="6"/></g>
<g transform="translate(750.375,681.375) scale(3.9483333333333)"><rect width="6" height="6"/></g>
<g transform="translate(819.375,681.375) scale(3.9483333333333)"><rect width="6" height="6"/></g>
<g transform="translate(865.375,681.375) scale(3.9483333333333)"><rect width="6" height="6"/></g>
<g transform="translate(106.375,704.375) scale(3.9483333333333)"><rect width="6" height="6"/></g>
<g transform="translate(152.375,704.375) scale(3.9483333333333)"><rect width="6" height="6"/></g>
<g transform="translate(198.375,704.375) scale(3.9483333333333)"><rect width="6" height="6"/></g>
<g transform="translate(221.375,704.375) scale(3.9483333333333)"><rect width="6" height="6"/></g>
<g transform="translate(244.375,704.375) scale(3.9483333333333)"><rect width="6" height="6"/></g>
<g transform="translate(267.375,704.375) scale(3.9483333333333)"><rect width="6" height="6"/></g>
<g transform="translate(290.375,704.375) scale(3.9483333333333)"><rect width="6" height="6"/></g>
<g transform="translate(313.375,704.375) scale(3.9483333333333)"><rect width="6" height="6"/></g>
<g transform="translate(405.375,704.375) scale(3.9483333333333)"><rect width="6" height="6"/></g>
<g transform="translate(428.375,704.375) scale(3.9483333333333)"><rect width="6" height="6"/></g>
<g transform="translate(451.375,704.375) scale(3.9483333333333)"><rect width="6" height="6"/></g>
<g transform="translate(497.375,704.375) scale(3.9483333333333)"><rect width="6" height="6"/></g>
<g transform="translate(681.375,704.375) scale(3.9483333333333)"><rect width="6" height="6"/></g>
<g transform="translate(727.375,704.375) scale(3.9483333333333)"><rect width="6" height="6"/></g>
<g transform="translate(750.375,704.375) scale(3.9483333333333)"><rect width="6" height="6"/></g>
<g transform="translate(773.375,704.375) scale(3.9483333333333)"><rect width="6" height="6"/></g>
<g transform="translate(819.375,704.375) scale(3.9483333333333)"><rect width="6" height="6"/></g>
<g transform="translate(842.375,704.375) scale(3.9483333333333)"><rect width="6" height="6"/></g>
<g transform="translate(888.375,704.375) scale(3.9483333333333)"><rect width="6" height="6"/></g>
<g transform="translate(911.375,704.375) scale(3.9483333333333)"><rect width="6" height="6"/></g>
<g transform="translate(934.375,704.375) scale(3.9483333333333)"><rect width="6" height="6"/></g>
<g transform="translate(106.375,727.375) scale(3.9483333333333)"><rect width="6" height="6"/></g>
<g transform="translate(221.375,727.375) scale(3.9483333333333)"><rect width="6" height="6"/></g>
<g transform="translate(267.375,727.375) scale(3.9483333333333)"><rect width="6" height="6"/></g>
<g transform="translate(290.375,727.375) scale(3.9483333333333)"><rect width="6" height="6"/></g>
<g transform="translate(313.375,727.375) scale(3.9483333333333)"><rect width="6" height="6"/></g>
<g transform="translate(359.375,727.375) scale(3.9483333333333)"><rect width="6" height="6"/></g>
<g transform="translate(428.375,727.375) scale(3.9483333333333)"><rect width="6" height="6"/></g>
<g transform="translate(451.375,727.375) scale(3.9483333333333)"><rect width="6" height="6"/></g>
<g transform="translate(474.375,727.375) scale(3.9483333333333)"><rect width="6" height="6"/></g>
<g transform="translate(589.375,727.375) scale(3.9483333333333)"><rect width="6" height="6"/></g>
<g transform="translate(612.375,727.375) scale(3.9483333333333)"><rect width="6" height="6"/></g>
<g transform="translate(704.375,727.375) scale(3.9483333333333)"><rect width="6" height="6"/></g>
<g transform="translate(727.375,727.375) scale(3.9483333333333)"><rect width="6" height="6"/></g>
<g transform="translate(773.375,727.375) scale(3.9483333333333)"><rect width="6" height="6"/></g>
<g transform="translate(796.375,727.375) scale(3.9483333333333)"><rect width="6" height="6"/></g>
<g transform="translate(865.375,727.375) scale(3.9483333333333)"><rect width="6" height="6"/></g>
<g transform="translate(934.375,727.375) scale(3.9483333333333)"><rect width="6" height="6"/></g>
<g transform="translate(106.375,750.375) scale(3.9483333333333)"><rect width="6" height="6"/></g>
<g transform="translate(175.375,750.375) scale(3.9483333333333)"><rect width="6" height="6"/></g>
<g transform="translate(198.375,750.375) scale(3.9483333333333)"><rect width="6" height="6"/></g>
<g transform="translate(221.375,750.375) scale(3.9483333333333)"><rect width="6" height="6"/></g>
<g transform="translate(244.375,750.375) scale(3.9483333333333)"><rect width="6" height="6"/></g>
<g transform="translate(290.375,750.375) scale(3.9483333333333)"><rect width="6" height="6"/></g>
<g transform="translate(336.375,750.375) scale(3.9483333333333)"><rect width="6" height="6"/></g>
<g transform="translate(382.375,750.375) scale(3.9483333333333)"><rect width="6" height="6"/></g>
<g transform="translate(405.375,750.375) scale(3.9483333333333)"><rect width="6" height="6"/></g>
<g transform="translate(428.375,750.375) scale(3.9483333333333)"><rect width="6" height="6"/></g>
<g transform="translate(497.375,750.375) scale(3.9483333333333)"><rect width="6" height="6"/></g>
<g transform="translate(612.375,750.375) scale(3.9483333333333)"><rect width="6" height="6"/></g>
<g transform="translate(681.375,750.375) scale(3.9483333333333)"><rect width="6" height="6"/></g>
<g transform="translate(704.375,750.375) scale(3.9483333333333)"><rect width="6" height="6"/></g>
<g transform="translate(750.375,750.375) scale(3.9483333333333)"><rect width="6" height="6"/></g>
<g transform="translate(773.375,750.375) scale(3.9483333333333)"><rect width="6" height="6"/></g>
<g transform="translate(796.375,750.375) scale(3.9483333333333)"><rect width="6" height="6"/></g>
<g transform="translate(819.375,750.375) scale(3.9483333333333)"><rect width="6" height="6"/></g>
<g transform="translate(842.375,750.375) scale(3.9483333333333)"><rect width="6" height="6"/></g>
<g transform="translate(865.375,750.375) scale(3.9483333333333)"><rect width="6" height="6"/></g>
<g transform="translate(888.375,750.375) scale(3.9483333333333)"><rect width="6" height="6"/></g>
<g transform="translate(290.375,773.375) scale(3.9483333333333)"><rect width="6" height="6"/></g>
<g transform="translate(336.375,773.375) scale(3.9483333333333)"><rect width="6" height="6"/></g>
<g transform="translate(382.375,773.375) scale(3.9483333333333)"><rect width="6" height="6"/></g>
<g transform="translate(428.375,773.375) scale(3.9483333333333)"><rect width="6" height="6"/></g>
<g transform="translate(543.375,773.375) scale(3.9483333333333)"><rect width="6" height="6"/></g>
<g transform="translate(635.375,773.375) scale(3.9483333333333)"><rect width="6" height="6"/></g>
<g transform="translate(681.375,773.375) scale(3.9483333333333)"><rect width="6" height="6"/></g>
<g transform="translate(750.375,773.375) scale(3.9483333333333)"><rect width="6" height="6"/></g>
<g transform="translate(842.375,773.375) scale(3.9483333333333)"><rect width="6" height="6"/></g>
<g transform="translate(865.375,773.375) scale(3.9483333333333)"><rect width="6" height="6"/></g>
<g transform="translate(359.375,796.375) scale(3.9483333333333)"><rect width="6" height="6"/></g>
<g transform="translate(382.375,796.375) scale(3.9483333333333)"><rect width="6" height="6"/></g>
<g transform="translate(451.375,796.375) scale(3.9483333333333)"><rect width="6" height="6"/></g>
<g transform="translate(474.375,796.375) scale(3.9483333333333)"><rect width="6" height="6"/></g>
<g transform="translate(497.375,796.375) scale(3.9483333333333)"><rect width="6" height="6"/></g>
<g transform="translate(520.375,796.375) scale(3.9483333333333)"><rect width="6" height="6"/></g>
<g transform="translate(566.375,796.375) scale(3.9483333333333)"><rect width="6" height="6"/></g>
<g transform="translate(612.375,796.375) scale(3.9483333333333)"><rect width="6" height="6"/></g>
<g transform="translate(704.375,796.375) scale(3.9483333333333)"><rect width="6" height="6"/></g>
<g transform="translate(750.375,796.375) scale(3.9483333333333)"><rect width="6" height="6"/></g>
<g transform="translate(796.375,796.375) scale(3.9483333333333)"><rect width="6" height="6"/></g>
<g transform="translate(842.375,796.375) scale(3.9483333333333)"><rect width="6" height="6"/></g>
<g transform="translate(888.375,796.375) scale(3.9483333333333)"><rect width="6" height="6"/></g>
<g transform="translate(934.375,796.375) scale(3.9483333333333)"><rect width="6" height="6"/></g>
<g transform="translate(290.375,819.375) scale(3.9483333333333)"><rect width="6" height="6"/></g>
<g transform="translate(313.375,819.375) scale(3.9483333333333)"><rect width="6" height="6"/></g>
<g transform="translate(359.375,819.375) scale(3.9483333333333)"><rect width="6" height="6"/></g>
<g transform="translate(428.375,819.375) scale(3.9483333333333)"><rect width="6" height="6"/></g>
<g transform="translate(566.375,819.375) scale(3.9483333333333)"><rect width="6" height="6"/></g>
<g transform="translate(589.375,819.375) scale(3.9483333333333)"><rect width="6" height="6"/></g>
<g transform="translate(612.375,819.375) scale(3.9483333333333)"><rect width="6" height="6"/></g>
<g transform="translate(635.375,819.375) scale(3.9483333333333)"><rect width="6" height="6"/></g>
<g transform="translate(704.375,819.375) scale(3.9483333333333)"><rect width="6" height="6"/></g>
<g transform="translate(750.375,819.375) scale(3.9483333333333)"><rect width="6" height="6"/></g>
<g transform="translate(842.375,819.375) scale(3.9483333333333)"><rect width="6" height="6"/></g>
<g transform="translate(865.375,819.375) scale(3.9483333333333)"><rect width="6" height="6"/></g>
<g transform="translate(911.375,819.375) scale(3.9483333333333)"><rect width="6" height="6"/></g>
<g transform="translate(290.375,842.375) scale(3.9483333333333)"><rect width="6" height="6"/></g>
<g transform="translate(336.375,842.375) scale(3.9483333333333)"><rect width="6" height="6"/></g>
<g transform="translate(382.375,842.375) scale(3.9483333333333)"><rect width="6" height="6"/></g>
<g transform="translate(451.375,842.375) scale(3.9483333333333)"><rect width="6" height="6"/></g>
<g transform="translate(497.375,842.375) scale(3.9483333333333)"><rect width="6" height="6"/></g>
<g transform="translate(543.375,842.375) scale(3.9483333333333)"><rect width="6" height="6"/></g>
<g transform="translate(612.375,842.375) scale(3.9483333333333)"><rect width="6" height="6"/></g>
<g transform="translate(635.375,842.375) scale(3.9483333333333)"><rect width="6" height="6"/></g>
<g transform="translate(658.375,842.375) scale(3.9483333333333)"><rect width="6" height="6"/></g>
<g transform="translate(681.375,842.375) scale(3.9483333333333)"><rect width="6" height="6"/></g>
<g transform="translate(704.375,842.375) scale(3.9483333333333)"><rect width="6" height="6"/></g>
<g transform="translate(727.375,842.375) scale(3.9483333333333)"><rect width="6" height="6"/></g>
<g transform="translate(750.375,842.375) scale(3.9483333333333)"><rect width="6" height="6"/></g>
<g transform="translate(773.375,842.375) scale(3.9483333333333)"><rect width="6" height="6"/></g>
<g transform="translate(796.375,842.375) scale(3.9483333333333)"><rect width="6" height="6"/></g>
<g transform="translate(819.375,842.375) scale(3.9483333333333)"><rect width="6" height="6"/></g>
<g transform="translate(842.375,842.375) scale(3.9483333333333)"><rect width="6" height="6"/></g>
<g transform="translate(888.375,842.375) scale(3.9483333333333)"><rect width="6" height="6"/></g>
<g transform="translate(934.375,842.375) scale(3.9483333333333)"><rect width="6" height="6"/></g>
<g transform="translate(290.375,865.375) scale(3.9483333333333)"><rect width="6" height="6"/></g>
<g transform="translate(336.375,865.375) scale(3.9483333333333)"><rect width="6" height="6"/></g>
<g transform="translate(382.375,865.375) scale(3.9483333333333)"><rect width="6" height="6"/></g>
<g transform="translate(405.375,865.375) scale(3.9483333333333)"><rect width="6" height="6"/></g>
<g transform="translate(428.375,865.375) scale(3.9483333333333)"><rect width="6" height="6"/></g>
<g transform="translate(451.375,865.375) scale(3.9483333333333)"><rect width="6" height="6"/></g>
<g transform="translate(474.375,865.375) scale(3.9483333333333)"><rect width="6" height="6"/></g>
<g transform="translate(543.375,865.375) scale(3.9483333333333)"><rect width="6" height="6"/></g>
<g transform="translate(635.375,865.375) scale(3.9483333333333)"><rect width="6" height="6"/></g>
<g transform="translate(681.375,865.375) scale(3.9483333333333)"><rect width="6" height="6"/></g>
<g transform="translate(773.375,865.375) scale(3.9483333333333)"><rect width="6" height="6"/></g>
<g transform="translate(796.375,865.375) scale(3.9483333333333)"><rect width="6" height="6"/></g>
<g transform="translate(842.375,865.375) scale(3.9483333333333)"><rect width="6" height="6"/></g>
<g transform="translate(888.375,865.375) scale(3.9483333333333)"><rect width="6" height="6"/></g>
<g transform="translate(934.375,865.375) scale(3.9483333333333)"><rect width="6" height="6"/></g>
<g transform="translate(290.375,888.375) scale(3.9483333333333)"><rect width="6" height="6"/></g>
<g transform="translate(313.375,888.375) scale(3.9483333333333)"><rect width="6" height="6"/></g>
<g transform="translate(336.375,888.375) scale(3.9483333333333)"><rect width="6" height="6"/></g>
<g transform="translate(405.375,888.375) scale(3.9483333333333)"><rect width="6" height="6"/></g>
<g transform="translate(520.375,888.375) scale(3.9483333333333)"><rect width="6" height="6"/></g>
<g transform="translate(612.375,888.375) scale(3.9483333333333)"><rect width="6" height="6"/></g>
<g transform="translate(704.375,888.375) scale(3.9483333333333)"><rect width="6" height="6"/></g>
<g transform="translate(750.375,888.375) scale(3.9483333333333)"><rect width="6" height="6"/></g>
<g transform="translate(911.375,888.375) scale(3.9483333333333)"><rect width="6" height="6"/></g>
<g transform="translate(934.375,888.375) scale(3.9483333333333)"><rect width="6" height="6"/></g>
<g transform="translate(382.375,911.375) scale(3.9483333333333)"><rect width="6" height="6"/></g>
<g transform="translate(520.375,911.375) scale(3.9483333333333)"><rect width="6" height="6"/></g>
<g transform="translate(543.375,911.375) scale(3.9483333333333)"><rect width="6" height="6"/></g>
<g transform="translate(566.375,911.375) scale(3.9483333333333)"><rect width="6" height="6"/></g>
<g transform="translate(589.375,911.375) scale(3.9483333333333)"><rect width="6" height="6"/></g>
<g transform="translate(612.375,911.375) scale(3.9483333333333)"><rect width="6" height="6"/></g>
<g transform="translate(727.375,911.375) scale(3.9483333333333)"><rect width="6" height="6"/></g>
<g transform="translate(750.375,911.375) scale(3.9483333333333)"><rect width="6" height="6"/></g>
<g transform="translate(842.375,911.375) scale(3.9483333333333)"><rect width="6" height="6"/></g>
<g transform="translate(934.375,911.375) scale(3.9483333333333)"><rect width="6" height="6"/></g>
<g transform="translate(290.375,934.375) scale(3.9483333333333)"><rect width="6" height="6"/></g>
<g transform="translate(336.375,934.375) scale(3.9483333333333)"><rect width="6" height="6"/></g>
<g transform="translate(359.375,934.375) scale(3.9483333333333)"><rect width="6" height="6"/></g>
<g transform="translate(451.375,934.375) scale(3.9483333333333)"><rect width="6" height="6"/></g>
<g transform="translate(474.375,934.375) scale(3.9483333333333)"><rect width="6" height="6"/></g>
<g transform="translate(497.375,934.375) scale(3.9483333333333)"><rect width="6" height="6"/></g>
<g transform="translate(543.375,934.375) scale(3.9483333333333)"><rect width="6" height="6"/></g>
<g transform="translate(612.375,934.375) scale(3.9483333333333)"><rect width="6" height="6"/></g>
<g transform="translate(635.375,934.375) scale(3.9483333333333)"><rect width="6" height="6"/></g>
<g transform="translate(658.375,934.375) scale(3.9483333333333)"><rect width="6" height="6"/></g>
<g transform="translate(681.375,934.375) scale(3.9483333333333)"><rect width="6" height="6"/></g>
<g transform="translate(704.375,934.375) scale(3.9483333333333)"><rect width="6" height="6"/></g>
<g transform="translate(796.375,934.375) scale(3.9483333333333)"><rect width="6" height="6"/></g>
<g transform="translate(842.375,934.375) scale(3.9483333333333)"><rect width="6" height="6"/></g>
<g transform="translate(888.375,934.375) scale(3.9483333333333)"><rect width="6" height="6"/></g>
<g transform="translate(911.375,934.375) scale(3.9483333333333)"><rect width="6" height="6"/></g>
<g transform="translate(934.375,934.375) scale(3.9483333333333)"><rect width="6" height="6"/></g>
<g transform="translate(106.375,106.375)"><g transform="scale(11.5)"><path d="M0,0v14h14V0H0z M12,12H2V2h10V12z"/></g></g>
<g transform="translate(796.375,106.375)"><g transform="scale(11.5)"><path d="M0,0v14h14V0H0z M12,12H2V2h10V12z"/></g></g>
<g transform="translate(106.375,796.375)"><g transform="scale(11.5)"><path d="M0,0v14h14V0H0z M12,12H2V2h10V12z"/></g></g>
<g transform="translate(152.375,152.375)"><g transform="scale(11.5)"><rect width="6" height="6"/></g></g>
<g transform="translate(842.375,152.375)"><g transform="scale(11.5)"><rect width="6" height="6"/></g></g>
<g transform="translate(152.375,842.375)"><g transform="scale(11.5)"><rect width="6" height="6"/></g></g>
</g><g transform="translate(106.375,1010.0641071477) scale(1.424244504372)"><path fill="#000000" d="M4.4921875,96.923828125l8.935546875-0.78125q0.634765625,5.37109375,2.9541015625,8.8134765625t7.2021484375,5.56640625t10.986328125,2.1240234375q5.419921875,0,9.5703125-1.611328125t6.1767578125-4.4189453125t2.0263671875-6.1279296875q0-3.369140625-1.953125-5.8837890625t-6.4453125-4.2236328125q-2.880859375-1.123046875-12.744140625-3.4912109375t-13.818359375-4.4677734375q-5.126953125-2.685546875-7.6416015625-6.6650390625t-2.5146484375-8.9111328125q0-5.419921875,3.076171875-10.1318359375t8.984375-7.1533203125t13.134765625-2.44140625q7.958984375,0,14.0380859375,2.5634765625t9.3505859375,7.5439453125t3.515625,11.279296875l-9.08203125,0.68359375q-0.732421875-6.787109375-4.9560546875-10.25390625t-12.4755859375-3.466796875q-8.59375,0-12.5244140625,3.1494140625t-3.9306640625,7.5927734375q0,3.857421875,2.783203125,6.34765625q2.734375,2.490234375,14.2822265625,5.1025390625t15.8447265625,4.5654296875q6.25,2.880859375,9.228515625,7.2998046875t2.978515625,10.1806640625q0,5.712890625-3.271484375,10.7666015625t-9.3994140625,7.861328125t-13.7939453125,2.8076171875q-9.716796875,0-16.2841796875-2.83203125t-10.302734375-8.5205078125t-3.9306640625-12.8662109375z M73.095703125,119.921875l0-71.58203125l8.7890625,0l0,71.58203125l-8.7890625,0z M95.556640625,58.447265625l0-10.107421875l8.7890625,0l0,10.107421875l-8.7890625,0z M95.556640625,119.921875l0-51.85546875l8.7890625,0l0,51.85546875l-8.7890625,0z M151.3671875,119.921875l0-6.54296875q-4.931640625,7.71484375-14.501953125,7.71484375q-6.201171875,0-11.4013671875-3.41796875t-8.056640625-9.5458984375t-2.8564453125-14.0869140625q0-7.763671875,2.587890625-14.0869140625t7.763671875-9.6923828125t11.572265625-3.369140625q4.6875,0,8.349609375,1.9775390625t5.95703125,5.1513671875l0-25.68359375l8.740234375,0l0,71.58203125l-8.154296875,0z M123.583984375,94.04296875q0,9.9609375,4.19921875,14.892578125t9.912109375,4.931640625q5.76171875,0,9.7900390625-4.7119140625t4.0283203125-14.3798828125q0-10.64453125-4.1015625-15.625t-10.107421875-4.98046875q-5.859375,0-9.7900390625,4.78515625t-3.9306640625,15.087890625z M208.837890625,103.22265625l9.08203125,1.123046875q-2.1484375,7.958984375-7.958984375,12.353515625t-14.84375,4.39453125q-11.376953125,0-18.0419921875-7.0068359375t-6.6650390625-19.6533203125q0-13.0859375,6.73828125-20.3125t17.48046875-7.2265625q10.400390625,0,16.9921875,7.080078125t6.591796875,19.921875q0,0.78125-0.048828125,2.34375l-38.671875,0q0.48828125,8.544921875,4.833984375,13.0859375t10.83984375,4.541015625q4.833984375,0,8.251953125-2.5390625t5.419921875-8.10546875z M179.98046875,89.013671875l28.955078125,0q-0.5859375-6.54296875-3.3203125-9.814453125q-4.19921875-5.078125-10.888671875-5.078125q-6.0546875,0-10.1806640625,4.052734375t-4.5654296875,10.83984375z M225.439453125,104.443359375l8.69140625-1.3671875q0.732421875,5.224609375,4.0771484375,8.0078125t9.3505859375,2.783203125q6.0546875,0,8.984375-2.4658203125t2.9296875-5.7861328125q0-2.978515625-2.587890625-4.6875q-1.806640625-1.171875-8.984375-2.978515625q-9.66796875-2.44140625-13.4033203125-4.2236328125t-5.6640625-4.931640625t-1.9287109375-6.9580078125q0-3.466796875,1.5869140625-6.4208984375t4.3212890625-4.9072265625q2.05078125-1.513671875,5.5908203125-2.5634765625t7.5927734375-1.0498046875q6.103515625,0,10.7177734375,1.7578125t6.8115234375,4.7607421875t3.02734375,8.0322265625l-8.59375,1.171875q-0.5859375-4.00390625-3.3935546875-6.25t-7.9345703125-2.24609375q-6.0546875,0-8.642578125,2.001953125t-2.587890625,4.6875q0,1.708984375,1.07421875,3.076171875q1.07421875,1.416015625,3.369140625,2.34375q1.318359375,0.48828125,7.763671875,2.24609375q9.326171875,2.490234375,13.0126953125,4.0771484375t5.7861328125,4.6142578125t2.099609375,7.51953125q0,4.39453125-2.5634765625,8.2763671875t-7.3974609375,6.005859375t-10.9375,2.1240234375q-10.107421875,0-15.4052734375-4.19921875t-6.7626953125-12.451171875z  M325.1953125,108.349609375l0-19.62890625l-19.482421875,0l0-8.203125l19.482421875,0l0-19.482421875l8.30078125,0l0,19.482421875l19.482421875,0l0,8.203125l-19.482421875,0l0,19.62890625l-8.30078125,0z  M448.291015625,112.255859375q6.591796875,4.541015625,12.158203125,6.640625l-2.783203125,6.591796875q-7.71484375-2.783203125-15.380859375-8.7890625q-7.958984375,4.443359375-17.578125,4.443359375q-9.716796875,0-17.626953125-4.6875t-12.1826171875-13.18359375t-4.2724609375-19.140625q0-10.595703125,4.296875-19.287109375t12.2314453125-13.232421875t17.7490234375-4.541015625q9.912109375,0,17.87109375,4.7119140625t12.1337890625,13.18359375t4.1748046875,19.1162109375q0,8.837890625-2.685546875,15.8935546875t-8.10546875,12.2802734375z M427.44140625,100.146484375q8.203125,2.294921875,13.525390625,6.8359375q8.349609375-7.6171875,8.349609375-22.900390625q0-8.69140625-2.9541015625-15.185546875t-8.642578125-10.0830078125t-12.7685546875-3.5888671875q-10.595703125,0-17.578125,7.2509765625t-6.982421875,21.6552734375q0,13.96484375,6.9091796875,21.435546875t17.6513671875,7.470703125q5.078125,0,9.5703125-1.904296875q-4.443359375-2.880859375-9.375-4.1015625z M511.62109375,111.474609375q-4.345703125,4.833984375-9.47265625,7.2509765625t-11.083984375,2.4169921875q-10.986328125,0-17.431640625-7.421875q-5.224609375-6.0546875-5.224609375-13.525390625q0-6.640625,4.2724609375-11.9873046875t12.7685546875-9.3994140625q-4.833984375-5.56640625-6.4453125-9.033203125t-1.611328125-6.689453125q0-6.4453125,5.0537109375-11.2060546875t12.7197265625-4.7607421875q7.32421875,0,11.9873046875,4.4921875t4.6630859375,10.791015625q0,10.205078125-13.525390625,17.431640625l12.841796875,16.357421875q2.197265625-4.296875,3.41796875-9.9609375l9.130859375,1.953125q-2.34375,9.375-6.34765625,15.4296875q4.931640625,6.54296875,11.181640625,10.986328125l-5.908203125,6.982421875q-5.322265625-3.41796875-10.986328125-10.107421875z M493.75,74.169921875q5.712890625-3.369140625,7.3974609375-5.908203125t1.6845703125-5.615234375q0-3.662109375-2.3193359375-5.9814453125t-5.7861328125-2.3193359375q-3.564453125,0-5.9326171875,2.294921875t-2.3681640625,5.615234375q0,1.66015625,0.8544921875,3.4912109375t2.5634765625,3.8818359375z M506.103515625,104.541015625l-16.11328125-19.970703125q-7.12890625,4.248046875-9.619140625,7.8857421875t-2.490234375,7.2021484375q0,4.345703125,3.466796875,9.033203125t9.814453125,4.6875q3.955078125,0,8.1787109375-2.4658203125t6.7626953125-6.3720703125z M530.6640625,119.921875l27.490234375-71.58203125l10.205078125,0l29.296875,71.58203125l-10.791015625,0l-8.349609375-21.6796875l-29.931640625,0l-7.861328125,21.6796875l-10.05859375,0z M551.318359375,90.52734375l24.267578125,0l-7.470703125-19.82421875q-3.41796875-9.033203125-5.078125-14.84375q-1.3671875,6.884765625-3.857421875,13.671875z"/></g></svg>
