<?xml version="1.0" encoding="UTF-8" standalone="no"?>
<!-- Generator: Adobe Illustrator 23.0.1, SVG Export Plug-In . SVG Version: 6.00 Build 0)  -->

<svg
   xmlns:dc="http://purl.org/dc/elements/1.1/"
   xmlns:cc="http://creativecommons.org/ns#"
   xmlns:rdf="http://www.w3.org/1999/02/22-rdf-syntax-ns#"
   xmlns:svg="http://www.w3.org/2000/svg"
   xmlns="http://www.w3.org/2000/svg"
   xmlns:xlink="http://www.w3.org/1999/xlink"
   xmlns:sodipodi="http://sodipodi.sourceforge.net/DTD/sodipodi-0.dtd"
   xmlns:inkscape="http://www.inkscape.org/namespaces/inkscape"
   version="1.1"
   id="Layer_1"
   x="0px"
   y="0px"
   viewBox="0 0 220.00001 279.51"
   xml:space="preserve"
   sodipodi:docname="crossplane-icon.svg"
   width="220"
   height="279.51001"
   inkscape:version="0.92.5 (2060ec1f9f, 2020-04-08)"><metadata
   id="metadata565"><rdf:RDF><cc:Work
       rdf:about=""><dc:format>image/svg+xml</dc:format><dc:type
         rdf:resource="http://purl.org/dc/dcmitype/StillImage" /><dc:title></dc:title></cc:Work></rdf:RDF></metadata><defs
   id="defs563" /><sodipodi:namedview
   pagecolor="#ffffff"
   bordercolor="#666666"
   borderopacity="1"
   objecttolerance="10"
   gridtolerance="10"
   guidetolerance="10"
   inkscape:pageopacity="0"
   inkscape:pageshadow="2"
   inkscape:window-width="1866"
   inkscape:window-height="1043"
   id="namedview561"
   showgrid="false"
   inkscape:zoom="0.8515619"
   inkscape:cx="436.23826"
   inkscape:cy="139.755"
   inkscape:window-x="54"
   inkscape:window-y="0"
   inkscape:window-maximized="1"
   inkscape:current-layer="Layer_1" />
<style
   type="text/css"
   id="style298">
	.st0{clip-path:url(#SVGID_2_);fill:#F7D186;}
	.st1{clip-path:url(#SVGID_4_);fill:#FF9234;}
	.st2{clip-path:url(#SVGID_6_);enable-background:new    ;}
	.st3{clip-path:url(#SVGID_8_);}
	.st4{clip-path:url(#SVGID_10_);}
	.st5{clip-path:url(#SVGID_12_);fill:#FFCD3C;}
	.st6{clip-path:url(#SVGID_14_);enable-background:new    ;}
	.st7{clip-path:url(#SVGID_16_);}
	.st8{clip-path:url(#SVGID_18_);}
	.st9{clip-path:url(#SVGID_20_);fill:#F3807B;}
	.st10{clip-path:url(#SVGID_22_);enable-background:new    ;}
	.st11{clip-path:url(#SVGID_24_);}
	.st12{clip-path:url(#SVGID_26_);}
	.st13{clip-path:url(#SVGID_28_);fill:#35D0BA;}
	.st14{clip-path:url(#SVGID_30_);fill:#D8AE64;}
	.st15{clip-path:url(#SVGID_32_);fill:#004680;}
	.st16{clip-path:url(#SVGID_34_);fill:#004680;}
	.st17{clip-path:url(#SVGID_36_);fill:#004680;}
	.st18{clip-path:url(#SVGID_38_);fill:#004680;}
	.st19{clip-path:url(#SVGID_40_);fill:#004680;}
	.st20{clip-path:url(#SVGID_42_);fill:#004680;}
	.st21{clip-path:url(#SVGID_44_);fill:#004680;}
	.st22{clip-path:url(#SVGID_46_);fill:#004680;}
	.st23{clip-path:url(#SVGID_48_);fill:#004680;}
	.st24{clip-path:url(#SVGID_50_);fill:#004680;}
</style>
<g
   id="g558">
	<g
   id="g308">
		<defs
   id="defs301">
			<path
   id="SVGID_1_"
   d="m 115.47,94.13 c -8.4,0 -15.22,6.81 -15.22,15.22 v 143.2 c 0,8.4 6.81,15.22 15.22,15.22 8.41,0 15.22,-6.81 15.22,-15.22 v -143.2 c -0.01,-8.41 -6.82,-15.22 -15.22,-15.22"
   inkscape:connector-curvature="0" />
		</defs>
		<clipPath
   id="SVGID_2_">
			<use
   xlink:href="#SVGID_1_"
   style="overflow:visible"
   id="use303"
   x="0"
   y="0"
   width="100%"
   height="100%" />
		</clipPath>
		<rect
   x="89.529999"
   y="83.410004"
   class="st0"
   width="51.869999"
   height="195.07001"
   clip-path="url(#SVGID_2_)"
   id="rect306"
   style="fill:#f7d186" />
	</g>
	<g
   id="g318">
		<defs
   id="defs311">
			<path
   id="SVGID_3_"
   d="m 176.53,75.36 c 0.05,-0.96 0.07,-1.93 0.07,-2.9 0,-0.95 -0.02,-1.89 -0.07,-2.82 -1.47,-32.22 -28.06,-57.88 -60.64,-57.88 -32.58,0 -59.17,25.66 -60.64,57.88 -0.04,0.94 -0.07,1.88 -0.07,2.82 0,1.04 0.03,2.07 0.08,3.09 -0.02,0.5 -0.08,1 -0.08,1.51 v 99.64 c 0,19.06 15.59,34.65 34.65,34.65 h 52.14 c 19.06,0 34.65,-15.59 34.65,-34.65 V 77.07 c 0,-0.58 -0.06,-1.14 -0.09,-1.71"
   inkscape:connector-curvature="0" />
		</defs>
		<clipPath
   id="SVGID_4_">
			<use
   xlink:href="#SVGID_3_"
   style="overflow:visible"
   id="use313"
   x="0"
   y="0"
   width="100%"
   height="100%" />
		</clipPath>
		<rect
   x="44.470001"
   y="1.04"
   class="st1"
   width="142.87"
   height="221.03999"
   clip-path="url(#SVGID_4_)"
   id="rect316"
   style="fill:#ff9234" />
	</g>
	<g
   id="g354">
		<defs
   id="defs321">
			<path
   id="SVGID_5_"
   d="m 55.55,69.64 c -0.04,0.93 -0.06,1.87 -0.06,2.82 0,1.04 0.02,2.07 0.08,3.09 -0.02,0.51 -0.08,1 -0.08,1.52 v 99.64 c 0,19.05 15.59,34.64 34.64,34.64 h 52.14 c 19.06,0 34.65,-15.59 34.65,-34.64 V 77.07 c 0,-0.58 -0.06,-1.14 -0.09,-1.71 0.05,-0.96 0.07,-1.93 0.07,-2.89 0,-0.95 -0.02,-1.89 -0.06,-2.82 C 175.37,37.43 148.78,11.77 116.2,11.77 83.61,11.76 57.02,37.42 55.55,69.64 Z"
   inkscape:connector-curvature="0" />
		</defs>
		<clipPath
   id="SVGID_6_">
			<use
   xlink:href="#SVGID_5_"
   style="overflow:visible"
   id="use323"
   x="0"
   y="0"
   width="100%"
   height="100%" />
		</clipPath>
		<g
   class="st2"
   clip-path="url(#SVGID_6_)"
   id="g352"
   style="enable-background:new">
			<g
   id="g350">
				<defs
   id="defs327">
					<rect
   id="SVGID_7_"
   x="16.08"
   y="24.9"
   width="197.24001"
   height="197.24001" />
				</defs>
				<clipPath
   id="SVGID_8_">
					<use
   xlink:href="#SVGID_7_"
   style="overflow:visible"
   id="use329"
   x="0"
   y="0"
   width="100%"
   height="100%" />
				</clipPath>
				<g
   class="st3"
   clip-path="url(#SVGID_8_)"
   id="g348">
					<defs
   id="defs333">
						
							<rect
   id="SVGID_9_"
   x="9.2299995"
   y="92.989998"
   transform="matrix(0.7071,-0.7071,0.7071,0.7071,-54.1638,118.2926)"
   width="212.95"
   height="63.07" />
					</defs>
					<clipPath
   id="SVGID_10_">
						<use
   xlink:href="#SVGID_9_"
   style="overflow:visible"
   id="use335"
   x="0"
   y="0"
   width="100%"
   height="100%" />
					</clipPath>
					<g
   class="st4"
   clip-path="url(#SVGID_10_)"
   id="g346">
						<defs
   id="defs339">
							<rect
   id="SVGID_11_"
   x="54.669998"
   y="9.8900003"
   width="124.35"
   height="201.53" />
						</defs>
						<clipPath
   id="SVGID_12_">
							<use
   xlink:href="#SVGID_11_"
   style="overflow:visible"
   id="use341"
   x="0"
   y="0"
   width="100%"
   height="100%" />
						</clipPath>
						<rect
   x="7.4000001"
   y="16.219999"
   class="st5"
   width="216.62"
   height="216.62"
   clip-path="url(#SVGID_12_)"
   id="rect344"
   style="fill:#ffcd3c" />
					</g>
				</g>
			</g>
		</g>
	</g>
	<g
   id="g390">
		<defs
   id="defs357">
			<path
   id="SVGID_13_"
   d="m 55.55,69.64 c -0.04,0.93 -0.06,1.87 -0.06,2.82 0,1.04 0.02,2.07 0.08,3.09 -0.02,0.51 -0.08,1 -0.08,1.52 v 99.64 c 0,19.05 15.59,34.64 34.64,34.64 h 52.14 c 19.06,0 34.65,-15.59 34.65,-34.64 V 77.07 c 0,-0.58 -0.06,-1.14 -0.09,-1.71 0.05,-0.96 0.07,-1.93 0.07,-2.89 0,-0.95 -0.02,-1.89 -0.06,-2.82 C 175.37,37.43 148.78,11.77 116.2,11.77 83.61,11.76 57.02,37.42 55.55,69.64 Z"
   inkscape:connector-curvature="0" />
		</defs>
		<clipPath
   id="SVGID_14_">
			<use
   xlink:href="#SVGID_13_"
   style="overflow:visible"
   id="use359"
   x="0"
   y="0"
   width="100%"
   height="100%" />
		</clipPath>
		<g
   class="st6"
   clip-path="url(#SVGID_14_)"
   id="g388"
   style="enable-background:new">
			<g
   id="g386">
				<defs
   id="defs363">
					<rect
   id="SVGID_15_"
   x="-37.52"
   y="-28.700001"
   width="207.96001"
   height="207.96001" />
				</defs>
				<clipPath
   id="SVGID_16_">
					<use
   xlink:href="#SVGID_15_"
   style="overflow:visible"
   id="use365"
   x="0"
   y="0"
   width="100%"
   height="100%" />
				</clipPath>
				<g
   class="st7"
   clip-path="url(#SVGID_16_)"
   id="g384">
					<defs
   id="defs369">
						
							<rect
   id="SVGID_17_"
   x="-40.950001"
   y="35.099998"
   transform="matrix(0.7071,-0.7071,0.7071,0.7071,-33.3744,68.1028)"
   width="212.95"
   height="78.480003" />
					</defs>
					<clipPath
   id="SVGID_18_">
						<use
   xlink:href="#SVGID_17_"
   style="overflow:visible"
   id="use371"
   x="0"
   y="0"
   width="100%"
   height="100%" />
					</clipPath>
					<g
   class="st8"
   clip-path="url(#SVGID_18_)"
   id="g382">
						<defs
   id="defs375">
							<rect
   id="SVGID_19_"
   x="54.669998"
   y="9.8900003"
   width="124.35"
   height="201.53" />
						</defs>
						<clipPath
   id="SVGID_20_">
							<use
   xlink:href="#SVGID_19_"
   style="overflow:visible"
   id="use377"
   x="0"
   y="0"
   width="100%"
   height="100%" />
						</clipPath>
						<rect
   x="-48.240002"
   y="-39.419998"
   class="st9"
   width="227.50999"
   height="227.50999"
   clip-path="url(#SVGID_20_)"
   id="rect380"
   style="fill:#f3807b" />
					</g>
				</g>
			</g>
		</g>
	</g>
	<g
   id="g426">
		<defs
   id="defs393">
			<path
   id="SVGID_21_"
   d="m 55.55,69.64 c -0.04,0.93 -0.06,1.87 -0.06,2.82 0,1.04 0.02,2.07 0.08,3.09 -0.02,0.51 -0.08,1 -0.08,1.52 v 99.64 c 0,19.05 15.59,34.64 34.64,34.64 h 52.14 c 19.06,0 34.65,-15.59 34.65,-34.64 V 77.07 c 0,-0.58 -0.06,-1.14 -0.09,-1.71 0.05,-0.96 0.07,-1.93 0.07,-2.89 0,-0.95 -0.02,-1.89 -0.06,-2.82 C 175.37,37.43 148.78,11.77 116.2,11.77 83.61,11.76 57.02,37.42 55.55,69.64 Z"
   inkscape:connector-curvature="0" />
		</defs>
		<clipPath
   id="SVGID_22_">
			<use
   xlink:href="#SVGID_21_"
   style="overflow:visible"
   id="use395"
   x="0"
   y="0"
   width="100%"
   height="100%" />
		</clipPath>
		<g
   class="st10"
   clip-path="url(#SVGID_22_)"
   id="g424"
   style="enable-background:new">
			<g
   id="g422">
				<defs
   id="defs399">
					<rect
   id="SVGID_23_"
   x="61.099998"
   y="69.919998"
   width="197.24001"
   height="197.24001" />
				</defs>
				<clipPath
   id="SVGID_24_">
					<use
   xlink:href="#SVGID_23_"
   style="overflow:visible"
   id="use401"
   x="0"
   y="0"
   width="100%"
   height="100%" />
				</clipPath>
				<g
   class="st11"
   clip-path="url(#SVGID_24_)"
   id="g420">
					<defs
   id="defs405">
						
							<rect
   id="SVGID_25_"
   x="53.98"
   y="137.74001"
   transform="matrix(0.7071,-0.7071,0.7071,0.7071,-72.6974,163.0359)"
   width="212.95"
   height="63.07" />
					</defs>
					<clipPath
   id="SVGID_26_">
						<use
   xlink:href="#SVGID_25_"
   style="overflow:visible"
   id="use407"
   x="0"
   y="0"
   width="100%"
   height="100%" />
					</clipPath>
					<g
   class="st12"
   clip-path="url(#SVGID_26_)"
   id="g418">
						<defs
   id="defs411">
							<rect
   id="SVGID_27_"
   x="54.669998"
   y="9.8900003"
   width="124.35"
   height="201.53" />
						</defs>
						<clipPath
   id="SVGID_28_">
							<use
   xlink:href="#SVGID_27_"
   style="overflow:visible"
   id="use413"
   x="0"
   y="0"
   width="100%"
   height="100%" />
						</clipPath>
						<rect
   x="52.139999"
   y="60.959999"
   class="st13"
   width="216.62"
   height="216.62"
   clip-path="url(#SVGID_28_)"
   id="rect416"
   style="fill:#35d0ba" />
					</g>
				</g>
			</g>
		</g>
	</g>
	<g
   id="g436">
		<defs
   id="defs429">
			<path
   id="SVGID_29_"
   d="m 104.38,211.52 26.4,26.39 V 211.3 c 0,0 -27.06,0.22 -26.4,0.22"
   inkscape:connector-curvature="0" />
		</defs>
		<clipPath
   id="SVGID_30_">
			<use
   xlink:href="#SVGID_29_"
   style="overflow:visible"
   id="use431"
   x="0"
   y="0"
   width="100%"
   height="100%" />
		</clipPath>
		<rect
   x="93.650002"
   y="200.58"
   class="st14"
   width="47.849998"
   height="48.060001"
   clip-path="url(#SVGID_30_)"
   id="rect434"
   style="fill:#d8ae64" />
	</g>
	<g
   id="g448">
		<defs
   id="defs439">
			<path
   id="SVGID_31_"
   d="m 307.52,195.1 c -38.8,0 -70.21,-31.6 -70.21,-70.41 0,-38.6 31.4,-70.21 70.21,-70.21 20.2,0 39.6,8.8 52.81,24 4.2,5 3.8,12.2 -1,16.4 -4.8,4.4 -12.2,3.8 -16.4,-1 -9,-10.2 -21.8,-16 -35.4,-16 -25.8,0 -47.01,21 -47.01,46.8 0,26 21.2,47.01 47.01,47.01 13.6,0 26.4,-5.8 35.4,-16 4.2,-4.8 11.6,-5.4 16.4,-1 4.8,4.2 5.2,11.4 1,16.4 -13.21,15.21 -32.61,24.01 -52.81,24.01"
   inkscape:connector-curvature="0" />
		</defs>
		<use
   xlink:href="#SVGID_31_"
   style="clip-rule:evenodd;overflow:visible;fill:#004680;fill-rule:evenodd"
   id="use441"
   x="0"
   y="0"
   width="100%"
   height="100%" />
		<clipPath
   id="SVGID_32_">
			<use
   xlink:href="#SVGID_31_"
   style="overflow:visible"
   id="use443"
   x="0"
   y="0"
   width="100%"
   height="100%" />
		</clipPath>
		<rect
   x="226.59"
   y="43.77"
   class="st15"
   width="147.35001"
   height="162.05"
   clip-path="url(#SVGID_32_)"
   id="rect446"
   style="fill:#004680" />
	</g>
	<g
   id="g460">
		<defs
   id="defs451">
			<path
   id="SVGID_33_"
   d="m 438.53,98.89 c 0,6.4 -5.2,11.6 -11.8,11.6 -12.8,0 -22.4,10.4 -22.4,24.6 v 48.41 c 0,6.4 -5.2,11.6 -11.6,11.6 -6.4,0 -11.6,-5.2 -11.6,-11.6 V 96.49 c 0,-6.4 5.2,-11.6 11.6,-11.6 5.4,0 9.8,3.6 11.2,8.6 6.8,-4 14.6,-6.2 22.8,-6.2 6.6,0 11.8,5.2 11.8,11.6"
   inkscape:connector-curvature="0" />
		</defs>
		<use
   xlink:href="#SVGID_33_"
   style="clip-rule:evenodd;overflow:visible;fill:#004680;fill-rule:evenodd"
   id="use453"
   x="0"
   y="0"
   width="100%"
   height="100%" />
		<clipPath
   id="SVGID_34_">
			<use
   xlink:href="#SVGID_33_"
   style="overflow:visible"
   id="use455"
   x="0"
   y="0"
   width="100%"
   height="100%" />
		</clipPath>
		<rect
   x="370.39999"
   y="74.169998"
   class="st16"
   width="78.839996"
   height="131.64999"
   clip-path="url(#SVGID_34_)"
   id="rect458"
   style="fill:#004680" />
	</g>
	<g
   id="g472">
		<defs
   id="defs463">
			<path
   id="SVGID_35_"
   d="m 497.53,195.7 c -30.4,0 -55,-24.8 -55,-55 0,-30.4 24.6,-55.21 55,-55.21 30.4,0 55.21,24.8 55.21,55.21 0,30.2 -24.8,55 -55.21,55 m 0,-87.01 c -17.6,0 -31.8,14.4 -31.8,32 0,17.4 14.2,31.8 31.8,31.8 17.6,0 31.8,-14.4 31.8,-31.8 0.01,-17.6 -14.19,-32 -31.8,-32"
   inkscape:connector-curvature="0" />
		</defs>
		<use
   xlink:href="#SVGID_35_"
   style="clip-rule:evenodd;overflow:visible;fill:#004680;fill-rule:evenodd"
   id="use465"
   x="0"
   y="0"
   width="100%"
   height="100%" />
		<clipPath
   id="SVGID_36_">
			<use
   xlink:href="#SVGID_35_"
   style="overflow:visible"
   id="use467"
   x="0"
   y="0"
   width="100%"
   height="100%" />
		</clipPath>
		<rect
   x="431.81"
   y="74.769997"
   class="st17"
   width="131.64999"
   height="131.64999"
   clip-path="url(#SVGID_36_)"
   id="rect470"
   style="fill:#004680" />
	</g>
	<g
   id="g484">
		<defs
   id="defs475">
			<path
   id="SVGID_37_"
   d="m 571.94,174.9 c -2.8,-5.8 -0.2,-12.8 5.6,-15.4 6,-2.8 12.8,-0.2 15.4,5.6 1.6,3.2 6,6.8 13.8,6.8 10.8,0 14.6,-6.6 14.6,-11 0,-6 -1.6,-7.8 -17.2,-11.8 -7,-1.6 -14.2,-3.4 -20.4,-7.4 -8.4,-5.6 -13,-14 -13,-24.4 0,-8.2 3.6,-16.4 9.8,-22.4 6.6,-6.4 15.8,-10 26.2,-10 14.8,0 27.41,7.2 32.8,19 2.8,5.8 0.2,12.6 -5.6,15.4 -5.8,2.8 -12.8,0.2 -15.4,-5.6 -1.2,-2.6 -5,-5.6 -11.8,-5.6 -9.2,0 -12.6,5.8 -12.6,9.2 0,4 0.8,5.6 15.6,9.4 13,3.2 34.8,8.6 34.8,34.2 0,8.6 -3.6,17.2 -10,23.6 -5,4.8 -13.8,10.6 -27.8,10.6 -15.8,0 -29.2,-7.8 -34.8,-20.2"
   inkscape:connector-curvature="0" />
		</defs>
		<use
   xlink:href="#SVGID_37_"
   style="clip-rule:evenodd;overflow:visible;fill:#004680;fill-rule:evenodd"
   id="use477"
   x="0"
   y="0"
   width="100%"
   height="100%" />
		<clipPath
   id="SVGID_38_">
			<use
   xlink:href="#SVGID_37_"
   style="overflow:visible"
   id="use479"
   x="0"
   y="0"
   width="100%"
   height="100%" />
		</clipPath>
		<rect
   x="560.02002"
   y="74.169998"
   class="st18"
   width="95.25"
   height="131.64999"
   clip-path="url(#SVGID_38_)"
   id="rect482"
   style="fill:#004680" />
	</g>
	<g
   id="g496">
		<defs
   id="defs487">
			<path
   id="SVGID_39_"
   d="m 663.75,174.9 c -2.8,-5.8 -0.2,-12.8 5.6,-15.4 6,-2.8 12.8,-0.2 15.4,5.6 1.6,3.2 6,6.8 13.8,6.8 10.8,0 14.6,-6.6 14.6,-11 0,-6 -1.6,-7.8 -17.2,-11.8 -7,-1.6 -14.2,-3.4 -20.4,-7.4 -8.4,-5.6 -13,-14 -13,-24.4 0,-8.2 3.6,-16.4 9.8,-22.4 6.6,-6.4 15.8,-10 26.2,-10 14.81,0 27.41,7.2 32.8,19 2.8,5.8 0.2,12.6 -5.6,15.4 -5.8,2.8 -12.8,0.2 -15.4,-5.6 -1.2,-2.6 -5,-5.6 -11.8,-5.6 -9.2,0 -12.6,5.8 -12.6,9.2 0,4 0.8,5.6 15.6,9.4 13,3.2 34.8,8.6 34.8,34.2 0,8.6 -3.6,17.2 -10,23.6 -5,4.8 -13.8,10.6 -27.8,10.6 -15.8,0 -29.2,-7.8 -34.8,-20.2"
   inkscape:connector-curvature="0" />
		</defs>
		<use
   xlink:href="#SVGID_39_"
   style="clip-rule:evenodd;overflow:visible;fill:#004680;fill-rule:evenodd"
   id="use489"
   x="0"
   y="0"
   width="100%"
   height="100%" />
		<clipPath
   id="SVGID_40_">
			<use
   xlink:href="#SVGID_39_"
   style="overflow:visible"
   id="use491"
   x="0"
   y="0"
   width="100%"
   height="100%" />
		</clipPath>
		<rect
   x="651.83002"
   y="74.169998"
   class="st19"
   width="95.25"
   height="131.64999"
   clip-path="url(#SVGID_40_)"
   id="rect494"
   style="fill:#004680" />
	</g>
	<g
   id="g508">
		<defs
   id="defs499">
			<path
   id="SVGID_41_"
   d="m 859.17,139.9 c 0,14.8 -5,28.4 -14.4,38.61 -9.8,10.6 -23.2,16.6 -38,16.6 -10.6,0 -20.6,-3.2 -29,-8.8 v 47.2 c 0,6.4 -5.4,11.6 -11.8,11.6 -6.4,0 -11.6,-5.2 -11.6,-11.6 V 96.49 c 0,-6.4 5.2,-11.6 11.6,-11.6 5.4,0 10.2,3.8 11.4,9 8.6,-5.8 18.8,-9 29.4,-9 14.8,0 28.2,5.8 38,16.4 9.4,10.2 14.4,24 14.4,38.61 m -23.21,0 c 0,-18.4 -12.2,-31.8 -29.2,-31.8 -16.8,0 -29,13.4 -29,31.8 0,18.4 12.2,31.8 29,31.8 17.01,0 29.2,-13.4 29.2,-31.8"
   inkscape:connector-curvature="0" />
		</defs>
		<use
   xlink:href="#SVGID_41_"
   style="clip-rule:evenodd;overflow:visible;fill:#004680;fill-rule:evenodd"
   id="use501"
   x="0"
   y="0"
   width="100%"
   height="100%" />
		<clipPath
   id="SVGID_42_">
			<use
   xlink:href="#SVGID_41_"
   style="overflow:visible"
   id="use503"
   x="0"
   y="0"
   width="100%"
   height="100%" />
		</clipPath>
		<rect
   x="743.64001"
   y="74.169998"
   class="st20"
   width="126.25"
   height="181.64999"
   clip-path="url(#SVGID_42_)"
   id="rect506"
   style="fill:#004680" />
	</g>
	<g
   id="g520">
		<defs
   id="defs511">
			<path
   id="SVGID_43_"
   d="m 889.77,195.1 c -6.4,0 -11.6,-5.2 -11.6,-11.6 V 66.29 c 0,-6.4 5.2,-11.6 11.6,-11.6 6.4,0 11.8,5.2 11.8,11.6 V 183.5 c 0,6.4 -5.4,11.6 -11.8,11.6"
   inkscape:connector-curvature="0" />
		</defs>
		<use
   xlink:href="#SVGID_43_"
   style="clip-rule:evenodd;overflow:visible;fill:#004680;fill-rule:evenodd"
   id="use513"
   x="0"
   y="0"
   width="100%"
   height="100%" />
		<clipPath
   id="SVGID_44_">
			<use
   xlink:href="#SVGID_43_"
   style="overflow:visible"
   id="use515"
   x="0"
   y="0"
   width="100%"
   height="100%" />
		</clipPath>
		<rect
   x="867.45001"
   y="43.970001"
   class="st21"
   width="44.84"
   height="161.85001"
   clip-path="url(#SVGID_44_)"
   id="rect518"
   style="fill:#004680" />
	</g>
	<g
   id="g532">
		<defs
   id="defs523">
			<path
   id="SVGID_45_"
   d="m 1025.38,96.49 v 87.01 c 0,6.4 -5.2,11.6 -11.6,11.6 -5.6,0 -10.2,-3.8 -11.4,-9 -8.4,5.8 -18.6,9 -29.4,9 -14.8,0 -28.2,-5.8 -38.01,-16.6 -9.2,-10 -14.4,-23.8 -14.4,-38.4 0,-14.8 5.2,-28.6 14.4,-38.61 9.8,-10.8 23.21,-16.6 38.01,-16.6 10.8,0 21,3.2 29.4,9 1.2,-5.2 5.8,-9 11.4,-9 6.4,0 11.6,5.2 11.6,11.6 m -23.2,43.61 c 0,-18.6 -12.4,-32 -29.2,-32 -17,0 -29.2,13.4 -29.2,32 0,18.4 12.2,31.8 29.2,31.8 16.8,0 29.2,-13.4 29.2,-31.8"
   inkscape:connector-curvature="0" />
		</defs>
		<use
   xlink:href="#SVGID_45_"
   style="clip-rule:evenodd;overflow:visible;fill:#004680;fill-rule:evenodd"
   id="use525"
   x="0"
   y="0"
   width="100%"
   height="100%" />
		<clipPath
   id="SVGID_46_">
			<use
   xlink:href="#SVGID_45_"
   style="overflow:visible"
   id="use527"
   x="0"
   y="0"
   width="100%"
   height="100%" />
		</clipPath>
		<rect
   x="909.84998"
   y="74.169998"
   class="st22"
   width="126.25"
   height="131.64999"
   clip-path="url(#SVGID_46_)"
   id="rect530"
   style="fill:#004680" />
	</g>
	<g
   id="g544">
		<defs
   id="defs535">
			<path
   id="SVGID_47_"
   d="m 1136.79,132.7 v 50.8 c 0,6.4 -5.2,11.6 -11.8,11.6 -6.4,0 -11.6,-5.2 -11.6,-11.6 v -50.8 c 0,-11.8 -6.6,-24.6 -21.4,-24.6 -13.4,0 -23.4,10.6 -23.4,24.6 v 0.8 0.8 49.2 c 0,6.4 -5.2,11.6 -11.6,11.6 -6.4,0 -11.6,-5.2 -11.6,-11.6 v -49.4 -1.4 -36.21 c 0,-6.4 5.2,-11.6 11.6,-11.6 4.8,0 8.8,2.8 10.6,6.8 7,-4.4 15.4,-6.8 24.4,-6.8 25.4,0 44.8,20.6 44.8,47.81"
   inkscape:connector-curvature="0" />
		</defs>
		<use
   xlink:href="#SVGID_47_"
   style="clip-rule:evenodd;overflow:visible;fill:#004680;fill-rule:evenodd"
   id="use537"
   x="0"
   y="0"
   width="100%"
   height="100%" />
		<clipPath
   id="SVGID_48_">
			<use
   xlink:href="#SVGID_47_"
   style="overflow:visible"
   id="use539"
   x="0"
   y="0"
   width="100%"
   height="100%" />
		</clipPath>
		<rect
   x="1034.66"
   y="74.169998"
   class="st23"
   width="112.85"
   height="131.64999"
   clip-path="url(#SVGID_48_)"
   id="rect542"
   style="fill:#004680" />
	</g>
	<g
   id="g556">
		<defs
   id="defs547">
			<path
   id="SVGID_49_"
   d="m 1207.2,196.1 c -14.8,0 -28.2,-6.4 -38.01,-17.2 -9.4,-10 -14.4,-23.81 -14.4,-38.4 0,-31.61 22.2,-55.21 51.4,-55.21 29.41,0 50.8,23.2 50.8,55.21 0,6.4 -5.2,11.6 -11.8,11.6 h -65.41 c 4,12.2 14.4,20.8 27.4,20.8 7.83,0 14.48,-1.65 19.23,-6.21 1.44,-1.38 2.7,-3.03 3.77,-4.99 3.4,-5.6 10.6,-7.2 16,-4 5.6,3.4 7.2,10.6 4,16 -8.98,16.2 -24.58,22.4 -42.98,22.4 m -27.61,-67.4 h 52.61 c -4,-13.8 -15,-20.2 -26,-20.2 -10.8,-0.01 -22.41,6.39 -26.61,20.2"
   inkscape:connector-curvature="0" />
		</defs>
		<use
   xlink:href="#SVGID_49_"
   style="clip-rule:evenodd;overflow:visible;fill:#004680;fill-rule:evenodd"
   id="use549"
   x="0"
   y="0"
   width="100%"
   height="100%" />
		<clipPath
   id="SVGID_50_">
			<use
   xlink:href="#SVGID_49_"
   style="overflow:visible"
   id="use551"
   x="0"
   y="0"
   width="100%"
   height="100%" />
		</clipPath>
		<rect
   x="1144.0699"
   y="74.57"
   class="st24"
   width="123.65"
   height="132.25"
   clip-path="url(#SVGID_50_)"
   id="rect554"
   style="fill:#004680" />
	</g>
</g>
</svg>