<?xml version="1.0" encoding="UTF-8" standalone="no"?>
<!-- Generator: Adobe Illustrator 22.1.0, SVG Export Plug-In . SVG Version: 6.00 Build 0)  -->

<svg
   version="1.1"
   id="Layer_1"
   x="0px"
   y="0px"
   viewBox="0 0 24.799999 31.300001"
   xml:space="preserve"
   sodipodi:docname="argo-icon.svg"
   width="24.799999"
   height="31.300001"
   inkscape:version="1.1.1 (3bf5ae0d25, 2021-09-20)"
   xmlns:inkscape="http://www.inkscape.org/namespaces/inkscape"
   xmlns:sodipodi="http://sodipodi.sourceforge.net/DTD/sodipodi-0.dtd"
   xmlns:xlink="http://www.w3.org/1999/xlink"
   xmlns="http://www.w3.org/2000/svg"
   xmlns:svg="http://www.w3.org/2000/svg"><defs
   id="defs192" /><sodipodi:namedview
   id="namedview190"
   pagecolor="#ffffff"
   bordercolor="#999999"
   borderopacity="1"
   inkscape:pageshadow="0"
   inkscape:pageopacity="0"
   inkscape:pagecheckerboard="false"
   showgrid="false"
   fit-margin-top="1"
   fit-margin-left="1"
   fit-margin-right="1"
   fit-margin-bottom="1"
   inkscape:zoom="10.361446"
   inkscape:cx="-2.4610465"
   inkscape:cy="16.889535"
   inkscape:window-width="1870"
   inkscape:window-height="1043"
   inkscape:window-x="1970"
   inkscape:window-y="25"
   inkscape:window-maximized="1"
   inkscape:current-layer="Layer_1" />
<style
   type="text/css"
   id="style57">
	.st0{fill:#E9654B;}
	.st1{fill:#B6CFEA;}
	.st2{fill:#E6F5F8;}
	.st3{fill:#D0E8F0;}
	.st4{fill:#EE794B;}
	.st5{clip-path:url(#SVGID_2_);}
	.st6{opacity:0.22;}
	.st7{fill:#E34E3B;}
	.st8{opacity:0.5;}
	.st9{fill:#FBDFC3;}
	.st10{fill:#010101;}
	.st11{fill:#FFFFFF;}
	.st12{opacity:0.25;}
</style>
<g
   id="g187"
   transform="translate(-8.2,-5.999999)">
	<g
   id="g67">
		<g
   id="g61">
			<path
   class="st0"
   d="m 16,27.7 c 0,0 -0.2,0.6 -0.5,0.9 -0.2,0.2 -0.4,0.3 -0.7,0.3 -0.7,0.2 -1.5,0.3 -1.5,0.3 0,0 0.7,0.1 1.5,0.2 0.3,0 0.3,0 0.5,0.1 0.5,0 0.7,-0.3 0.7,-0.3 z"
   id="path59" />
		</g>
		<g
   id="g65">
			<path
   class="st0"
   d="m 25.2,27.7 c 0,0 0.2,0.6 0.5,0.9 0.2,0.2 0.4,0.3 0.7,0.3 0.7,0.2 1.5,0.3 1.5,0.3 0,0 -0.7,0.1 -1.6,0.2 -0.3,0 -0.3,0 -0.5,0.1 -0.6,0 -0.7,-0.3 -0.7,-0.3 z"
   id="path63" />
		</g>
	</g>
	<g
   id="g185">
		<g
   id="g71">
			<circle
   class="st1"
   cx="20.700001"
   cy="17.799999"
   r="10.8"
   id="circle69" />
		</g>
		<g
   id="g75">
			<circle
   class="st2"
   cx="20.700001"
   cy="17.799999"
   r="10.4"
   id="circle73" />
		</g>
		<g
   id="g79">
			<circle
   class="st3"
   cx="20.700001"
   cy="18"
   r="8.5"
   id="circle77" />
		</g>
		<g
   id="Body_1_">
			<g
   id="g83">
				<path
   class="st4"
   d="m 15.7,22 c 0,0 0.7,11.3 0.7,11.5 0,0.1 0.1,0.3 -0.4,0.5 -0.5,0.2 -2.1,0.6 -2.1,0.6 0,0 1.2,0 2.4,0 1.1,0 1.1,-0.9 1.1,-1.1 0,-0.2 0.3,-4.5 0.3,-4.5 0,0 0.1,5.1 0.1,5.3 0,0.2 -0.1,0.5 -0.8,0.7 -0.5,0.1 -2,0.4 -2,0.4 0,0 1.7,0 2.3,0 1.4,0 1.4,-0.9 1.4,-0.9 L 19,30 c 0,0 0.1,4.5 0.1,5 0,0.4 -0.3,0.7 -1.4,0.9 -0.7,0.2 -1.6,0.4 -1.6,0.4 0,0 1.9,0 2.6,0 1.3,-0.1 1.5,-1 1.5,-1 l 2.2,-11.2 z"
   id="path81" />
			</g>
			<g
   id="g87">
				<path
   class="st4"
   d="m 25.7,22 c 0,0 -0.7,11.3 -0.7,11.5 0,0.1 -0.1,0.3 0.4,0.5 0.5,0.2 2.1,0.6 2.1,0.6 0,0 -1.2,0 -2.4,0 C 24,34.6 24,33.7 24,33.5 24,33.3 23.7,29 23.7,29 c 0,0 -0.1,5.1 -0.1,5.3 0,0.2 0.1,0.5 0.8,0.7 0.5,0.1 2,0.4 2,0.4 0,0 -1.7,0 -2.3,0 -1.4,0 -1.4,-0.9 -1.4,-0.9 L 22.4,30 c 0,0 -0.1,4.5 -0.1,5 0,0.4 0.3,0.7 1.4,0.9 0.7,0.2 1.6,0.4 1.6,0.4 0,0 -1.9,0 -2.6,0 -1.3,-0.1 -1.5,-1 -1.5,-1 L 19,24.1 Z"
   id="path85" />
			</g>
			<g
   id="g91">
				<path
   class="st4"
   d="m 25.8,16.5 c 0,2.8 -2.3,5 -5,5 -2.7,0 -5,-2.3 -5,-5 0,-2.7 2.3,-5 5,-5 2.7,0 5,2.2 5,5 z"
   id="path89" />
			</g>
			<g
   id="g105">
				<g
   id="g103">
					<defs
   id="defs94">
						<polyline
   id="SVGID_1_"
   points="25.8,16.3 25.2,30 16.2,30 15.7,16.3       " />
					</defs>
					<clipPath
   id="SVGID_2_">
						<use
   xlink:href="#SVGID_1_"
   style="overflow:visible"
   id="use96"
   x="0"
   y="0"
   width="100%"
   height="100%" />
					</clipPath>
					<g
   class="st5"
   clip-path="url(#SVGID_2_)"
   id="g101">
						<circle
   class="st4"
   cx="20.799999"
   cy="19.200001"
   r="8.8999996"
   id="circle99" />
					</g>
				</g>
			</g>
			<g
   class="st6"
   id="g109">
				<path
   class="st7"
   d="m 25.5,22 c 0,0 0.6,-5.3 -0.2,-7.3 -1.5,-3.5 -5,-3.2 -5,-3.2 0,0 2,0.8 2.1,3.8 0.1,2.1 0,5.2 0,5.2 z"
   id="path107" />
			</g>
		</g>
		<g
   id="Face_1_">
			<g
   class="st8"
   id="g116">
				<g
   id="g114">
					<circle
   class="st9"
   cx="18.700001"
   cy="13.8"
   r="0.69999999"
   id="circle112" />
				</g>
			</g>
			<g
   id="g162">
				<g
   id="g126">
					<g
   id="g120">
						<path
   class="st10"
   d="m 22.5,24 c 0,1.7 -0.8,2.8 -1.8,2.8 -1,0 -1.8,-1.3 -1.8,-3 0,0 0.8,1.6 1.9,1.6 1.1,0 1.7,-1.4 1.7,-1.4 z"
   id="path118" />
					</g>
					<g
   id="g124">
						<path
   class="st11"
   d="m 22.5,24 c 0,1.1 -0.8,1.7 -1.8,1.7 -1,0 -1.7,-0.8 -1.7,-1.8 0,0 0.8,1 1.9,1 1.1,0 1.6,-0.9 1.6,-0.9 z"
   id="path122" />
					</g>
				</g>
				<g
   id="g160">
					<g
   id="g148">
						<g
   id="g136">
							<g
   id="g130">
								<circle
   class="st0"
   cx="24.200001"
   cy="19.299999"
   r="3.0999999"
   id="circle128" />
							</g>
							<g
   id="g134">
								<circle
   class="st0"
   cx="17.200001"
   cy="19.299999"
   r="3.0999999"
   id="circle132" />
							</g>
						</g>
						<g
   id="g146">
							<g
   id="g140">
								<circle
   class="st11"
   cx="24.200001"
   cy="19.299999"
   r="2.4000001"
   id="circle138" />
							</g>
							<g
   id="g144">
								<circle
   class="st11"
   cx="17"
   cy="19.299999"
   r="2.4000001"
   id="circle142" />
							</g>
						</g>
					</g>
					<g
   id="g158">
						<g
   id="g152">
							<circle
   class="st10"
   cx="17"
   cy="19"
   r="0.69999999"
   id="circle150" />
						</g>
						<g
   id="g156">
							<circle
   class="st10"
   cx="24.200001"
   cy="19"
   r="0.69999999"
   id="circle154" />
						</g>
					</g>
				</g>
			</g>
		</g>
		<g
   id="g167">
			<path
   class="st1"
   d="m 9.7,20.5 v 0 C 9.4,20.5 9.2,20.3 9.2,20 v -4 c 0,-0.3 0.2,-0.5 0.5,-0.5 v 0 c 0.3,0 0.5,0.2 0.5,0.5 v 4 c 0,0.3 -0.2,0.5 -0.5,0.5 z"
   id="path165" />
		</g>
		<g
   id="g171">
			<path
   class="st1"
   d="m 31.5,20.5 v 0 C 31.2,20.5 31,20.3 31,20 v -4 c 0,-0.3 0.2,-0.5 0.5,-0.5 v 0 c 0.3,0 0.5,0.2 0.5,0.5 v 4 c 0,0.3 -0.2,0.5 -0.5,0.5 z"
   id="path169" />
		</g>
		<g
   id="g175">
			<circle
   class="st11"
   cx="17.299999"
   cy="9.8000002"
   r="0.5"
   id="circle173" />
		</g>
		<g
   id="g179">
			<path
   class="st11"
   d="m 13.7,23.3 c -0.1,0 -0.2,0 -0.3,-0.1 -1.2,-1.5 -1.8,-3.4 -1.8,-5.3 0,-1.6 0.4,-3.1 1.2,-4.5 0.8,-1.3 1.9,-2.4 3.2,-3.2 0.2,-0.1 0.4,0 0.5,0.1 0.1,0.2 0,0.4 -0.1,0.5 -2.5,1.4 -4.1,4.1 -4.1,7 0,1.8 0.6,3.5 1.7,4.9 0.1,0.1 0.1,0.4 -0.1,0.5 -0.1,0.1 -0.1,0.1 -0.2,0.1 z"
   id="path177" />
		</g>
		<g
   class="st12"
   id="g183">
			<path
   class="st0"
   d="m 25.2,28 v -0.8 c -1.4,0.8 -2.9,1.6 -4.7,1.6 -2,0 -3.3,-0.9 -4.6,-1.6 L 16,28 c 0,0 1.5,1.6 4.6,1.6 2.9,-0.1 4.6,-1.6 4.6,-1.6 z"
   id="path181" />
		</g>
	</g>
</g>
</svg>
